# MagicaVoxel @ Ephtracy

# group
o 

# material
mtllib Cheese.mtl
usemtl palette

# normals
vn -1 0 0
vn 1 0 0
vn 0 0 1
vn 0 0 -1
vn 0 -1 0
vn 0 1 0

# texcoords
vt 0.0683594 0.5
vt 0.958984 0.5

# verts
v -0.9 0.1 0.9
v -0.9 0.1 -1.1
v -0.9 0.3 0.9
v -0.9 0.3 -1.1
v -0.8 0.3 0.1
v -0.8 0.3 -0.3
v -0.8 0.9 0.1
v -0.8 0.9 -0.3
v -0.7 0.2 0.3
v -0.7 0.2 0.1
v -0.7 0.2 -0.3
v -0.7 0.2 -0.5
v -0.7 0.9 0.3
v -0.7 0.9 0.1
v -0.7 0.9 -0.3
v -0.7 0.9 -0.5
v -0.6 0 0.6
v -0.6 0 -0.8
v -0.6 0.1 0.6
v -0.6 0.1 -0.8
v -0.6 0.2 0.5
v -0.6 0.2 0.3
v -0.6 0.2 -0.5
v -0.6 0.2 -0.7
v -0.6 0.9 0.5
v -0.6 0.9 0.3
v -0.6 0.9 -0.5
v -0.6 0.9 -0.7
v -0.5 0.2 0.6
v -0.5 0.2 0.5
v -0.5 0.2 -0.7
v -0.5 0.2 -0.8
v -0.5 0.9 0.6
v -0.5 0.9 0.5
v -0.5 0.9 -0.7
v -0.5 0.9 -0.8
v -0.3 0.2 0.7
v -0.3 0.2 0.6
v -0.3 0.2 -0.8
v -0.3 0.2 -0.9
v -0.3 0.9 0.7
v -0.3 0.9 0.6
v -0.3 0.9 -0.8
v -0.3 0.9 -0.9
v -0.1 0.2 0.8
v -0.1 0.2 0.7
v -0.1 0.2 -0.9
v -0.1 0.2 -1
v -0.1 0.3 0.8
v -0.1 0.3 -1
v -0.1 0.9 0.8
v -0.1 0.9 0.7
v -0.1 0.9 -0.9
v -0.1 0.9 -1
v 1 0.2 0.8
v 1 0.2 0.1
v 1 0.2 -0.3
v 1 0.2 -1
v 1 0.3 0.8
v 1 0.3 0.1
v 1 0.3 -0.3
v 1 0.3 -1
v -0.8 0.2 0.8
v -0.8 0.2 0.1
v -0.8 0.2 -0.3
v -0.8 0.2 -1
v -0.8 0.3 0.8
v -0.8 0.3 0.1
v -0.8 0.3 -0.3
v -0.8 0.3 -1
v 0.3 0.2 0.8
v 0.3 0.2 0.7
v 0.3 0.2 -0.9
v 0.3 0.2 -1
v 0.3 0.3 0.8
v 0.3 0.3 -1
v 0.3 0.9 0.8
v 0.3 0.9 0.7
v 0.3 0.9 -0.9
v 0.3 0.9 -1
v 0.5 0.2 0.7
v 0.5 0.2 0.6
v 0.5 0.2 -0.8
v 0.5 0.2 -0.9
v 0.5 0.9 0.7
v 0.5 0.9 0.6
v 0.5 0.9 -0.8
v 0.5 0.9 -0.9
v 0.7 0.2 0.6
v 0.7 0.2 0.5
v 0.7 0.2 -0.7
v 0.7 0.2 -0.8
v 0.7 0.9 0.6
v 0.7 0.9 0.5
v 0.7 0.9 -0.7
v 0.7 0.9 -0.8
v 0.8 0 0.6
v 0.8 0 -0.8
v 0.8 0.1 0.6
v 0.8 0.1 -0.8
v 0.8 0.2 0.5
v 0.8 0.2 0.3
v 0.8 0.2 -0.5
v 0.8 0.2 -0.7
v 0.8 0.9 0.5
v 0.8 0.9 0.3
v 0.8 0.9 -0.5
v 0.8 0.9 -0.7
v 0.9 0.2 0.3
v 0.9 0.2 0.1
v 0.9 0.2 -0.3
v 0.9 0.2 -0.5
v 0.9 0.9 0.3
v 0.9 0.9 0.1
v 0.9 0.9 -0.3
v 0.9 0.9 -0.5
v 1 0.3 0.1
v 1 0.3 -0.3
v 1 0.9 0.1
v 1 0.9 -0.3
v 1.1 0.1 0.9
v 1.1 0.1 -1.1
v 1.1 0.3 0.9
v 1.1 0.3 -1.1
v -0.9 0.1 0.9
v -0.9 0.3 0.9
v 1.1 0.1 0.9
v 1.1 0.3 0.9
v -0.1 0.3 0.8
v -0.1 0.9 0.8
v 0.3 0.3 0.8
v 0.3 0.9 0.8
v -0.3 0.2 0.7
v -0.3 0.9 0.7
v -0.1 0.2 0.7
v -0.1 0.9 0.7
v 0.3 0.2 0.7
v 0.3 0.9 0.7
v 0.5 0.2 0.7
v 0.5 0.9 0.7
v -0.6 0 0.6
v -0.6 0.1 0.6
v -0.5 0.2 0.6
v -0.5 0.9 0.6
v -0.3 0.2 0.6
v -0.3 0.9 0.6
v 0.5 0.2 0.6
v 0.5 0.9 0.6
v 0.7 0.2 0.6
v 0.7 0.9 0.6
v 0.8 0 0.6
v 0.8 0.1 0.6
v -0.6 0.2 0.5
v -0.6 0.9 0.5
v -0.5 0.2 0.5
v -0.5 0.9 0.5
v 0.7 0.2 0.5
v 0.7 0.9 0.5
v 0.8 0.2 0.5
v 0.8 0.9 0.5
v -0.7 0.2 0.3
v -0.7 0.9 0.3
v -0.6 0.2 0.3
v -0.6 0.9 0.3
v 0.8 0.2 0.3
v 0.8 0.9 0.3
v 0.9 0.2 0.3
v 0.9 0.9 0.3
v -0.8 0.2 0.1
v -0.8 0.3 0.1
v -0.8 0.9 0.1
v -0.7 0.2 0.1
v -0.7 0.9 0.1
v 0.9 0.2 0.1
v 0.9 0.9 0.1
v 1 0.2 0.1
v 1 0.3 0.1
v 1 0.9 0.1
v -0.8 0.2 -1
v -0.8 0.3 -1
v -0.1 0.2 -1
v -0.1 0.3 -1
v 0.3 0.2 -1
v 0.3 0.3 -1
v 1 0.2 -1
v 1 0.3 -1
v -0.8 0.2 0.8
v -0.8 0.3 0.8
v -0.1 0.2 0.8
v -0.1 0.3 0.8
v 0.3 0.2 0.8
v 0.3 0.3 0.8
v 1 0.2 0.8
v 1 0.3 0.8
v -0.8 0.2 -0.3
v -0.8 0.3 -0.3
v -0.8 0.9 -0.3
v -0.7 0.2 -0.3
v -0.7 0.9 -0.3
v 0.9 0.2 -0.3
v 0.9 0.9 -0.3
v 1 0.2 -0.3
v 1 0.3 -0.3
v 1 0.9 -0.3
v -0.7 0.2 -0.5
v -0.7 0.9 -0.5
v -0.6 0.2 -0.5
v -0.6 0.9 -0.5
v 0.8 0.2 -0.5
v 0.8 0.9 -0.5
v 0.9 0.2 -0.5
v 0.9 0.9 -0.5
v -0.6 0.2 -0.7
v -0.6 0.9 -0.7
v -0.5 0.2 -0.7
v -0.5 0.9 -0.7
v 0.7 0.2 -0.7
v 0.7 0.9 -0.7
v 0.8 0.2 -0.7
v 0.8 0.9 -0.7
v -0.6 0 -0.8
v -0.6 0.1 -0.8
v -0.5 0.2 -0.8
v -0.5 0.9 -0.8
v -0.3 0.2 -0.8
v -0.3 0.9 -0.8
v 0.5 0.2 -0.8
v 0.5 0.9 -0.8
v 0.7 0.2 -0.8
v 0.7 0.9 -0.8
v 0.8 0 -0.8
v 0.8 0.1 -0.8
v -0.3 0.2 -0.9
v -0.3 0.9 -0.9
v -0.1 0.2 -0.9
v -0.1 0.9 -0.9
v 0.3 0.2 -0.9
v 0.3 0.9 -0.9
v 0.5 0.2 -0.9
v 0.5 0.9 -0.9
v -0.1 0.3 -1
v -0.1 0.9 -1
v 0.3 0.3 -1
v 0.3 0.9 -1
v -0.9 0.1 -1.1
v -0.9 0.3 -1.1
v 1.1 0.1 -1.1
v 1.1 0.3 -1.1
v -0.6 0 0.6
v 0.8 0 0.6
v -0.6 0 -0.8
v 0.8 0 -0.8
v -0.9 0.1 0.9
v 1.1 0.1 0.9
v -0.6 0.1 0.6
v 0.8 0.1 0.6
v -0.6 0.1 -0.8
v 0.8 0.1 -0.8
v -0.9 0.1 -1.1
v 1.1 0.1 -1.1
v -0.8 0.2 0.8
v -0.1 0.2 0.8
v 0.3 0.2 0.8
v 1 0.2 0.8
v -0.3 0.2 0.7
v -0.1 0.2 0.7
v 0.3 0.2 0.7
v 0.5 0.2 0.7
v -0.5 0.2 0.6
v -0.3 0.2 0.6
v 0.5 0.2 0.6
v 0.7 0.2 0.6
v -0.6 0.2 0.5
v -0.5 0.2 0.5
v 0.7 0.2 0.5
v 0.8 0.2 0.5
v -0.7 0.2 0.3
v -0.6 0.2 0.3
v 0.8 0.2 0.3
v 0.9 0.2 0.3
v -0.8 0.2 0.1
v -0.7 0.2 0.1
v 0.9 0.2 0.1
v 1 0.2 0.1
v -0.8 0.2 -0.3
v -0.7 0.2 -0.3
v 0.9 0.2 -0.3
v 1 0.2 -0.3
v -0.7 0.2 -0.5
v -0.6 0.2 -0.5
v 0.8 0.2 -0.5
v 0.9 0.2 -0.5
v -0.6 0.2 -0.7
v -0.5 0.2 -0.7
v 0.7 0.2 -0.7
v 0.8 0.2 -0.7
v -0.5 0.2 -0.8
v -0.3 0.2 -0.8
v 0.5 0.2 -0.8
v 0.7 0.2 -0.8
v -0.3 0.2 -0.9
v -0.1 0.2 -0.9
v 0.3 0.2 -0.9
v 0.5 0.2 -0.9
v -0.8 0.2 -1
v -0.1 0.2 -1
v 0.3 0.2 -1
v 1 0.2 -1
v -0.9 0.3 0.9
v 1.1 0.3 0.9
v -0.8 0.3 0.8
v -0.1 0.3 0.8
v 0.3 0.3 0.8
v 1 0.3 0.8
v -0.8 0.3 0.1
v 1 0.3 0.1
v -0.8 0.3 -0.3
v 1 0.3 -0.3
v -0.8 0.3 -1
v -0.1 0.3 -1
v 0.3 0.3 -1
v 1 0.3 -1
v -0.9 0.3 -1.1
v 1.1 0.3 -1.1
v -0.1 0.9 0.8
v 0.3 0.9 0.8
v -0.3 0.9 0.7
v -0.1 0.9 0.7
v 0.3 0.9 0.7
v 0.5 0.9 0.7
v -0.5 0.9 0.6
v -0.3 0.9 0.6
v 0.5 0.9 0.6
v 0.7 0.9 0.6
v -0.6 0.9 0.5
v -0.5 0.9 0.5
v 0.7 0.9 0.5
v 0.8 0.9 0.5
v -0.7 0.9 0.3
v -0.6 0.9 0.3
v 0.8 0.9 0.3
v 0.9 0.9 0.3
v -0.8 0.9 0.1
v -0.7 0.9 0.1
v 0.9 0.9 0.1
v 1 0.9 0.1
v -0.8 0.9 -0.3
v -0.7 0.9 -0.3
v 0.9 0.9 -0.3
v 1 0.9 -0.3
v -0.7 0.9 -0.5
v -0.6 0.9 -0.5
v 0.8 0.9 -0.5
v 0.9 0.9 -0.5
v -0.6 0.9 -0.7
v -0.5 0.9 -0.7
v 0.7 0.9 -0.7
v 0.8 0.9 -0.7
v -0.5 0.9 -0.8
v -0.3 0.9 -0.8
v 0.5 0.9 -0.8
v 0.7 0.9 -0.8
v -0.3 0.9 -0.9
v -0.1 0.9 -0.9
v 0.3 0.9 -0.9
v 0.5 0.9 -0.9
v -0.1 0.9 -1
v 0.3 0.9 -1

# faces
f 3/2/1 2/2/1 1/2/1
f 4/2/1 2/2/1 3/2/1
f 7/1/1 6/1/1 5/1/1
f 8/1/1 6/1/1 7/1/1
f 13/1/1 10/1/1 9/1/1
f 14/1/1 10/1/1 13/1/1
f 15/1/1 12/1/1 11/1/1
f 16/1/1 12/1/1 15/1/1
f 19/2/1 18/2/1 17/2/1
f 20/2/1 18/2/1 19/2/1
f 25/1/1 22/1/1 21/1/1
f 26/1/1 22/1/1 25/1/1
f 27/1/1 24/1/1 23/1/1
f 28/1/1 24/1/1 27/1/1
f 33/1/1 30/1/1 29/1/1
f 34/1/1 30/1/1 33/1/1
f 35/1/1 32/1/1 31/1/1
f 36/1/1 32/1/1 35/1/1
f 41/1/1 38/1/1 37/1/1
f 42/1/1 38/1/1 41/1/1
f 43/1/1 40/1/1 39/1/1
f 44/1/1 40/1/1 43/1/1
f 49/1/1 46/1/1 45/1/1
f 50/1/1 48/1/1 47/1/1
f 51/1/1 46/1/1 49/1/1
f 52/1/1 46/1/1 51/1/1
f 53/1/1 50/1/1 47/1/1
f 54/1/1 50/1/1 53/1/1
f 59/2/1 56/2/1 55/2/1
f 60/2/1 56/2/1 59/2/1
f 61/2/1 58/2/1 57/2/1
f 62/2/1 58/2/1 61/2/1
f 63/2/2 64/2/2 67/2/2
f 67/2/2 64/2/2 68/2/2
f 65/2/2 66/2/2 69/2/2
f 69/2/2 66/2/2 70/2/2
f 71/1/2 72/1/2 75/1/2
f 73/1/2 74/1/2 76/1/2
f 75/1/2 72/1/2 77/1/2
f 77/1/2 72/1/2 78/1/2
f 73/1/2 76/1/2 79/1/2
f 79/1/2 76/1/2 80/1/2
f 81/1/2 82/1/2 85/1/2
f 85/1/2 82/1/2 86/1/2
f 83/1/2 84/1/2 87/1/2
f 87/1/2 84/1/2 88/1/2
f 89/1/2 90/1/2 93/1/2
f 93/1/2 90/1/2 94/1/2
f 91/1/2 92/1/2 95/1/2
f 95/1/2 92/1/2 96/1/2
f 97/2/2 98/2/2 99/2/2
f 99/2/2 98/2/2 100/2/2
f 101/1/2 102/1/2 105/1/2
f 105/1/2 102/1/2 106/1/2
f 103/1/2 104/1/2 107/1/2
f 107/1/2 104/1/2 108/1/2
f 109/1/2 110/1/2 113/1/2
f 113/1/2 110/1/2 114/1/2
f 111/1/2 112/1/2 115/1/2
f 115/1/2 112/1/2 116/1/2
f 117/1/2 118/1/2 119/1/2
f 119/1/2 118/1/2 120/1/2
f 121/2/2 122/2/2 123/2/2
f 123/2/2 122/2/2 124/2/2
f 127/2/3 126/2/3 125/2/3
f 128/2/3 126/2/3 127/2/3
f 131/1/3 130/1/3 129/1/3
f 132/1/3 130/1/3 131/1/3
f 135/1/3 134/1/3 133/1/3
f 136/1/3 134/1/3 135/1/3
f 139/1/3 138/1/3 137/1/3
f 140/1/3 138/1/3 139/1/3
f 145/1/3 144/1/3 143/1/3
f 146/1/3 144/1/3 145/1/3
f 149/1/3 148/1/3 147/1/3
f 150/1/3 148/1/3 149/1/3
f 151/2/3 142/2/3 141/2/3
f 152/2/3 142/2/3 151/2/3
f 155/1/3 154/1/3 153/1/3
f 156/1/3 154/1/3 155/1/3
f 159/1/3 158/1/3 157/1/3
f 160/1/3 158/1/3 159/1/3
f 163/1/3 162/1/3 161/1/3
f 164/1/3 162/1/3 163/1/3
f 167/1/3 166/1/3 165/1/3
f 168/1/3 166/1/3 167/1/3
f 172/1/3 170/1/3 169/1/3
f 172/1/3 171/1/3 170/1/3
f 173/1/3 171/1/3 172/1/3
f 176/1/3 175/1/3 174/1/3
f 177/1/3 175/1/3 176/1/3
f 178/1/3 175/1/3 177/1/3
f 181/2/3 180/2/3 179/2/3
f 182/2/3 180/2/3 181/2/3
f 185/2/3 184/2/3 183/2/3
f 186/2/3 184/2/3 185/2/3
f 187/2/4 188/2/4 189/2/4
f 189/2/4 188/2/4 190/2/4
f 191/2/4 192/2/4 193/2/4
f 193/2/4 192/2/4 194/2/4
f 195/1/4 196/1/4 198/1/4
f 196/1/4 197/1/4 198/1/4
f 198/1/4 197/1/4 199/1/4
f 200/1/4 201/1/4 202/1/4
f 202/1/4 201/1/4 203/1/4
f 203/1/4 201/1/4 204/1/4
f 205/1/4 206/1/4 207/1/4
f 207/1/4 206/1/4 208/1/4
f 209/1/4 210/1/4 211/1/4
f 211/1/4 210/1/4 212/1/4
f 213/1/4 214/1/4 215/1/4
f 215/1/4 214/1/4 216/1/4
f 217/1/4 218/1/4 219/1/4
f 219/1/4 218/1/4 220/1/4
f 223/1/4 224/1/4 225/1/4
f 225/1/4 224/1/4 226/1/4
f 227/1/4 228/1/4 229/1/4
f 229/1/4 228/1/4 230/1/4
f 221/2/4 222/2/4 231/2/4
f 231/2/4 222/2/4 232/2/4
f 233/1/4 234/1/4 235/1/4
f 235/1/4 234/1/4 236/1/4
f 237/1/4 238/1/4 239/1/4
f 239/1/4 238/1/4 240/1/4
f 241/1/4 242/1/4 243/1/4
f 243/1/4 242/1/4 244/1/4
f 245/2/4 246/2/4 247/2/4
f 247/2/4 246/2/4 248/2/4
f 251/2/5 250/2/5 249/2/5
f 252/2/5 250/2/5 251/2/5
f 255/2/5 254/2/5 253/2/5
f 256/2/5 254/2/5 255/2/5
f 257/2/5 255/2/5 253/2/5
f 258/2/5 254/2/5 256/2/5
f 259/2/5 257/2/5 253/2/5
f 259/2/5 258/2/5 257/2/5
f 260/2/5 254/2/5 258/2/5
f 260/2/5 258/2/5 259/2/5
f 261/2/6 262/2/6 265/2/6
f 265/2/6 262/2/6 266/2/6
f 263/2/6 264/2/6 267/2/6
f 267/2/6 264/2/6 268/2/6
f 261/2/6 265/2/6 269/2/6
f 269/2/6 265/2/6 270/2/6
f 268/2/6 264/2/6 271/2/6
f 271/2/6 264/2/6 272/2/6
f 261/2/6 269/2/6 273/2/6
f 273/2/6 269/2/6 274/2/6
f 272/2/6 264/2/6 275/2/6
f 275/2/6 264/2/6 276/2/6
f 261/2/6 273/2/6 277/2/6
f 277/2/6 273/2/6 278/2/6
f 276/2/6 264/2/6 279/2/6
f 279/2/6 264/2/6 280/2/6
f 261/2/6 277/2/6 281/2/6
f 281/2/6 277/2/6 282/2/6
f 280/2/6 264/2/6 283/2/6
f 283/2/6 264/2/6 284/2/6
f 285/2/6 286/2/6 289/2/6
f 287/2/6 288/2/6 292/2/6
f 289/2/6 290/2/6 293/2/6
f 291/2/6 292/2/6 296/2/6
f 293/2/6 294/2/6 297/2/6
f 295/2/6 296/2/6 300/2/6
f 297/2/6 298/2/6 301/2/6
f 299/2/6 300/2/6 304/2/6
f 301/2/6 302/2/6 305/2/6
f 285/2/6 289/2/6 305/2/6
f 289/2/6 293/2/6 305/2/6
f 293/2/6 297/2/6 305/2/6
f 297/2/6 301/2/6 305/2/6
f 305/2/6 302/2/6 306/2/6
f 303/2/6 304/2/6 307/2/6
f 304/2/6 300/2/6 308/2/6
f 307/2/6 304/2/6 308/2/6
f 292/2/6 288/2/6 308/2/6
f 296/2/6 292/2/6 308/2/6
f 300/2/6 296/2/6 308/2/6
f 309/2/6 310/2/6 311/2/6
f 311/2/6 310/2/6 312/2/6
f 312/2/6 310/2/6 313/2/6
f 313/2/6 310/2/6 314/2/6
f 309/2/6 311/2/6 315/2/6
f 314/2/6 310/2/6 316/2/6
f 309/2/6 315/2/6 317/2/6
f 316/2/6 310/2/6 318/2/6
f 309/2/6 317/2/6 319/2/6
f 318/2/6 310/2/6 322/2/6
f 320/2/6 321/2/6 323/2/6
f 321/2/6 322/2/6 323/2/6
f 309/2/6 319/2/6 323/2/6
f 319/2/6 320/2/6 323/2/6
f 322/2/6 310/2/6 324/2/6
f 323/2/6 322/2/6 324/2/6
f 325/1/6 326/1/6 328/1/6
f 328/1/6 326/1/6 329/1/6
f 327/1/6 328/1/6 332/1/6
f 329/1/6 330/1/6 332/1/6
f 328/1/6 329/1/6 332/1/6
f 332/1/6 330/1/6 333/1/6
f 331/1/6 332/1/6 336/1/6
f 333/1/6 334/1/6 336/1/6
f 332/1/6 333/1/6 336/1/6
f 336/1/6 334/1/6 337/1/6
f 335/1/6 336/1/6 340/1/6
f 337/1/6 338/1/6 340/1/6
f 336/1/6 337/1/6 340/1/6
f 340/1/6 338/1/6 341/1/6
f 339/1/6 340/1/6 344/1/6
f 341/1/6 342/1/6 344/1/6
f 340/1/6 341/1/6 344/1/6
f 344/1/6 342/1/6 345/1/6
f 343/1/6 344/1/6 347/1/6
f 345/1/6 346/1/6 347/1/6
f 344/1/6 345/1/6 347/1/6
f 347/1/6 346/1/6 348/1/6
f 348/1/6 346/1/6 349/1/6
f 349/1/6 346/1/6 350/1/6
f 348/1/6 349/1/6 351/1/6
f 351/1/6 349/1/6 352/1/6
f 352/1/6 349/1/6 353/1/6
f 353/1/6 349/1/6 354/1/6
f 352/1/6 353/1/6 355/1/6
f 355/1/6 353/1/6 356/1/6
f 356/1/6 353/1/6 357/1/6
f 357/1/6 353/1/6 358/1/6
f 356/1/6 357/1/6 359/1/6
f 359/1/6 357/1/6 360/1/6
f 360/1/6 357/1/6 361/1/6
f 361/1/6 357/1/6 362/1/6
f 360/1/6 361/1/6 363/1/6
f 363/1/6 361/1/6 364/1/6
f 364/1/6 361/1/6 365/1/6
f 365/1/6 361/1/6 366/1/6
f 364/1/6 365/1/6 367/1/6
f 367/1/6 365/1/6 368/1/6
