# MagicaVoxel @ Ephtracy

# group
o 

# material
mtllib CheeseAndCucumber.mtl
usemtl palette

# normals
vn -1 0 0
vn 1 0 0
vn 0 0 1
vn 0 0 -1
vn 0 -1 0
vn 0 1 0

# texcoords
vt 0.0449219 0.5
vt 0.439453 0.5
vt 0.880859 0.5
vt 0.908203 0.5
vt 0.958984 0.5

# verts
v -0.9 0.1 0.9
v -0.9 0.1 -1.1
v -0.9 0.3 0.9
v -0.9 0.3 -1.1
v -0.6 0 0.6
v -0.6 0 -0.8
v -0.6 0.1 0.6
v -0.6 0.1 -0.8
v -0.6 0.2 0.7
v -0.6 0.2 -0.2
v -0.6 0.3 0.7
v -0.6 0.3 -0.2
v -0.4 0.2 0.5
v -0.4 0.2 0.3
v -0.4 0.2 0.1
v -0.4 0.2 0
v -0.4 0.3 0.5
v -0.4 0.3 0.4
v -0.4 0.3 0.3
v -0.4 0.3 0.2
v -0.4 0.3 0.1
v -0.4 0.3 0
v -0.4 0.4 0.4
v -0.4 0.4 0.2
v -0.3 0.2 0.6
v -0.3 0.2 0.5
v -0.3 0.2 0
v -0.3 0.2 -0.1
v -0.3 0.3 0.6
v -0.3 0.3 0.5
v -0.3 0.3 0.4
v -0.3 0.3 0.2
v -0.3 0.3 0.1
v -0.3 0.3 0
v -0.3 0.3 -0.1
v -0.3 0.4 0.5
v -0.3 0.4 0.4
v -0.3 0.4 0.2
v -0.3 0.4 0.1
v -0.2 0.3 0.6
v -0.2 0.3 0.5
v -0.2 0.3 0.1
v -0.2 0.3 0
v -0.2 0.4 0.6
v -0.2 0.4 0.5
v -0.2 0.4 0.1
v -0.2 0.4 0
v 0 0.2 0
v 0 0.2 -0.1
v 0 0.2 -0.2
v 0 0.2 -0.9
v 0 0.3 0
v 0 0.3 -0.1
v 0 0.3 -0.2
v 0 0.3 -0.4
v 0 0.3 -0.6
v 0 0.3 -0.9
v 0 0.4 -0.4
v 0 0.4 -0.6
v 0.1 0.3 -0.3
v 0.1 0.3 -0.4
v 0.1 0.3 -0.6
v 0.1 0.3 -0.7
v 0.1 0.4 -0.3
v 0.1 0.4 -0.4
v 0.1 0.4 -0.6
v 0.1 0.4 -0.7
v 0.2 0.2 0.6
v 0.2 0.2 0.5
v 0.2 0.2 0.1
v 0.2 0.2 0
v 0.2 0.2 -0.7
v 0.2 0.2 -0.8
v 0.2 0.3 0.6
v 0.2 0.3 0.5
v 0.2 0.3 0.1
v 0.2 0.3 0
v 0.2 0.3 -0.2
v 0.2 0.3 -0.3
v 0.2 0.3 -0.7
v 0.2 0.3 -0.8
v 0.2 0.4 -0.2
v 0.2 0.4 -0.3
v 0.2 0.4 -0.7
v 0.2 0.4 -0.8
v 0.3 0.2 -0.1
v 0.3 0.2 -0.2
v 0.3 0.3 -0.1
v 0.3 0.3 -0.2
v 0.6 0.2 -0.1
v 0.6 0.2 -0.2
v 0.6 0.3 -0.1
v 0.6 0.3 -0.2
v 0.7 0.2 -0.2
v 0.7 0.2 -0.3
v 0.7 0.2 -0.7
v 0.7 0.2 -0.8
v 0.7 0.3 -0.2
v 0.7 0.3 -0.3
v 0.7 0.3 -0.7
v 0.7 0.3 -0.8
v 1 0.2 0.8
v 1 0.2 -1
v 1 0.3 0.8
v 1 0.3 -1
v -0.8 0.2 0.8
v -0.8 0.2 -1
v -0.8 0.3 0.8
v -0.8 0.3 -1
v -0.5 0.2 0.6
v -0.5 0.2 0.3
v -0.5 0.2 0.1
v -0.5 0.2 -0.1
v -0.5 0.3 0.6
v -0.5 0.3 0.3
v -0.5 0.3 0.1
v -0.5 0.3 -0.1
v -0.1 0.2 0
v -0.1 0.2 -0.1
v -0.1 0.3 0
v -0.1 0.3 -0.1
v 0 0.3 0.6
v 0 0.3 0.5
v 0 0.3 0.1
v 0 0.3 0
v 0 0.4 0.6
v 0 0.4 0.5
v 0 0.4 0.1
v 0 0.4 0
v 0.1 0.2 0.6
v 0.1 0.2 0.5
v 0.1 0.2 0.1
v 0.1 0.2 0
v 0.1 0.2 -0.1
v 0.1 0.2 -0.2
v 0.1 0.2 -0.7
v 0.1 0.2 -0.8
v 0.1 0.3 0.6
v 0.1 0.3 0.5
v 0.1 0.3 0.4
v 0.1 0.3 0.2
v 0.1 0.3 0.1
v 0.1 0.3 0
v 0.1 0.3 -0.1
v 0.1 0.3 -0.2
v 0.1 0.3 -0.7
v 0.1 0.3 -0.8
v 0.1 0.4 0.5
v 0.1 0.4 0.4
v 0.1 0.4 0.2
v 0.1 0.4 0.1
v 0.2 0.3 0.4
v 0.2 0.3 0.2
v 0.2 0.4 0.4
v 0.2 0.4 0.2
v 0.3 0.2 0.7
v 0.3 0.2 0
v 0.3 0.3 0.7
v 0.3 0.3 0
v 0.4 0.3 -0.2
v 0.4 0.3 -0.3
v 0.4 0.3 -0.7
v 0.4 0.3 -0.8
v 0.4 0.4 -0.2
v 0.4 0.4 -0.3
v 0.4 0.4 -0.7
v 0.4 0.4 -0.8
v 0.5 0.2 -0.1
v 0.5 0.2 -0.3
v 0.5 0.2 -0.7
v 0.5 0.2 -0.8
v 0.5 0.3 -0.1
v 0.5 0.3 -0.3
v 0.5 0.3 -0.4
v 0.5 0.3 -0.6
v 0.5 0.3 -0.7
v 0.5 0.3 -0.8
v 0.5 0.4 -0.3
v 0.5 0.4 -0.4
v 0.5 0.4 -0.6
v 0.5 0.4 -0.7
v 0.6 0.3 -0.4
v 0.6 0.3 -0.6
v 0.6 0.4 -0.4
v 0.6 0.4 -0.6
v 0.8 0 0.6
v 0.8 0 -0.8
v 0.8 0.1 0.6
v 0.8 0.1 -0.8
v 0.8 0.2 0
v 0.8 0.2 -0.9
v 0.8 0.3 0
v 0.8 0.3 -0.9
v 1.1 0.1 0.9
v 1.1 0.1 -1.1
v 1.1 0.3 0.9
v 1.1 0.3 -1.1
v -0.9 0.1 0.9
v -0.9 0.3 0.9
v 1.1 0.1 0.9
v 1.1 0.3 0.9
v -0.6 0.2 0.7
v -0.6 0.3 0.7
v 0.3 0.2 0.7
v 0.3 0.3 0.7
v -0.6 0 0.6
v -0.6 0.1 0.6
v -0.2 0.3 0.6
v -0.2 0.4 0.6
v 0 0.3 0.6
v 0 0.4 0.6
v 0.8 0 0.6
v 0.8 0.1 0.6
v -0.4 0.2 0.5
v -0.4 0.3 0.5
v -0.3 0.2 0.5
v -0.3 0.3 0.5
v -0.3 0.4 0.5
v -0.2 0.3 0.5
v -0.2 0.4 0.5
v 0 0.3 0.5
v 0 0.4 0.5
v 0.1 0.2 0.5
v 0.1 0.3 0.5
v 0.1 0.4 0.5
v 0.2 0.2 0.5
v 0.2 0.3 0.5
v -0.4 0.3 0.4
v -0.4 0.4 0.4
v -0.3 0.3 0.4
v -0.3 0.4 0.4
v 0.1 0.3 0.4
v 0.1 0.4 0.4
v 0.2 0.3 0.4
v 0.2 0.4 0.4
v -0.5 0.2 0.3
v -0.5 0.3 0.3
v -0.4 0.2 0.3
v -0.4 0.3 0.3
v 0.1 0.2 0
v 0.1 0.3 0
v 0.2 0.2 0
v 0.2 0.3 0
v 0.3 0.2 0
v 0.3 0.3 0
v 0.8 0.2 0
v 0.8 0.3 0
v -0.5 0.2 -0.1
v -0.5 0.3 -0.1
v -0.3 0.2 -0.1
v -0.3 0.3 -0.1
v -0.1 0.2 -0.1
v -0.1 0.3 -0.1
v 0 0.2 -0.1
v 0 0.3 -0.1
v 0.1 0.2 -0.2
v 0.1 0.3 -0.2
v 0.2 0.3 -0.2
v 0.2 0.4 -0.2
v 0.3 0.2 -0.2
v 0.3 0.3 -0.2
v 0.4 0.3 -0.2
v 0.4 0.4 -0.2
v 0.1 0.3 -0.3
v 0.1 0.4 -0.3
v 0.2 0.3 -0.3
v 0.2 0.4 -0.3
v 0.4 0.3 -0.3
v 0.4 0.4 -0.3
v 0.5 0.2 -0.3
v 0.5 0.3 -0.3
v 0.5 0.4 -0.3
v 0.7 0.2 -0.3
v 0.7 0.3 -0.3
v 0 0.3 -0.4
v 0 0.4 -0.4
v 0.1 0.3 -0.4
v 0.1 0.4 -0.4
v 0.5 0.3 -0.4
v 0.5 0.4 -0.4
v 0.6 0.3 -0.4
v 0.6 0.4 -0.4
v 0.1 0.2 -0.8
v 0.1 0.3 -0.8
v 0.2 0.2 -0.8
v 0.2 0.3 -0.8
v 0.5 0.2 -0.8
v 0.5 0.3 -0.8
v 0.7 0.2 -0.8
v 0.7 0.3 -0.8
v -0.8 0.2 -1
v -0.8 0.3 -1
v 1 0.2 -1
v 1 0.3 -1
v -0.8 0.2 0.8
v -0.8 0.3 0.8
v 1 0.2 0.8
v 1 0.3 0.8
v -0.5 0.2 0.6
v -0.5 0.3 0.6
v -0.3 0.2 0.6
v -0.3 0.3 0.6
v 0.1 0.2 0.6
v 0.1 0.3 0.6
v 0.2 0.2 0.6
v 0.2 0.3 0.6
v -0.4 0.3 0.2
v -0.4 0.4 0.2
v -0.3 0.3 0.2
v -0.3 0.4 0.2
v 0.1 0.3 0.2
v 0.1 0.4 0.2
v 0.2 0.3 0.2
v 0.2 0.4 0.2
v -0.5 0.2 0.1
v -0.5 0.3 0.1
v -0.4 0.2 0.1
v -0.4 0.3 0.1
v -0.3 0.3 0.1
v -0.3 0.4 0.1
v -0.2 0.3 0.1
v -0.2 0.4 0.1
v 0 0.3 0.1
v 0 0.4 0.1
v 0.1 0.2 0.1
v 0.1 0.3 0.1
v 0.1 0.4 0.1
v 0.2 0.2 0.1
v 0.2 0.3 0.1
v -0.4 0.2 0
v -0.4 0.3 0
v -0.3 0.2 0
v -0.3 0.3 0
v -0.2 0.3 0
v -0.2 0.4 0
v -0.1 0.2 0
v -0.1 0.3 0
v 0 0.2 0
v 0 0.3 0
v 0 0.4 0
v 0.1 0.2 -0.1
v 0.1 0.3 -0.1
v 0.3 0.2 -0.1
v 0.3 0.3 -0.1
v 0.5 0.2 -0.1
v 0.5 0.3 -0.1
v 0.6 0.2 -0.1
v 0.6 0.3 -0.1
v -0.6 0.2 -0.2
v -0.6 0.3 -0.2
v 0 0.2 -0.2
v 0 0.3 -0.2
v 0.6 0.2 -0.2
v 0.6 0.3 -0.2
v 0.7 0.2 -0.2
v 0.7 0.3 -0.2
v 0 0.3 -0.6
v 0 0.4 -0.6
v 0.1 0.3 -0.6
v 0.1 0.4 -0.6
v 0.5 0.3 -0.6
v 0.5 0.4 -0.6
v 0.6 0.3 -0.6
v 0.6 0.4 -0.6
v 0.1 0.2 -0.7
v 0.1 0.3 -0.7
v 0.1 0.4 -0.7
v 0.2 0.2 -0.7
v 0.2 0.3 -0.7
v 0.2 0.4 -0.7
v 0.4 0.3 -0.7
v 0.4 0.4 -0.7
v 0.5 0.2 -0.7
v 0.5 0.3 -0.7
v 0.5 0.4 -0.7
v 0.7 0.2 -0.7
v 0.7 0.3 -0.7
v -0.6 0 -0.8
v -0.6 0.1 -0.8
v 0.2 0.3 -0.8
v 0.2 0.4 -0.8
v 0.4 0.3 -0.8
v 0.4 0.4 -0.8
v 0.8 0 -0.8
v 0.8 0.1 -0.8
v 0 0.2 -0.9
v 0 0.3 -0.9
v 0.8 0.2 -0.9
v 0.8 0.3 -0.9
v -0.9 0.1 -1.1
v -0.9 0.3 -1.1
v 1.1 0.1 -1.1
v 1.1 0.3 -1.1
v -0.6 0 0.6
v 0.8 0 0.6
v -0.6 0 -0.8
v 0.8 0 -0.8
v -0.9 0.1 0.9
v 1.1 0.1 0.9
v -0.6 0.1 0.6
v 0.8 0.1 0.6
v -0.6 0.1 -0.8
v 0.8 0.1 -0.8
v -0.9 0.1 -1.1
v 1.1 0.1 -1.1
v -0.8 0.2 0.8
v 1 0.2 0.8
v -0.6 0.2 0.7
v 0.3 0.2 0.7
v -0.5 0.2 0.6
v -0.3 0.2 0.6
v 0.1 0.2 0.6
v 0.2 0.2 0.6
v -0.4 0.2 0.5
v -0.3 0.2 0.5
v 0.1 0.2 0.5
v 0.2 0.2 0.5
v -0.5 0.2 0.3
v -0.4 0.2 0.3
v -0.5 0.2 0.1
v -0.4 0.2 0.1
v 0.1 0.2 0.1
v 0.2 0.2 0.1
v -0.4 0.2 0
v -0.3 0.2 0
v -0.1 0.2 0
v 0 0.2 0
v 0.1 0.2 0
v 0.2 0.2 0
v 0.3 0.2 0
v 0.8 0.2 0
v -0.5 0.2 -0.1
v -0.3 0.2 -0.1
v -0.1 0.2 -0.1
v 0 0.2 -0.1
v 0.1 0.2 -0.1
v 0.3 0.2 -0.1
v 0.5 0.2 -0.1
v 0.6 0.2 -0.1
v -0.6 0.2 -0.2
v 0 0.2 -0.2
v 0.1 0.2 -0.2
v 0.3 0.2 -0.2
v 0.6 0.2 -0.2
v 0.7 0.2 -0.2
v 0.5 0.2 -0.3
v 0.7 0.2 -0.3
v 0.1 0.2 -0.7
v 0.2 0.2 -0.7
v 0.5 0.2 -0.7
v 0.7 0.2 -0.7
v 0.1 0.2 -0.8
v 0.2 0.2 -0.8
v 0.5 0.2 -0.8
v 0.7 0.2 -0.8
v 0 0.2 -0.9
v 0.8 0.2 -0.9
v -0.8 0.2 -1
v 1 0.2 -1
v -0.9 0.3 0.9
v 1.1 0.3 0.9
v -0.8 0.3 0.8
v 1 0.3 0.8
v -0.6 0.3 0.7
v 0.3 0.3 0.7
v -0.5 0.3 0.6
v -0.3 0.3 0.6
v -0.2 0.3 0.6
v 0 0.3 0.6
v 0.1 0.3 0.6
v 0.2 0.3 0.6
v -0.4 0.3 0.5
v -0.3 0.3 0.5
v -0.2 0.3 0.5
v 0 0.3 0.5
v 0.1 0.3 0.5
v 0.2 0.3 0.5
v -0.4 0.3 0.4
v -0.3 0.3 0.4
v 0.1 0.3 0.4
v 0.2 0.3 0.4
v -0.5 0.3 0.3
v -0.4 0.3 0.3
v -0.4 0.3 0.2
v -0.3 0.3 0.2
v 0.1 0.3 0.2
v 0.2 0.3 0.2
v -0.5 0.3 0.1
v -0.4 0.3 0.1
v -0.3 0.3 0.1
v -0.2 0.3 0.1
v 0 0.3 0.1
v 0.1 0.3 0.1
v 0.2 0.3 0.1
v -0.4 0.3 0
v -0.3 0.3 0
v -0.2 0.3 0
v -0.1 0.3 0
v 0 0.3 0
v 0.1 0.3 0
v 0.2 0.3 0
v 0.3 0.3 0
v 0.8 0.3 0
v -0.5 0.3 -0.1
v -0.3 0.3 -0.1
v -0.1 0.3 -0.1
v 0 0.3 -0.1
v 0.1 0.3 -0.1
v 0.3 0.3 -0.1
v 0.5 0.3 -0.1
v 0.6 0.3 -0.1
v -0.6 0.3 -0.2
v 0 0.3 -0.2
v 0.1 0.3 -0.2
v 0.2 0.3 -0.2
v 0.3 0.3 -0.2
v 0.4 0.3 -0.2
v 0.6 0.3 -0.2
v 0.7 0.3 -0.2
v 0.1 0.3 -0.3
v 0.2 0.3 -0.3
v 0.4 0.3 -0.3
v 0.5 0.3 -0.3
v 0.7 0.3 -0.3
v 0 0.3 -0.4
v 0.1 0.3 -0.4
v 0.5 0.3 -0.4
v 0.6 0.3 -0.4
v 0 0.3 -0.6
v 0.1 0.3 -0.6
v 0.5 0.3 -0.6
v 0.6 0.3 -0.6
v 0.1 0.3 -0.7
v 0.4 0.3 -0.7
v 0.5 0.3 -0.7
v 0.7 0.3 -0.7
v 0.1 0.3 -0.8
v 0.2 0.3 -0.8
v 0.4 0.3 -0.8
v 0.5 0.3 -0.8
v 0.7 0.3 -0.8
v 0 0.3 -0.9
v 0.8 0.3 -0.9
v -0.8 0.3 -1
v 1 0.3 -1
v -0.9 0.3 -1.1
v 1.1 0.3 -1.1
v -0.2 0.4 0.6
v 0 0.4 0.6
v -0.3 0.4 0.5
v -0.2 0.4 0.5
v 0 0.4 0.5
v 0.1 0.4 0.5
v -0.4 0.4 0.4
v -0.3 0.4 0.4
v -0.2 0.4 0.4
v -0.1 0.4 0.4
v 0 0.4 0.4
v 0.1 0.4 0.4
v 0.2 0.4 0.4
v -0.2 0.4 0.3
v -0.1 0.4 0.3
v 0 0.4 0.3
v -0.4 0.4 0.2
v -0.3 0.4 0.2
v -0.2 0.4 0.2
v -0.1 0.4 0.2
v 0 0.4 0.2
v 0.1 0.4 0.2
v 0.2 0.4 0.2
v -0.3 0.4 0.1
v -0.2 0.4 0.1
v 0 0.4 0.1
v 0.1 0.4 0.1
v -0.2 0.4 0
v 0 0.4 0
v 0.2 0.4 -0.2
v 0.4 0.4 -0.2
v 0.1 0.4 -0.3
v 0.2 0.4 -0.3
v 0.4 0.4 -0.3
v 0.5 0.4 -0.3
v 0 0.4 -0.4
v 0.1 0.4 -0.4
v 0.2 0.4 -0.4
v 0.3 0.4 -0.4
v 0.4 0.4 -0.4
v 0.5 0.4 -0.4
v 0.6 0.4 -0.4
v 0.2 0.4 -0.5
v 0.3 0.4 -0.5
v 0.4 0.4 -0.5
v 0 0.4 -0.6
v 0.1 0.4 -0.6
v 0.2 0.4 -0.6
v 0.3 0.4 -0.6
v 0.4 0.4 -0.6
v 0.5 0.4 -0.6
v 0.6 0.4 -0.6
v 0.1 0.4 -0.7
v 0.2 0.4 -0.7
v 0.4 0.4 -0.7
v 0.5 0.4 -0.7
v 0.2 0.4 -0.8
v 0.4 0.4 -0.8

# faces
f 3/5/1 2/5/1 1/5/1
f 4/5/1 2/5/1 3/5/1
f 7/5/1 6/5/1 5/5/1
f 8/5/1 6/5/1 7/5/1
f 11/1/1 10/1/1 9/1/1
f 12/1/1 10/1/1 11/1/1
f 17/1/1 14/1/1 13/1/1
f 18/1/1 14/1/1 17/1/1
f 19/1/1 14/1/1 18/1/1
f 21/1/1 16/1/1 15/1/1
f 22/1/1 16/1/1 21/1/1
f 23/4/1 20/4/1 19/4/1
f 23/4/1 19/4/1 18/4/1
f 24/4/1 20/4/1 23/4/1
f 29/1/1 26/1/1 25/1/1
f 30/1/1 26/1/1 29/1/1
f 34/1/1 28/1/1 27/1/1
f 35/1/1 28/1/1 34/1/1
f 36/4/1 31/4/1 30/4/1
f 37/4/1 31/4/1 36/4/1
f 38/4/1 33/4/1 32/4/1
f 39/4/1 33/4/1 38/4/1
f 44/4/1 41/4/1 40/4/1
f 45/4/1 41/4/1 44/4/1
f 46/4/1 43/4/1 42/4/1
f 47/4/1 43/4/1 46/4/1
f 52/1/1 49/1/1 48/1/1
f 53/1/1 49/1/1 52/1/1
f 54/1/1 51/1/1 50/1/1
f 55/1/1 51/1/1 54/1/1
f 56/1/1 51/1/1 55/1/1
f 57/1/1 51/1/1 56/1/1
f 58/4/1 56/4/1 55/4/1
f 59/4/1 56/4/1 58/4/1
f 64/4/1 61/4/1 60/4/1
f 65/4/1 61/4/1 64/4/1
f 66/4/1 63/4/1 62/4/1
f 67/4/1 63/4/1 66/4/1
f 74/1/1 69/1/1 68/1/1
f 75/1/1 69/1/1 74/1/1
f 76/1/1 71/1/1 70/1/1
f 77/1/1 71/1/1 76/1/1
f 80/1/1 73/1/1 72/1/1
f 81/1/1 73/1/1 80/1/1
f 82/4/1 79/4/1 78/4/1
f 83/4/1 79/4/1 82/4/1
f 84/4/1 81/4/1 80/4/1
f 85/4/1 81/4/1 84/4/1
f 88/1/1 87/1/1 86/1/1
f 89/1/1 87/1/1 88/1/1
f 92/1/1 91/1/1 90/1/1
f 93/1/1 91/1/1 92/1/1
f 98/1/1 95/1/1 94/1/1
f 99/1/1 95/1/1 98/1/1
f 100/1/1 97/1/1 96/1/1
f 101/1/1 97/1/1 100/1/1
f 104/5/1 103/5/1 102/5/1
f 105/5/1 103/5/1 104/5/1
f 106/5/2 107/5/2 108/5/2
f 108/5/2 107/5/2 109/5/2
f 110/1/2 111/1/2 114/1/2
f 114/1/2 111/1/2 115/1/2
f 112/1/2 113/1/2 116/1/2
f 116/1/2 113/1/2 117/1/2
f 118/1/2 119/1/2 120/1/2
f 120/1/2 119/1/2 121/1/2
f 122/4/2 123/4/2 126/4/2
f 126/4/2 123/4/2 127/4/2
f 124/4/2 125/4/2 128/4/2
f 128/4/2 125/4/2 129/4/2
f 130/1/2 131/1/2 138/1/2
f 138/1/2 131/1/2 139/1/2
f 132/1/2 133/1/2 142/1/2
f 142/1/2 133/1/2 143/1/2
f 134/1/2 135/1/2 144/1/2
f 144/1/2 135/1/2 145/1/2
f 136/1/2 137/1/2 146/1/2
f 146/1/2 137/1/2 147/1/2
f 139/4/2 140/4/2 148/4/2
f 148/4/2 140/4/2 149/4/2
f 141/4/2 142/4/2 150/4/2
f 150/4/2 142/4/2 151/4/2
f 152/4/2 153/4/2 154/4/2
f 154/4/2 153/4/2 155/4/2
f 156/1/2 157/1/2 158/1/2
f 158/1/2 157/1/2 159/1/2
f 160/4/2 161/4/2 164/4/2
f 164/4/2 161/4/2 165/4/2
f 162/4/2 163/4/2 166/4/2
f 166/4/2 163/4/2 167/4/2
f 168/1/2 169/1/2 172/1/2
f 172/1/2 169/1/2 173/1/2
f 170/1/2 171/1/2 176/1/2
f 176/1/2 171/1/2 177/1/2
f 173/4/2 174/4/2 178/4/2
f 178/4/2 174/4/2 179/4/2
f 175/4/2 176/4/2 180/4/2
f 180/4/2 176/4/2 181/4/2
f 182/4/2 183/4/2 184/4/2
f 184/4/2 183/4/2 185/4/2
f 186/5/2 187/5/2 188/5/2
f 188/5/2 187/5/2 189/5/2
f 190/1/2 191/1/2 192/1/2
f 192/1/2 191/1/2 193/1/2
f 194/5/2 195/5/2 196/5/2
f 196/5/2 195/5/2 197/5/2
f 200/5/3 199/5/3 198/5/3
f 201/5/3 199/5/3 200/5/3
f 204/1/3 203/1/3 202/1/3
f 205/1/3 203/1/3 204/1/3
f 210/4/3 209/4/3 208/4/3
f 211/4/3 209/4/3 210/4/3
f 212/5/3 207/5/3 206/5/3
f 213/5/3 207/5/3 212/5/3
f 216/1/3 215/1/3 214/1/3
f 217/1/3 215/1/3 216/1/3
f 219/4/3 218/4/3 217/4/3
f 220/4/3 218/4/3 219/4/3
f 224/4/3 222/4/3 221/4/3
f 225/4/3 222/4/3 224/4/3
f 226/1/3 224/1/3 223/1/3
f 227/1/3 224/1/3 226/1/3
f 230/4/3 229/4/3 228/4/3
f 231/4/3 229/4/3 230/4/3
f 234/4/3 233/4/3 232/4/3
f 235/4/3 233/4/3 234/4/3
f 238/1/3 237/1/3 236/1/3
f 239/1/3 237/1/3 238/1/3
f 242/1/3 241/1/3 240/1/3
f 243/1/3 241/1/3 242/1/3
f 246/1/3 245/1/3 244/1/3
f 247/1/3 245/1/3 246/1/3
f 250/1/3 249/1/3 248/1/3
f 251/1/3 249/1/3 250/1/3
f 254/1/3 253/1/3 252/1/3
f 255/1/3 253/1/3 254/1/3
f 258/1/3 257/1/3 256/1/3
f 260/1/3 258/1/3 256/1/3
f 261/4/3 259/4/3 258/4/3
f 261/1/3 258/1/3 260/1/3
f 262/4/3 259/4/3 261/4/3
f 263/4/3 259/4/3 262/4/3
f 266/4/3 265/4/3 264/4/3
f 267/4/3 265/4/3 266/4/3
f 271/4/3 269/4/3 268/4/3
f 272/4/3 269/4/3 271/4/3
f 273/1/3 271/1/3 270/1/3
f 274/1/3 271/1/3 273/1/3
f 277/4/3 276/4/3 275/4/3
f 278/4/3 276/4/3 277/4/3
f 281/4/3 280/4/3 279/4/3
f 282/4/3 280/4/3 281/4/3
f 285/1/3 284/1/3 283/1/3
f 286/1/3 284/1/3 285/1/3
f 289/1/3 288/1/3 287/1/3
f 290/1/3 288/1/3 289/1/3
f 293/5/3 292/5/3 291/5/3
f 294/5/3 292/5/3 293/5/3
f 295/5/4 296/5/4 297/5/4
f 297/5/4 296/5/4 298/5/4
f 299/1/4 300/1/4 301/1/4
f 301/1/4 300/1/4 302/1/4
f 303/1/4 304/1/4 305/1/4
f 305/1/4 304/1/4 306/1/4
f 307/4/4 308/4/4 309/4/4
f 309/4/4 308/4/4 310/4/4
f 311/4/4 312/4/4 313/4/4
f 313/4/4 312/4/4 314/4/4
f 315/1/4 316/1/4 317/1/4
f 317/1/4 316/1/4 318/1/4
f 319/4/4 320/4/4 321/4/4
f 321/4/4 320/4/4 322/4/4
f 323/4/4 324/4/4 326/4/4
f 326/4/4 324/4/4 327/4/4
f 325/1/4 326/1/4 328/1/4
f 328/1/4 326/1/4 329/1/4
f 330/1/4 331/1/4 332/1/4
f 332/1/4 331/1/4 333/1/4
f 334/4/4 335/4/4 337/4/4
f 336/1/4 337/1/4 338/1/4
f 337/4/4 335/4/4 339/4/4
f 338/1/4 337/1/4 339/1/4
f 339/4/4 335/4/4 340/4/4
f 341/1/4 342/1/4 343/1/4
f 343/1/4 342/1/4 344/1/4
f 345/1/4 346/1/4 347/1/4
f 347/1/4 346/1/4 348/1/4
f 349/1/4 350/1/4 351/1/4
f 351/1/4 350/1/4 352/1/4
f 353/1/4 354/1/4 355/1/4
f 355/1/4 354/1/4 356/1/4
f 357/4/4 358/4/4 359/4/4
f 359/4/4 358/4/4 360/4/4
f 361/4/4 362/4/4 363/4/4
f 363/4/4 362/4/4 364/4/4
f 365/1/4 366/1/4 368/1/4
f 366/4/4 367/4/4 369/4/4
f 368/1/4 366/1/4 369/1/4
f 369/4/4 367/4/4 370/4/4
f 371/4/4 372/4/4 374/4/4
f 374/4/4 372/4/4 375/4/4
f 373/1/4 374/1/4 376/1/4
f 376/1/4 374/1/4 377/1/4
f 380/4/4 381/4/4 382/4/4
f 382/4/4 381/4/4 383/4/4
f 378/5/4 379/5/4 384/5/4
f 384/5/4 379/5/4 385/5/4
f 386/1/4 387/1/4 388/1/4
f 388/1/4 387/1/4 389/1/4
f 390/5/4 391/5/4 392/5/4
f 392/5/4 391/5/4 393/5/4
f 396/5/5 395/5/5 394/5/5
f 397/5/5 395/5/5 396/5/5
f 400/5/5 399/5/5 398/5/5
f 401/5/5 399/5/5 400/5/5
f 402/5/5 400/5/5 398/5/5
f 403/5/5 399/5/5 401/5/5
f 404/5/5 402/5/5 398/5/5
f 404/5/5 403/5/5 402/5/5
f 405/5/5 399/5/5 403/5/5
f 405/5/5 403/5/5 404/5/5
f 406/5/6 407/5/6 408/5/6
f 408/5/6 407/5/6 409/5/6
f 410/5/6 411/5/6 414/5/6
f 414/5/6 411/5/6 415/5/6
f 412/5/6 413/5/6 416/5/6
f 416/5/6 413/5/6 417/5/6
f 410/5/6 414/5/6 418/5/6
f 418/5/6 414/5/6 419/5/6
f 420/5/6 421/5/6 424/5/6
f 422/5/6 423/5/6 428/5/6
f 428/5/6 423/5/6 429/5/6
f 409/5/6 407/5/6 430/5/6
f 430/5/6 407/5/6 431/5/6
f 420/5/6 424/5/6 432/5/6
f 424/5/6 425/5/6 432/5/6
f 432/5/6 425/5/6 433/5/6
f 426/5/6 427/5/6 434/5/6
f 434/5/6 427/5/6 435/5/6
f 406/5/6 408/5/6 440/5/6
f 436/5/6 437/5/6 442/5/6
f 442/5/6 437/5/6 443/5/6
f 438/5/6 439/5/6 444/5/6
f 444/5/6 445/5/6 446/5/6
f 438/5/6 444/5/6 446/5/6
f 446/5/6 445/5/6 447/5/6
f 448/5/6 449/5/6 452/5/6
f 452/5/6 449/5/6 453/5/6
f 450/5/6 451/5/6 454/5/6
f 454/5/6 451/5/6 455/5/6
f 440/5/6 441/5/6 456/5/6
f 431/5/6 407/5/6 457/5/6
f 440/5/6 456/5/6 458/5/6
f 456/5/6 457/5/6 458/5/6
f 406/5/6 440/5/6 458/5/6
f 457/5/6 407/5/6 459/5/6
f 458/5/6 457/5/6 459/5/6
f 460/5/6 461/5/6 462/5/6
f 462/5/6 461/5/6 463/5/6
f 464/1/6 465/1/6 466/1/6
f 466/1/6 465/1/6 467/1/6
f 467/1/6 465/1/6 468/1/6
f 468/1/6 465/1/6 469/1/6
f 469/1/6 465/1/6 470/1/6
f 470/1/6 465/1/6 471/1/6
f 467/1/6 468/1/6 473/1/6
f 473/1/6 468/1/6 474/1/6
f 469/1/6 470/1/6 475/1/6
f 475/1/6 470/1/6 476/1/6
f 471/1/6 465/1/6 477/1/6
f 472/1/6 473/1/6 478/1/6
f 478/1/6 473/1/6 479/1/6
f 476/1/6 477/1/6 480/1/6
f 477/1/6 465/1/6 481/1/6
f 480/1/6 477/1/6 481/1/6
f 464/1/6 466/1/6 482/1/6
f 482/1/6 483/1/6 484/1/6
f 481/1/6 465/1/6 487/1/6
f 484/1/6 485/1/6 488/1/6
f 464/1/6 482/1/6 488/1/6
f 482/1/6 484/1/6 488/1/6
f 488/1/6 485/1/6 489/1/6
f 489/1/6 485/1/6 490/1/6
f 486/1/6 487/1/6 493/1/6
f 487/1/6 465/1/6 494/1/6
f 493/1/6 487/1/6 494/1/6
f 490/1/6 491/1/6 495/1/6
f 489/1/6 490/1/6 495/1/6
f 495/1/6 491/1/6 496/1/6
f 496/1/6 491/1/6 497/1/6
f 492/1/6 493/1/6 499/1/6
f 499/1/6 493/1/6 500/1/6
f 494/1/6 465/1/6 501/1/6
f 501/1/6 465/1/6 502/1/6
f 464/1/6 488/1/6 504/1/6
f 497/1/6 498/1/6 505/1/6
f 496/1/6 497/1/6 505/1/6
f 505/1/6 498/1/6 506/1/6
f 499/1/6 500/1/6 507/1/6
f 502/1/6 503/1/6 507/1/6
f 501/1/6 502/1/6 507/1/6
f 500/1/6 501/1/6 507/1/6
f 507/1/6 503/1/6 508/1/6
f 508/1/6 503/1/6 509/1/6
f 509/1/6 503/1/6 510/1/6
f 510/1/6 503/1/6 511/1/6
f 505/1/6 506/1/6 512/1/6
f 464/1/6 504/1/6 512/1/6
f 504/1/6 505/1/6 512/1/6
f 507/1/6 508/1/6 512/1/6
f 506/1/6 507/1/6 512/1/6
f 512/1/6 508/1/6 513/1/6
f 513/1/6 508/1/6 514/1/6
f 509/1/6 510/1/6 516/1/6
f 516/1/6 510/1/6 517/1/6
f 511/1/6 503/1/6 518/1/6
f 518/1/6 503/1/6 519/1/6
f 514/1/6 515/1/6 520/1/6
f 513/1/6 514/1/6 520/1/6
f 520/1/6 515/1/6 521/1/6
f 517/1/6 510/1/6 522/1/6
f 522/1/6 510/1/6 523/1/6
f 519/1/6 503/1/6 524/1/6
f 513/1/6 520/1/6 525/1/6
f 525/1/6 520/1/6 526/1/6
f 523/1/6 524/1/6 527/1/6
f 527/1/6 524/1/6 528/1/6
f 528/1/6 524/1/6 532/1/6
f 529/1/6 530/1/6 533/1/6
f 531/1/6 532/1/6 535/1/6
f 524/1/6 503/1/6 536/1/6
f 532/1/6 524/1/6 536/1/6
f 535/1/6 532/1/6 536/1/6
f 529/1/6 533/1/6 537/1/6
f 534/1/6 535/1/6 539/1/6
f 539/1/6 535/1/6 540/1/6
f 536/1/6 503/1/6 541/1/6
f 539/1/6 540/1/6 542/1/6
f 540/1/6 541/1/6 542/1/6
f 537/1/6 538/1/6 542/1/6
f 529/1/6 537/1/6 542/1/6
f 538/1/6 539/1/6 542/1/6
f 541/1/6 503/1/6 543/1/6
f 542/1/6 541/1/6 543/1/6
f 460/5/6 462/5/6 544/5/6
f 463/5/6 461/5/6 545/5/6
f 460/5/6 544/5/6 546/5/6
f 544/5/6 545/5/6 546/5/6
f 545/5/6 461/5/6 547/5/6
f 546/5/6 545/5/6 547/5/6
f 548/4/6 549/4/6 551/4/6
f 551/4/6 549/4/6 552/4/6
f 550/4/6 551/4/6 555/4/6
f 551/3/6 552/3/6 556/3/6
f 555/4/6 551/4/6 556/4/6
f 556/3/6 552/3/6 557/3/6
f 552/4/6 553/4/6 558/4/6
f 557/3/6 552/3/6 558/3/6
f 558/4/6 553/4/6 559/4/6
f 556/3/6 557/3/6 561/3/6
f 555/3/6 556/3/6 561/3/6
f 557/2/6 558/2/6 562/2/6
f 561/3/6 557/3/6 562/3/6
f 558/3/6 559/3/6 563/3/6
f 562/2/6 558/2/6 563/2/6
f 554/4/6 555/4/6 564/4/6
f 555/3/6 561/3/6 565/3/6
f 564/4/6 555/4/6 565/4/6
f 561/2/6 562/2/6 566/2/6
f 565/3/6 561/3/6 566/3/6
f 562/3/6 563/3/6 567/3/6
f 566/2/6 562/2/6 567/2/6
f 563/3/6 559/3/6 568/3/6
f 567/3/6 563/3/6 568/3/6
f 559/4/6 560/4/6 569/4/6
f 568/3/6 559/3/6 569/3/6
f 569/4/6 560/4/6 570/4/6
f 565/4/6 566/4/6 571/4/6
f 567/3/6 568/3/6 572/3/6
f 571/4/6 566/4/6 572/4/6
f 566/3/6 567/3/6 572/3/6
f 568/4/6 569/4/6 573/4/6
f 572/3/6 568/3/6 573/3/6
f 573/4/6 569/4/6 574/4/6
f 572/4/6 573/4/6 575/4/6
f 575/4/6 573/4/6 576/4/6
f 577/4/6 578/4/6 580/4/6
f 580/4/6 578/4/6 581/4/6
f 579/4/6 580/4/6 584/4/6
f 580/3/6 581/3/6 585/3/6
f 584/4/6 580/4/6 585/4/6
f 585/3/6 581/3/6 586/3/6
f 581/4/6 582/4/6 587/4/6
f 586/3/6 581/3/6 587/3/6
f 587/4/6 582/4/6 588/4/6
f 585/3/6 586/3/6 590/3/6
f 584/3/6 585/3/6 590/3/6
f 586/2/6 587/2/6 591/2/6
f 590/3/6 586/3/6 591/3/6
f 587/3/6 588/3/6 592/3/6
f 591/2/6 587/2/6 592/2/6
f 583/4/6 584/4/6 593/4/6
f 584/3/6 590/3/6 594/3/6
f 593/4/6 584/4/6 594/4/6
f 590/2/6 591/2/6 595/2/6
f 594/3/6 590/3/6 595/3/6
f 591/3/6 592/3/6 596/3/6
f 595/2/6 591/2/6 596/2/6
f 592/3/6 588/3/6 597/3/6
f 596/3/6 592/3/6 597/3/6
f 588/4/6 589/4/6 598/4/6
f 597/3/6 588/3/6 598/3/6
f 598/4/6 589/4/6 599/4/6
f 594/4/6 595/4/6 600/4/6
f 596/3/6 597/3/6 601/3/6
f 600/4/6 595/4/6 601/4/6
f 595/3/6 596/3/6 601/3/6
f 597/4/6 598/4/6 602/4/6
f 601/3/6 597/3/6 602/3/6
f 602/4/6 598/4/6 603/4/6
f 601/4/6 602/4/6 604/4/6
f 604/4/6 602/4/6 605/4/6
