# MagicaVoxel @ Ephtracy

# group
o 

# material
mtllib CookedFish.mtl
usemtl palette

# normals
vn -1 0 0
vn 1 0 0
vn 0 0 1
vn 0 0 -1
vn 0 -1 0
vn 0 1 0

# texcoords
vt 0.0136719 0.5
vt 0.0878906 0.5
vt 0.958984 0.5
vt 0.978516 0.5
vt 0.986328 0.5

# verts
v -0.9 0.1 0.9
v -0.9 0.1 -1.1
v -0.9 0.3 0.9
v -0.9 0.3 -1.1
v -0.6 0 0.6
v -0.6 0 -0.8
v -0.6 0.1 0.6
v -0.6 0.1 -0.8
v -0.5 0.2 0.5
v -0.5 0.2 -0.3
v -0.5 0.4 0.5
v -0.5 0.4 -0.3
v -0.4 0.2 -0.3
v -0.4 0.2 -0.4
v -0.4 0.4 -0.3
v -0.4 0.4 -0.4
v -0.3 0.2 -0.4
v -0.3 0.2 -0.5
v -0.3 0.4 -0.4
v -0.3 0.4 -0.5
v -0.2 0.2 -0.5
v -0.2 0.2 -0.6
v -0.2 0.4 -0.5
v -0.2 0.4 -0.6
v -0.1 0.2 -0.6
v -0.1 0.2 -0.7
v -0.1 0.4 -0.6
v -0.1 0.4 -0.7
v 0.1 0.2 -0.7
v 0.1 0.2 -0.8
v 0.1 0.4 -0.7
v 0.1 0.4 -0.8
v 0.4 0.2 -0.2
v 0.4 0.2 -0.3
v 0.4 0.4 -0.2
v 0.4 0.4 -0.3
v 0.5 0.2 -0.3
v 0.5 0.2 -0.4
v 0.5 0.4 -0.3
v 0.5 0.4 -0.4
v 0.6 0.2 -0.4
v 0.6 0.2 -0.5
v 0.6 0.4 -0.4
v 0.6 0.4 -0.5
v 1 0.2 0.8
v 1 0.2 -1
v 1 0.3 0.8
v 1 0.3 -1
v -0.8 0.2 0.8
v -0.8 0.2 -1
v -0.8 0.3 0.8
v -0.8 0.3 -1
v 0.2 0.2 -0.2
v 0.2 0.2 -0.4
v 0.2 0.4 -0.2
v 0.2 0.4 -0.4
v 0.3 0.2 0.5
v 0.3 0.2 0.4
v 0.3 0.2 -0.4
v 0.3 0.2 -0.5
v 0.3 0.4 0.5
v 0.3 0.4 0.4
v 0.3 0.4 -0.4
v 0.3 0.4 -0.5
v 0.4 0.2 0.4
v 0.4 0.2 0.3
v 0.4 0.2 -0.5
v 0.4 0.2 -0.6
v 0.4 0.4 0.4
v 0.4 0.4 0.3
v 0.4 0.4 -0.5
v 0.4 0.4 -0.6
v 0.5 0.2 0.3
v 0.5 0.2 0.2
v 0.5 0.2 -0.6
v 0.5 0.2 -0.7
v 0.5 0.2 -0.8
v 0.5 0.4 0.3
v 0.5 0.4 0.2
v 0.5 0.4 -0.6
v 0.5 0.4 -0.7
v 0.5 0.4 -0.8
v 0.6 0.2 0.2
v 0.6 0.2 0.1
v 0.6 0.4 0.2
v 0.6 0.4 0.1
v 0.7 0.2 0.1
v 0.7 0.2 -0.1
v 0.7 0.4 0.1
v 0.7 0.4 -0.1
v 0.8 0 0.6
v 0.8 0 -0.8
v 0.8 0.1 0.6
v 0.8 0.1 -0.8
v 0.8 0.2 -0.1
v 0.8 0.2 -0.5
v 0.8 0.4 -0.1
v 0.8 0.4 -0.5
v 1.1 0.1 0.9
v 1.1 0.1 -1.1
v 1.1 0.3 0.9
v 1.1 0.3 -1.1
v -0.9 0.1 0.9
v -0.9 0.3 0.9
v 1.1 0.1 0.9
v 1.1 0.3 0.9
v -0.6 0 0.6
v -0.6 0.1 0.6
v 0.8 0 0.6
v 0.8 0.1 0.6
v -0.5 0.2 0.5
v -0.5 0.4 0.5
v 0.3 0.2 0.5
v 0.3 0.4 0.5
v 0.3 0.2 0.4
v 0.3 0.4 0.4
v 0.4 0.2 0.4
v 0.4 0.4 0.4
v 0.4 0.2 0.3
v 0.4 0.4 0.3
v 0.5 0.2 0.3
v 0.5 0.4 0.3
v 0.5 0.2 0.2
v 0.5 0.4 0.2
v 0.6 0.2 0.2
v 0.6 0.4 0.2
v 0.6 0.2 0.1
v 0.6 0.4 0.1
v 0.7 0.2 0.1
v 0.7 0.4 0.1
v 0.7 0.2 -0.1
v 0.7 0.4 -0.1
v 0.8 0.2 -0.1
v 0.8 0.4 -0.1
v 0.2 0.2 -0.4
v 0.2 0.4 -0.4
v 0.3 0.2 -0.4
v 0.3 0.4 -0.4
v 0.3 0.2 -0.5
v 0.3 0.4 -0.5
v 0.4 0.2 -0.5
v 0.4 0.4 -0.5
v 0.4 0.2 -0.6
v 0.4 0.4 -0.6
v 0.5 0.2 -0.6
v 0.5 0.4 -0.6
v -0.8 0.2 -1
v -0.8 0.3 -1
v 1 0.2 -1
v 1 0.3 -1
v -0.8 0.2 0.8
v -0.8 0.3 0.8
v 1 0.2 0.8
v 1 0.3 0.8
v 0.2 0.2 -0.2
v 0.2 0.4 -0.2
v 0.4 0.2 -0.2
v 0.4 0.4 -0.2
v -0.5 0.2 -0.3
v -0.5 0.4 -0.3
v -0.4 0.2 -0.3
v -0.4 0.4 -0.3
v 0.4 0.2 -0.3
v 0.4 0.4 -0.3
v 0.5 0.2 -0.3
v 0.5 0.4 -0.3
v -0.4 0.2 -0.4
v -0.4 0.4 -0.4
v -0.3 0.2 -0.4
v -0.3 0.4 -0.4
v 0.5 0.2 -0.4
v 0.5 0.4 -0.4
v 0.6 0.2 -0.4
v 0.6 0.4 -0.4
v -0.3 0.2 -0.5
v -0.3 0.4 -0.5
v -0.2 0.2 -0.5
v -0.2 0.4 -0.5
v 0.6 0.2 -0.5
v 0.6 0.4 -0.5
v 0.7 0.2 -0.5
v 0.7 0.4 -0.5
v 0.8 0.2 -0.5
v 0.8 0.4 -0.5
v -0.2 0.2 -0.6
v -0.2 0.4 -0.6
v -0.1 0.2 -0.6
v -0.1 0.4 -0.6
v -0.1 0.2 -0.7
v -0.1 0.4 -0.7
v 0.1 0.2 -0.7
v 0.1 0.4 -0.7
v -0.6 0 -0.8
v -0.6 0.1 -0.8
v 0.1 0.2 -0.8
v 0.1 0.4 -0.8
v 0.5 0.2 -0.8
v 0.5 0.4 -0.8
v 0.8 0 -0.8
v 0.8 0.1 -0.8
v -0.9 0.1 -1.1
v -0.9 0.3 -1.1
v 1.1 0.1 -1.1
v 1.1 0.3 -1.1
v -0.6 0 0.6
v 0.8 0 0.6
v -0.6 0 -0.8
v 0.8 0 -0.8
v -0.9 0.1 0.9
v 1.1 0.1 0.9
v -0.6 0.1 0.6
v 0.8 0.1 0.6
v -0.6 0.1 -0.8
v 0.8 0.1 -0.8
v -0.9 0.1 -1.1
v 1.1 0.1 -1.1
v -0.8 0.2 0.8
v 1 0.2 0.8
v -0.5 0.2 0.5
v 0.3 0.2 0.5
v 0.3 0.2 0.4
v 0.4 0.2 0.4
v 0.4 0.2 0.3
v 0.5 0.2 0.3
v 0.5 0.2 0.2
v 0.6 0.2 0.2
v 0.6 0.2 0.1
v 0.7 0.2 0.1
v 0.7 0.2 -0.1
v 0.8 0.2 -0.1
v 0.2 0.2 -0.2
v 0.4 0.2 -0.2
v -0.5 0.2 -0.3
v -0.4 0.2 -0.3
v 0.4 0.2 -0.3
v 0.5 0.2 -0.3
v -0.4 0.2 -0.4
v -0.3 0.2 -0.4
v 0.2 0.2 -0.4
v 0.3 0.2 -0.4
v 0.5 0.2 -0.4
v 0.6 0.2 -0.4
v -0.3 0.2 -0.5
v -0.2 0.2 -0.5
v 0.3 0.2 -0.5
v 0.4 0.2 -0.5
v 0.6 0.2 -0.5
v 0.7 0.2 -0.5
v 0.8 0.2 -0.5
v -0.2 0.2 -0.6
v -0.1 0.2 -0.6
v 0.4 0.2 -0.6
v 0.5 0.2 -0.6
v -0.1 0.2 -0.7
v 0.1 0.2 -0.7
v 0.5 0.2 -0.7
v 0.1 0.2 -0.8
v 0.5 0.2 -0.8
v -0.8 0.2 -1
v 1 0.2 -1
v -0.9 0.3 0.9
v 1.1 0.3 0.9
v -0.8 0.3 0.8
v 1 0.3 0.8
v -0.8 0.3 -1
v 1 0.3 -1
v -0.9 0.3 -1.1
v 1.1 0.3 -1.1
v -0.5 0.4 0.5
v 0.3 0.4 0.5
v -0.4 0.4 0.4
v 0.2 0.4 0.4
v 0.3 0.4 0.4
v 0.4 0.4 0.4
v 0.2 0.4 0.3
v 0.3 0.4 0.3
v 0.4 0.4 0.3
v 0.5 0.4 0.3
v 0.3 0.4 0.2
v 0.4 0.4 0.2
v 0.5 0.4 0.2
v 0.6 0.4 0.2
v 0.4 0.4 0.1
v 0.5 0.4 0.1
v 0.6 0.4 0.1
v 0.7 0.4 0.1
v 0 0.4 0
v 0.1 0.4 0
v 0.5 0.4 0
v 0.6 0.4 0
v 0 0.4 -0.1
v 0.1 0.4 -0.1
v 0.2 0.4 -0.1
v 0.7 0.4 -0.1
v 0.8 0.4 -0.1
v -0.4 0.4 -0.2
v -0.3 0.4 -0.2
v 0.1 0.4 -0.2
v 0.2 0.4 -0.2
v 0.4 0.4 -0.2
v 0.6 0.4 -0.2
v 0.7 0.4 -0.2
v -0.5 0.4 -0.3
v -0.4 0.4 -0.3
v -0.3 0.4 -0.3
v -0.2 0.4 -0.3
v 0.4 0.4 -0.3
v 0.5 0.4 -0.3
v -0.4 0.4 -0.4
v -0.3 0.4 -0.4
v -0.2 0.4 -0.4
v -0.1 0.4 -0.4
v 0.2 0.4 -0.4
v 0.3 0.4 -0.4
v 0.5 0.4 -0.4
v 0.6 0.4 -0.4
v -0.3 0.4 -0.5
v -0.2 0.4 -0.5
v -0.1 0.4 -0.5
v 0 0.4 -0.5
v 0.3 0.4 -0.5
v 0.4 0.4 -0.5
v 0.6 0.4 -0.5
v 0.7 0.4 -0.5
v 0.8 0.4 -0.5
v -0.2 0.4 -0.6
v -0.1 0.4 -0.6
v 0 0.4 -0.6
v 0.2 0.4 -0.6
v 0.4 0.4 -0.6
v 0.5 0.4 -0.6
v -0.1 0.4 -0.7
v 0.1 0.4 -0.7
v 0.2 0.4 -0.7
v 0.5 0.4 -0.7
v 0.1 0.4 -0.8
v 0.5 0.4 -0.8

# faces
f 3/3/1 2/3/1 1/3/1
f 4/3/1 2/3/1 3/3/1
f 7/3/1 6/3/1 5/3/1
f 8/3/1 6/3/1 7/3/1
f 11/5/1 10/5/1 9/5/1
f 12/5/1 10/5/1 11/5/1
f 15/5/1 14/5/1 13/5/1
f 16/5/1 14/5/1 15/5/1
f 19/5/1 18/5/1 17/5/1
f 20/5/1 18/5/1 19/5/1
f 23/5/1 22/5/1 21/5/1
f 24/5/1 22/5/1 23/5/1
f 27/5/1 26/5/1 25/5/1
f 28/5/1 26/5/1 27/5/1
f 31/5/1 30/5/1 29/5/1
f 32/5/1 30/5/1 31/5/1
f 35/2/1 34/2/1 33/2/1
f 36/2/1 34/2/1 35/2/1
f 39/2/1 38/2/1 37/2/1
f 40/2/1 38/2/1 39/2/1
f 43/2/1 42/2/1 41/2/1
f 44/2/1 42/2/1 43/2/1
f 47/3/1 46/3/1 45/3/1
f 48/3/1 46/3/1 47/3/1
f 49/3/2 50/3/2 51/3/2
f 51/3/2 50/3/2 52/3/2
f 53/2/2 54/2/2 55/2/2
f 55/2/2 54/2/2 56/2/2
f 57/5/2 58/5/2 61/5/2
f 61/5/2 58/5/2 62/5/2
f 59/2/2 60/2/2 63/2/2
f 63/2/2 60/2/2 64/2/2
f 65/5/2 66/5/2 69/5/2
f 69/5/2 66/5/2 70/5/2
f 67/2/2 68/2/2 71/2/2
f 71/2/2 68/2/2 72/2/2
f 73/5/2 74/5/2 78/5/2
f 78/5/2 74/5/2 79/5/2
f 75/2/2 76/2/2 80/2/2
f 76/5/2 77/5/2 81/5/2
f 80/2/2 76/2/2 81/2/2
f 81/5/2 77/5/2 82/5/2
f 83/5/2 84/5/2 85/5/2
f 85/5/2 84/5/2 86/5/2
f 87/5/2 88/5/2 89/5/2
f 89/5/2 88/5/2 90/5/2
f 91/3/2 92/3/2 93/3/2
f 93/3/2 92/3/2 94/3/2
f 95/5/2 96/5/2 97/5/2
f 97/5/2 96/5/2 98/5/2
f 99/3/2 100/3/2 101/3/2
f 101/3/2 100/3/2 102/3/2
f 105/3/3 104/3/3 103/3/3
f 106/3/3 104/3/3 105/3/3
f 109/3/3 108/3/3 107/3/3
f 110/3/3 108/3/3 109/3/3
f 113/5/3 112/5/3 111/5/3
f 114/5/3 112/5/3 113/5/3
f 117/5/3 116/5/3 115/5/3
f 118/5/3 116/5/3 117/5/3
f 121/5/3 120/5/3 119/5/3
f 122/5/3 120/5/3 121/5/3
f 125/5/3 124/5/3 123/5/3
f 126/5/3 124/5/3 125/5/3
f 129/5/3 128/5/3 127/5/3
f 130/5/3 128/5/3 129/5/3
f 133/5/3 132/5/3 131/5/3
f 134/5/3 132/5/3 133/5/3
f 137/2/3 136/2/3 135/2/3
f 138/2/3 136/2/3 137/2/3
f 141/2/3 140/2/3 139/2/3
f 142/2/3 140/2/3 141/2/3
f 145/2/3 144/2/3 143/2/3
f 146/2/3 144/2/3 145/2/3
f 149/3/3 148/3/3 147/3/3
f 150/3/3 148/3/3 149/3/3
f 151/3/4 152/3/4 153/3/4
f 153/3/4 152/3/4 154/3/4
f 155/2/4 156/2/4 157/2/4
f 157/2/4 156/2/4 158/2/4
f 159/5/4 160/5/4 161/5/4
f 161/5/4 160/5/4 162/5/4
f 163/2/4 164/2/4 165/2/4
f 165/2/4 164/2/4 166/2/4
f 167/5/4 168/5/4 169/5/4
f 169/5/4 168/5/4 170/5/4
f 171/2/4 172/2/4 173/2/4
f 173/2/4 172/2/4 174/2/4
f 175/5/4 176/5/4 177/5/4
f 177/5/4 176/5/4 178/5/4
f 179/2/4 180/2/4 181/2/4
f 181/2/4 180/2/4 182/2/4
f 181/5/4 182/5/4 183/5/4
f 183/5/4 182/5/4 184/5/4
f 185/5/4 186/5/4 187/5/4
f 187/5/4 186/5/4 188/5/4
f 189/5/4 190/5/4 191/5/4
f 191/5/4 190/5/4 192/5/4
f 195/5/4 196/5/4 197/5/4
f 197/5/4 196/5/4 198/5/4
f 193/3/4 194/3/4 199/3/4
f 199/3/4 194/3/4 200/3/4
f 201/3/4 202/3/4 203/3/4
f 203/3/4 202/3/4 204/3/4
f 207/3/5 206/3/5 205/3/5
f 208/3/5 206/3/5 207/3/5
f 211/3/5 210/3/5 209/3/5
f 212/3/5 210/3/5 211/3/5
f 213/3/5 211/3/5 209/3/5
f 214/3/5 210/3/5 212/3/5
f 215/3/5 213/3/5 209/3/5
f 215/3/5 214/3/5 213/3/5
f 216/3/5 210/3/5 214/3/5
f 216/3/5 214/3/5 215/3/5
f 217/3/6 218/3/6 219/3/6
f 219/3/6 218/3/6 220/3/6
f 220/3/6 218/3/6 221/3/6
f 221/3/6 218/3/6 222/3/6
f 222/3/6 218/3/6 223/3/6
f 223/3/6 218/3/6 224/3/6
f 224/3/6 218/3/6 225/3/6
f 225/3/6 218/3/6 226/3/6
f 226/3/6 218/3/6 227/3/6
f 227/3/6 218/3/6 228/3/6
f 228/3/6 218/3/6 229/3/6
f 229/3/6 218/3/6 230/3/6
f 217/3/6 219/3/6 233/3/6
f 231/3/6 232/3/6 235/3/6
f 233/3/6 234/3/6 237/3/6
f 235/3/6 236/3/6 239/3/6
f 231/3/6 235/3/6 239/3/6
f 239/3/6 236/3/6 240/3/6
f 240/3/6 236/3/6 241/3/6
f 237/3/6 238/3/6 243/3/6
f 241/3/6 242/3/6 245/3/6
f 240/3/6 241/3/6 245/3/6
f 245/3/6 242/3/6 246/3/6
f 246/3/6 242/3/6 247/3/6
f 230/3/6 218/3/6 249/3/6
f 243/3/6 244/3/6 250/3/6
f 248/3/6 249/3/6 252/3/6
f 247/3/6 248/3/6 252/3/6
f 246/3/6 247/3/6 252/3/6
f 252/3/6 249/3/6 253/3/6
f 250/3/6 251/3/6 254/3/6
f 253/3/6 249/3/6 256/3/6
f 254/3/6 255/3/6 257/3/6
f 256/3/6 249/3/6 258/3/6
f 254/3/6 257/3/6 259/3/6
f 257/3/6 258/3/6 259/3/6
f 243/3/6 250/3/6 259/3/6
f 217/3/6 233/3/6 259/3/6
f 233/3/6 237/3/6 259/3/6
f 250/3/6 254/3/6 259/3/6
f 237/3/6 243/3/6 259/3/6
f 258/3/6 249/3/6 260/3/6
f 259/3/6 258/3/6 260/3/6
f 249/3/6 218/3/6 260/3/6
f 261/3/6 262/3/6 263/3/6
f 263/3/6 262/3/6 264/3/6
f 261/3/6 263/3/6 265/3/6
f 264/3/6 262/3/6 266/3/6
f 261/3/6 265/3/6 267/3/6
f 265/3/6 266/3/6 267/3/6
f 266/3/6 262/3/6 268/3/6
f 267/3/6 266/3/6 268/3/6
f 269/5/6 270/5/6 271/5/6
f 271/5/6 270/5/6 272/5/6
f 272/5/6 270/5/6 273/5/6
f 271/2/6 272/2/6 275/2/6
f 273/5/6 274/5/6 275/5/6
f 272/5/6 273/5/6 275/5/6
f 275/5/6 274/5/6 276/5/6
f 276/5/6 274/5/6 277/5/6
f 275/2/6 276/2/6 279/2/6
f 277/5/6 278/5/6 279/5/6
f 276/5/6 277/5/6 279/5/6
f 279/5/6 278/5/6 280/5/6
f 280/5/6 278/5/6 281/5/6
f 279/2/6 280/2/6 283/2/6
f 281/5/6 282/5/6 283/5/6
f 280/5/6 281/5/6 283/5/6
f 283/5/6 282/5/6 284/5/6
f 284/5/6 282/5/6 285/5/6
f 271/2/6 275/2/6 287/2/6
f 275/2/6 279/2/6 287/2/6
f 279/2/6 283/2/6 287/2/6
f 283/2/6 284/2/6 287/2/6
f 287/2/6 284/2/6 288/2/6
f 285/5/6 286/5/6 289/5/6
f 288/2/6 284/2/6 289/2/6
f 284/5/6 285/5/6 289/5/6
f 289/5/6 286/5/6 290/5/6
f 287/1/6 288/1/6 291/1/6
f 271/2/6 287/2/6 291/2/6
f 289/2/6 290/2/6 292/2/6
f 291/1/6 288/1/6 292/1/6
f 288/2/6 289/2/6 292/2/6
f 292/2/6 290/2/6 293/2/6
f 290/5/6 286/5/6 294/5/6
f 269/5/6 271/5/6 296/5/6
f 271/2/6 291/2/6 296/2/6
f 291/2/6 292/2/6 296/2/6
f 296/2/6 292/2/6 297/2/6
f 292/1/6 293/1/6 298/1/6
f 297/2/6 292/2/6 298/2/6
f 293/2/6 290/2/6 299/2/6
f 298/1/6 293/1/6 299/1/6
f 299/2/6 290/2/6 300/2/6
f 294/5/6 295/5/6 301/5/6
f 300/2/6 290/2/6 301/2/6
f 290/5/6 294/5/6 301/5/6
f 301/5/6 295/5/6 302/5/6
f 296/5/6 297/5/6 303/5/6
f 269/5/6 296/5/6 303/5/6
f 303/5/6 297/5/6 304/5/6
f 297/2/6 298/2/6 305/2/6
f 304/5/6 297/5/6 305/5/6
f 298/2/6 299/2/6 305/2/6
f 305/2/6 299/2/6 306/2/6
f 301/2/6 302/2/6 307/2/6
f 300/2/6 301/2/6 307/2/6
f 307/2/6 302/2/6 308/2/6
f 305/5/6 306/5/6 309/5/6
f 304/5/6 305/5/6 309/5/6
f 309/5/6 306/5/6 310/5/6
f 306/2/6 299/2/6 311/2/6
f 310/5/6 306/5/6 311/5/6
f 311/2/6 299/2/6 312/2/6
f 312/2/6 299/2/6 313/2/6
f 308/2/6 302/2/6 315/2/6
f 315/2/6 302/2/6 316/2/6
f 310/5/6 311/5/6 317/5/6
f 311/5/6 312/5/6 317/5/6
f 317/5/6 312/5/6 318/5/6
f 313/2/6 314/2/6 319/2/6
f 318/5/6 312/5/6 319/5/6
f 312/2/6 313/2/6 319/2/6
f 319/2/6 314/2/6 320/2/6
f 320/2/6 314/2/6 321/2/6
f 316/2/6 302/2/6 323/2/6
f 302/5/6 295/5/6 324/5/6
f 323/2/6 302/2/6 324/2/6
f 324/5/6 295/5/6 325/5/6
f 318/5/6 319/5/6 326/5/6
f 319/5/6 320/5/6 326/5/6
f 326/5/6 320/5/6 327/5/6
f 321/2/6 322/2/6 328/2/6
f 327/5/6 320/5/6 328/5/6
f 320/2/6 321/2/6 328/2/6
f 328/2/6 322/2/6 329/2/6
f 329/2/6 322/2/6 330/2/6
f 327/5/6 328/5/6 332/5/6
f 328/5/6 329/5/6 332/5/6
f 332/5/6 329/5/6 333/5/6
f 330/2/6 331/2/6 334/2/6
f 333/5/6 329/5/6 334/5/6
f 329/2/6 330/2/6 334/2/6
f 334/2/6 331/2/6 335/2/6
f 333/5/6 334/5/6 336/5/6
f 334/5/6 335/5/6 336/5/6
f 336/5/6 335/5/6 337/5/6
