# MagicaVoxel @ Ephtracy

# group
o 

# material
mtllib cutting board.mtl
usemtl palette

# normals
vn -1 0 0
vn 1 0 0
vn 0 0 1
vn 0 0 -1
vn 0 -1 0
vn 0 1 0

# texcoords
vt 0.697266 0.5
vt 0.701172 0.5
vt 0.708984 0.5
vt 0.837891 0.5
vt 0.841797 0.5

# verts
v -0.9 1.5 0.8
v -0.9 1.5 -0.9
v -0.9 1.6 0.8
v -0.9 1.6 -0.9
v -0.8 0.1 0.7
v -0.8 0.1 -0.8
v -0.8 1.5 0.7
v -0.8 1.5 -0.8
v -0.7 1.6 0.6
v -0.7 1.6 -0.7
v -0.7 1.7 0.6
v -0.7 1.7 -0.7
v -0.4 1.6 0.4
v -0.4 1.6 0.3
v -0.4 1.6 0.2
v -0.4 1.6 -0.2
v -0.4 1.6 -0.3
v -0.4 1.6 -0.5
v -0.4 1.7 0.4
v -0.4 1.7 0.3
v -0.4 1.7 0.2
v -0.4 1.7 -0.2
v -0.4 1.7 -0.3
v -0.4 1.7 -0.5
v 0.6 0.6 0.8
v 0.6 0.6 0.7
v 0.6 1 0.8
v 0.6 1 0.7
v -0.5 1.6 0.4
v -0.5 1.6 -0.5
v -0.5 1.7 0.4
v -0.5 1.7 -0.5
v 0.7 0.6 0.8
v 0.7 0.6 0.7
v 0.7 1 0.8
v 0.7 1 0.7
v 1 1.6 0.6
v 1 1.6 -0.7
v 1 1.7 0.6
v 1 1.7 -0.7
v 1.1 0.1 0.7
v 1.1 0.1 -0.8
v 1.1 1.5 0.7
v 1.1 1.5 -0.8
v 1.2 1.5 0.8
v 1.2 1.5 -0.9
v 1.2 1.6 0.8
v 1.2 1.6 -0.9
v -0.9 1.5 0.8
v -0.9 1.6 0.8
v 0.6 0.6 0.8
v 0.6 1 0.8
v 0.7 0.6 0.8
v 0.7 1 0.8
v 1.2 1.5 0.8
v 1.2 1.6 0.8
v -0.8 0.1 0.7
v -0.8 1.5 0.7
v -0.6 0.3 0.7
v -0.6 1.3 0.7
v -0.5 0.4 0.7
v -0.5 1.2 0.7
v 0.6 0.6 0.7
v 0.6 1 0.7
v 0.7 0.6 0.7
v 0.7 1 0.7
v 0.8 0.4 0.7
v 0.8 1.2 0.7
v 0.9 0.3 0.7
v 0.9 1.3 0.7
v 1.1 0.1 0.7
v 1.1 1.5 0.7
v -0.7 1.6 0.6
v -0.7 1.7 0.6
v 1 1.6 0.6
v 1 1.7 0.6
v -0.5 1.6 -0.5
v -0.5 1.7 -0.5
v -0.4 1.6 -0.5
v -0.4 1.7 -0.5
v -0.5 1.6 0.4
v -0.5 1.7 0.4
v -0.4 1.6 0.4
v -0.4 1.7 0.4
v -0.7 1.6 -0.7
v -0.7 1.7 -0.7
v 1 1.6 -0.7
v 1 1.7 -0.7
v -0.8 0.1 -0.8
v -0.8 1.5 -0.8
v 1.1 0.1 -0.8
v 1.1 1.5 -0.8
v -0.9 1.5 -0.9
v -0.9 1.6 -0.9
v 1.2 1.5 -0.9
v 1.2 1.6 -0.9
v -0.8 0.1 0.7
v 1.1 0.1 0.7
v -0.7 0.1 0.6
v 1 0.1 0.6
v -0.7 0.1 -0.7
v 1 0.1 -0.7
v -0.8 0.1 -0.8
v 1.1 0.1 -0.8
v 0.6 0.6 0.8
v 0.7 0.6 0.8
v 0.6 0.6 0.7
v 0.7 0.6 0.7
v -0.9 1.5 0.8
v 1.2 1.5 0.8
v -0.8 1.5 0.7
v 1.1 1.5 0.7
v -0.8 1.5 -0.8
v 1.1 1.5 -0.8
v -0.9 1.5 -0.9
v 1.2 1.5 -0.9
v 0.6 1 0.8
v 0.7 1 0.8
v 0.6 1 0.7
v 0.7 1 0.7
v -0.9 1.6 0.8
v 1.2 1.6 0.8
v -0.7 1.6 0.6
v 1 1.6 0.6
v -0.5 1.6 0.4
v -0.4 1.6 0.4
v -0.4 1.6 0.3
v -0.4 1.6 0.2
v -0.4 1.6 -0.2
v -0.4 1.6 -0.3
v -0.5 1.6 -0.5
v -0.4 1.6 -0.5
v -0.7 1.6 -0.7
v 1 1.6 -0.7
v -0.9 1.6 -0.9
v 1.2 1.6 -0.9
v -0.7 1.7 0.6
v 1 1.7 0.6
v -0.2 1.7 0.5
v -0.1 1.7 0.5
v -0.5 1.7 0.4
v -0.4 1.7 0.4
v -0.2 1.7 0.4
v -0.1 1.7 0.4
v 0.1 1.7 0.4
v 0.2 1.7 0.4
v 0.7 1.7 0.4
v 0.8 1.7 0.4
v -0.4 1.7 0.3
v -0.3 1.7 0.3
v 0.1 1.7 0.3
v 0.2 1.7 0.3
v 0.4 1.7 0.3
v 0.5 1.7 0.3
v 0.7 1.7 0.3
v 0.8 1.7 0.3
v -0.4 1.7 0.2
v -0.3 1.7 0.2
v -0.1 1.7 0.2
v 0 1.7 0.2
v 0.4 1.7 0.2
v 0.5 1.7 0.2
v -0.1 1.7 0.1
v 0 1.7 0.1
v 0.4 1.7 0.1
v 0.5 1.7 0.1
v 0.6 1.7 0.1
v 0.7 1.7 0.1
v -0.2 1.7 0
v -0.1 1.7 0
v 0.2 1.7 0
v 0.3 1.7 0
v 0.4 1.7 0
v 0.5 1.7 0
v 0.6 1.7 0
v 0.7 1.7 0
v -0.2 1.7 -0.1
v -0.1 1.7 -0.1
v 0.2 1.7 -0.1
v 0.3 1.7 -0.1
v 0.4 1.7 -0.1
v 0.5 1.7 -0.1
v -0.4 1.7 -0.2
v -0.3 1.7 -0.2
v 0.1 1.7 -0.2
v 0.2 1.7 -0.2
v 0.4 1.7 -0.2
v 0.5 1.7 -0.2
v 0.7 1.7 -0.2
v 0.8 1.7 -0.2
v -0.4 1.7 -0.3
v -0.3 1.7 -0.3
v -0.2 1.7 -0.3
v -0.1 1.7 -0.3
v 0.1 1.7 -0.3
v 0.2 1.7 -0.3
v 0.5 1.7 -0.3
v 0.6 1.7 -0.3
v 0.7 1.7 -0.3
v 0.8 1.7 -0.3
v -0.2 1.7 -0.4
v -0.1 1.7 -0.4
v 0 1.7 -0.4
v 0.1 1.7 -0.4
v 0.5 1.7 -0.4
v 0.6 1.7 -0.4
v -0.5 1.7 -0.5
v -0.4 1.7 -0.5
v 0 1.7 -0.5
v 0.1 1.7 -0.5
v 0.3 1.7 -0.5
v 0.4 1.7 -0.5
v 0.3 1.7 -0.6
v 0.4 1.7 -0.6
v -0.7 1.7 -0.7
v 1 1.7 -0.7

# faces
f 3/3/1 2/3/1 1/3/1
f 4/3/1 2/3/1 3/3/1
f 7/3/1 6/3/1 5/3/1
f 8/3/1 6/3/1 7/3/1
f 11/5/1 10/5/1 9/5/1
f 12/5/1 10/5/1 11/5/1
f 19/5/1 14/5/1 13/5/1
f 20/4/1 15/4/1 14/4/1
f 20/5/1 14/5/1 19/5/1
f 21/5/1 16/5/1 15/5/1
f 21/4/1 15/4/1 20/4/1
f 22/4/1 17/4/1 16/4/1
f 22/5/1 16/5/1 21/5/1
f 23/5/1 18/5/1 17/5/1
f 23/4/1 17/4/1 22/4/1
f 24/5/1 18/5/1 23/5/1
f 27/1/1 26/1/1 25/1/1
f 28/1/1 26/1/1 27/1/1
f 29/5/2 30/5/2 31/5/2
f 31/5/2 30/5/2 32/5/2
f 33/1/2 34/1/2 35/1/2
f 35/1/2 34/1/2 36/1/2
f 37/5/2 38/5/2 39/5/2
f 39/5/2 38/5/2 40/5/2
f 41/3/2 42/3/2 43/3/2
f 43/3/2 42/3/2 44/3/2
f 45/3/2 46/3/2 47/3/2
f 47/3/2 46/3/2 48/3/2
f 53/1/3 52/1/3 51/1/3
f 54/1/3 52/1/3 53/1/3
f 55/3/3 50/3/3 49/3/3
f 56/3/3 50/3/3 55/3/3
f 59/3/3 58/3/3 57/3/3
f 60/3/3 58/3/3 59/3/3
f 61/1/3 60/1/3 59/1/3
f 62/1/3 60/1/3 61/1/3
f 63/2/3 62/2/3 61/2/3
f 64/2/3 62/2/3 63/2/3
f 65/2/3 63/2/3 61/2/3
f 66/2/3 62/2/3 64/2/3
f 67/1/3 61/1/3 59/1/3
f 67/2/3 66/2/3 65/2/3
f 67/2/3 65/2/3 61/2/3
f 68/2/3 62/2/3 66/2/3
f 68/2/3 66/2/3 67/2/3
f 68/1/3 60/1/3 62/1/3
f 69/3/3 59/3/3 57/3/3
f 69/1/3 67/1/3 59/1/3
f 69/1/3 68/1/3 67/1/3
f 70/1/3 60/1/3 68/1/3
f 70/1/3 68/1/3 69/1/3
f 70/3/3 58/3/3 60/3/3
f 71/3/3 69/3/3 57/3/3
f 71/3/3 70/3/3 69/3/3
f 72/3/3 58/3/3 70/3/3
f 72/3/3 70/3/3 71/3/3
f 75/5/3 74/5/3 73/5/3
f 76/5/3 74/5/3 75/5/3
f 79/5/3 78/5/3 77/5/3
f 80/5/3 78/5/3 79/5/3
f 81/5/4 82/5/4 83/5/4
f 83/5/4 82/5/4 84/5/4
f 85/5/4 86/5/4 87/5/4
f 87/5/4 86/5/4 88/5/4
f 89/3/4 90/3/4 91/3/4
f 91/3/4 90/3/4 92/3/4
f 93/3/4 94/3/4 95/3/4
f 95/3/4 94/3/4 96/3/4
f 99/3/5 98/3/5 97/3/5
f 100/3/5 98/3/5 99/3/5
f 101/3/5 99/3/5 97/3/5
f 101/2/5 100/2/5 99/2/5
f 102/3/5 98/3/5 100/3/5
f 102/2/5 100/2/5 101/2/5
f 103/3/5 101/3/5 97/3/5
f 103/3/5 102/3/5 101/3/5
f 104/3/5 98/3/5 102/3/5
f 104/3/5 102/3/5 103/3/5
f 107/1/5 106/1/5 105/1/5
f 108/1/5 106/1/5 107/1/5
f 111/3/5 110/3/5 109/3/5
f 112/3/5 110/3/5 111/3/5
f 113/3/5 111/3/5 109/3/5
f 114/3/5 110/3/5 112/3/5
f 115/3/5 113/3/5 109/3/5
f 115/3/5 114/3/5 113/3/5
f 116/3/5 110/3/5 114/3/5
f 116/3/5 114/3/5 115/3/5
f 117/1/6 118/1/6 119/1/6
f 119/1/6 118/1/6 120/1/6
f 121/3/6 122/3/6 123/3/6
f 123/3/6 122/3/6 124/3/6
f 125/2/6 126/2/6 127/2/6
f 125/2/6 127/2/6 128/2/6
f 125/2/6 128/2/6 129/2/6
f 125/2/6 129/2/6 130/2/6
f 125/2/6 130/2/6 131/2/6
f 131/2/6 130/2/6 132/2/6
f 121/3/6 123/3/6 133/3/6
f 124/3/6 122/3/6 134/3/6
f 121/3/6 133/3/6 135/3/6
f 133/3/6 134/3/6 135/3/6
f 134/3/6 122/3/6 136/3/6
f 135/3/6 134/3/6 136/3/6
f 137/5/6 138/5/6 139/5/6
f 139/5/6 138/5/6 140/5/6
f 137/5/6 139/5/6 141/5/6
f 141/5/6 139/5/6 142/5/6
f 139/4/6 140/4/6 143/4/6
f 142/5/6 139/5/6 143/5/6
f 140/5/6 138/5/6 144/5/6
f 143/4/6 140/4/6 144/4/6
f 144/5/6 138/5/6 145/5/6
f 145/5/6 138/5/6 146/5/6
f 146/5/6 138/5/6 147/5/6
f 147/5/6 138/5/6 148/5/6
f 142/5/6 143/5/6 149/5/6
f 143/5/6 144/5/6 149/5/6
f 144/5/6 145/5/6 149/5/6
f 149/5/6 145/5/6 150/5/6
f 145/4/6 146/4/6 151/4/6
f 150/5/6 145/5/6 151/5/6
f 146/5/6 147/5/6 152/5/6
f 151/4/6 146/4/6 152/4/6
f 152/5/6 147/5/6 153/5/6
f 153/5/6 147/5/6 154/5/6
f 147/4/6 148/4/6 155/4/6
f 154/5/6 147/5/6 155/5/6
f 148/5/6 138/5/6 156/5/6
f 155/4/6 148/4/6 156/4/6
f 149/4/6 150/4/6 157/4/6
f 150/5/6 151/5/6 158/5/6
f 157/4/6 150/4/6 158/4/6
f 151/5/6 152/5/6 158/5/6
f 152/5/6 153/5/6 158/5/6
f 158/5/6 153/5/6 159/5/6
f 159/5/6 153/5/6 160/5/6
f 153/4/6 154/4/6 161/4/6
f 160/5/6 153/5/6 161/5/6
f 154/5/6 155/5/6 162/5/6
f 161/4/6 154/4/6 162/4/6
f 155/5/6 156/5/6 162/5/6
f 159/4/6 160/4/6 163/4/6
f 158/5/6 159/5/6 163/5/6
f 157/5/6 158/5/6 163/5/6
f 160/5/6 161/5/6 164/5/6
f 163/4/6 160/4/6 164/4/6
f 161/5/6 162/5/6 164/5/6
f 164/5/6 162/5/6 165/5/6
f 162/5/6 156/5/6 166/5/6
f 165/5/6 162/5/6 166/5/6
f 166/5/6 156/5/6 167/5/6
f 167/5/6 156/5/6 168/5/6
f 157/5/6 163/5/6 169/5/6
f 164/5/6 165/5/6 169/5/6
f 163/5/6 164/5/6 169/5/6
f 169/5/6 165/5/6 170/5/6
f 170/5/6 165/5/6 171/5/6
f 171/5/6 165/5/6 172/5/6
f 165/4/6 166/4/6 173/4/6
f 172/5/6 165/5/6 173/5/6
f 166/5/6 167/5/6 174/5/6
f 173/4/6 166/4/6 174/4/6
f 167/4/6 168/4/6 175/4/6
f 174/5/6 167/5/6 175/5/6
f 168/5/6 156/5/6 176/5/6
f 175/4/6 168/4/6 176/4/6
f 157/5/6 169/5/6 177/5/6
f 169/4/6 170/4/6 177/4/6
f 170/5/6 171/5/6 178/5/6
f 177/4/6 170/4/6 178/4/6
f 171/4/6 172/4/6 179/4/6
f 178/5/6 171/5/6 179/5/6
f 174/5/6 175/5/6 180/5/6
f 179/4/6 172/4/6 180/4/6
f 173/5/6 174/5/6 180/5/6
f 172/5/6 173/5/6 180/5/6
f 175/5/6 176/5/6 180/5/6
f 180/5/6 176/5/6 181/5/6
f 181/5/6 176/5/6 182/5/6
f 178/5/6 179/5/6 183/5/6
f 157/5/6 177/5/6 183/5/6
f 177/5/6 178/5/6 183/5/6
f 180/5/6 181/5/6 183/5/6
f 179/5/6 180/5/6 183/5/6
f 183/5/6 181/5/6 184/5/6
f 184/5/6 181/5/6 185/5/6
f 185/5/6 181/5/6 186/5/6
f 181/4/6 182/4/6 187/4/6
f 186/5/6 181/5/6 187/5/6
f 182/5/6 176/5/6 188/5/6
f 187/4/6 182/4/6 188/4/6
f 176/5/6 156/5/6 189/5/6
f 188/5/6 176/5/6 189/5/6
f 156/5/6 138/5/6 190/5/6
f 189/5/6 156/5/6 190/5/6
f 183/4/6 184/4/6 191/4/6
f 184/5/6 185/5/6 192/5/6
f 191/4/6 184/4/6 192/4/6
f 192/5/6 185/5/6 193/5/6
f 193/5/6 185/5/6 194/5/6
f 185/4/6 186/4/6 195/4/6
f 194/5/6 185/5/6 195/5/6
f 186/5/6 187/5/6 196/5/6
f 195/4/6 186/4/6 196/4/6
f 188/5/6 189/5/6 196/5/6
f 187/5/6 188/5/6 196/5/6
f 196/5/6 189/5/6 197/5/6
f 197/5/6 189/5/6 198/5/6
f 189/4/6 190/4/6 199/4/6
f 198/5/6 189/5/6 199/5/6
f 190/5/6 138/5/6 200/5/6
f 199/4/6 190/4/6 200/4/6
f 193/4/6 194/4/6 201/4/6
f 192/5/6 193/5/6 201/5/6
f 191/5/6 192/5/6 201/5/6
f 194/5/6 195/5/6 202/5/6
f 201/4/6 194/4/6 202/4/6
f 196/5/6 197/5/6 202/5/6
f 195/5/6 196/5/6 202/5/6
f 202/5/6 197/5/6 203/5/6
f 203/5/6 197/5/6 204/5/6
f 197/4/6 198/4/6 205/4/6
f 204/5/6 197/5/6 205/5/6
f 199/5/6 200/5/6 206/5/6
f 205/4/6 198/4/6 206/4/6
f 198/5/6 199/5/6 206/5/6
f 137/5/6 141/5/6 207/5/6
f 191/5/6 201/5/6 208/5/6
f 202/5/6 203/5/6 208/5/6
f 201/5/6 202/5/6 208/5/6
f 203/4/6 204/4/6 209/4/6
f 208/5/6 203/5/6 209/5/6
f 204/5/6 205/5/6 210/5/6
f 209/4/6 204/4/6 210/4/6
f 205/5/6 206/5/6 210/5/6
f 210/5/6 206/5/6 211/5/6
f 211/5/6 206/5/6 212/5/6
f 208/5/6 209/5/6 213/5/6
f 207/5/6 208/5/6 213/5/6
f 211/4/6 212/4/6 213/4/6
f 210/5/6 211/5/6 213/5/6
f 209/5/6 210/5/6 213/5/6
f 212/5/6 206/5/6 214/5/6
f 213/4/6 212/4/6 214/4/6
f 137/5/6 207/5/6 215/5/6
f 207/5/6 213/5/6 215/5/6
f 213/5/6 214/5/6 215/5/6
f 214/5/6 206/5/6 216/5/6
f 215/5/6 214/5/6 216/5/6
f 200/5/6 138/5/6 216/5/6
f 206/5/6 200/5/6 216/5/6
