# MagicaVoxel @ Ephtracy

# group
o 

# material
mtllib FishAndChips.mtl
usemtl palette

# normals
vn -1 0 0
vn 1 0 0
vn 0 0 1
vn 0 0 -1
vn 0 -1 0
vn 0 1 0

# texcoords
vt 0.0136719 0.5
vt 0.0449219 0.5
vt 0.0878906 0.5
vt 0.958984 0.5
vt 0.978516 0.5
vt 0.986328 0.5

# verts
v -0.9 0.1 0.9
v -0.9 0.1 -1.1
v -0.9 0.3 0.9
v -0.9 0.3 -1.1
v -0.7 0.2 0.3
v -0.7 0.2 0.2
v -0.7 0.2 -0.3
v -0.7 0.2 -0.4
v -0.7 0.2 -0.6
v -0.7 0.2 -0.7
v -0.7 0.2 -0.8
v -0.7 0.2 -0.9
v -0.7 0.3 0.3
v -0.7 0.3 0.2
v -0.7 0.3 -0.3
v -0.7 0.3 -0.4
v -0.7 0.3 -0.6
v -0.7 0.3 -0.7
v -0.7 0.3 -0.8
v -0.7 0.3 -0.9
v -0.6 0 0.6
v -0.6 0 -0.8
v -0.6 0.1 0.6
v -0.6 0.1 -0.8
v -0.6 0.2 0.2
v -0.6 0.2 0.1
v -0.6 0.2 -0.2
v -0.6 0.2 -0.3
v -0.6 0.3 0.2
v -0.6 0.3 0.1
v -0.6 0.3 -0.2
v -0.6 0.3 -0.3
v -0.5 0.2 0.6
v -0.5 0.2 0.2
v -0.5 0.2 0.1
v -0.5 0.2 0
v -0.5 0.2 -0.1
v -0.5 0.2 -0.2
v -0.5 0.2 -0.4
v -0.5 0.2 -0.5
v -0.5 0.3 0.6
v -0.5 0.3 0.2
v -0.5 0.3 0.1
v -0.5 0.3 0
v -0.5 0.3 -0.1
v -0.5 0.3 -0.2
v -0.5 0.3 -0.4
v -0.5 0.3 -0.5
v -0.3 0.2 0.7
v -0.3 0.2 -0.1
v -0.3 0.4 0.7
v -0.3 0.4 -0.1
v -0.2 0.2 -0.1
v -0.2 0.2 -0.2
v -0.2 0.4 -0.1
v -0.2 0.4 -0.2
v -0.1 0.2 -0.2
v -0.1 0.2 -0.3
v -0.1 0.4 -0.2
v -0.1 0.4 -0.3
v 0 0.2 -0.3
v 0 0.2 -0.4
v 0 0.2 -0.5
v 0 0.2 -0.9
v 0 0.3 -0.5
v 0 0.3 -0.9
v 0 0.4 -0.3
v 0 0.4 -0.4
v 0.1 0.2 -0.4
v 0.1 0.2 -0.5
v 0.1 0.3 -0.5
v 0.1 0.4 -0.4
v 0.1 0.4 -0.5
v 0.3 0.2 -0.5
v 0.3 0.2 -0.6
v 0.3 0.2 -0.7
v 0.3 0.2 -0.8
v 0.3 0.3 -0.7
v 0.3 0.3 -0.8
v 0.3 0.4 -0.5
v 0.3 0.4 -0.6
v 0.5 0.2 -0.9
v 0.5 0.2 -1
v 0.5 0.3 -0.9
v 0.5 0.3 -1
v 0.6 0.2 0
v 0.6 0.2 -0.1
v 0.6 0.4 0
v 0.6 0.4 -0.1
v 0.7 0.2 -0.1
v 0.7 0.2 -0.2
v 0.7 0.4 -0.1
v 0.7 0.4 -0.2
v 0.8 0.2 -0.2
v 0.8 0.2 -0.3
v 0.8 0.4 -0.2
v 0.8 0.4 -0.3
v 0.9 0.2 -0.4
v 0.9 0.2 -0.8
v 0.9 0.3 -0.4
v 0.9 0.3 -0.8
v 1 0.2 0.8
v 1 0.2 0.1
v 1 0.2 -0.3
v 1 0.2 -0.4
v 1 0.2 -0.8
v 1 0.2 -1
v 1 0.3 0.8
v 1 0.3 0.1
v 1 0.3 -0.3
v 1 0.3 -0.4
v 1 0.3 -0.8
v 1 0.3 -1
v -0.8 0.2 0.8
v -0.8 0.2 0.4
v -0.8 0.2 0.3
v -0.8 0.2 0.1
v -0.8 0.2 -0.2
v -0.8 0.2 -0.4
v -0.8 0.2 -0.5
v -0.8 0.2 -1
v -0.8 0.3 0.8
v -0.8 0.3 0.4
v -0.8 0.3 0.3
v -0.8 0.3 0.1
v -0.8 0.3 -0.2
v -0.8 0.3 -0.4
v -0.8 0.3 -0.5
v -0.8 0.3 -1
v -0.7 0.2 0.4
v -0.7 0.2 0.3
v -0.7 0.2 0.1
v -0.7 0.2 -0.2
v -0.7 0.2 -0.4
v -0.7 0.2 -0.5
v -0.7 0.3 0.4
v -0.7 0.3 0.3
v -0.7 0.3 0.1
v -0.7 0.3 -0.2
v -0.7 0.3 -0.4
v -0.7 0.3 -0.5
v -0.6 0.2 0.3
v -0.6 0.2 0.2
v -0.6 0.2 -0.3
v -0.6 0.2 -0.4
v -0.6 0.3 0.3
v -0.6 0.3 0.2
v -0.6 0.3 -0.3
v -0.6 0.3 -0.4
v -0.5 0.2 0.2
v -0.5 0.2 0.1
v -0.5 0.2 -0.2
v -0.5 0.2 -0.3
v -0.5 0.3 0.2
v -0.5 0.3 0.1
v -0.5 0.3 -0.2
v -0.5 0.3 -0.3
v -0.4 0.2 0.6
v -0.4 0.2 0.2
v -0.4 0.2 0.1
v -0.4 0.2 0
v -0.4 0.2 -0.1
v -0.4 0.2 -0.2
v -0.4 0.3 0.6
v -0.4 0.3 0.2
v -0.4 0.3 0.1
v -0.4 0.3 0
v -0.4 0.3 -0.1
v -0.4 0.3 -0.2
v -0.3 0.2 -0.6
v -0.3 0.2 -0.7
v -0.3 0.3 -0.6
v -0.3 0.3 -0.7
v -0.2 0.2 -0.8
v -0.2 0.2 -0.9
v -0.2 0.3 -0.8
v -0.2 0.3 -0.9
v -0.1 0.2 -0.4
v -0.1 0.2 -0.5
v -0.1 0.3 -0.4
v -0.1 0.3 -0.5
v 0.1 0.2 -0.5
v 0.1 0.2 -0.9
v 0.1 0.3 -0.5
v 0.1 0.3 -0.9
v 0.4 0.2 0
v 0.4 0.2 -0.2
v 0.4 0.4 0
v 0.4 0.4 -0.2
v 0.5 0.2 0.7
v 0.5 0.2 0.6
v 0.5 0.2 -0.2
v 0.5 0.2 -0.3
v 0.5 0.4 0.7
v 0.5 0.4 0.6
v 0.5 0.4 -0.2
v 0.5 0.4 -0.3
v 0.6 0.2 0.6
v 0.6 0.2 0.5
v 0.6 0.2 -0.3
v 0.6 0.2 -0.4
v 0.6 0.4 0.6
v 0.6 0.4 0.5
v 0.6 0.4 -0.3
v 0.6 0.4 -0.4
v 0.7 0.2 0.5
v 0.7 0.2 0.4
v 0.7 0.2 -0.4
v 0.7 0.2 -0.5
v 0.7 0.2 -0.6
v 0.7 0.2 -0.7
v 0.7 0.2 -0.8
v 0.7 0.3 -0.7
v 0.7 0.3 -0.8
v 0.7 0.4 0.5
v 0.7 0.4 0.4
v 0.7 0.4 -0.4
v 0.7 0.4 -0.5
v 0.7 0.4 -0.6
v 0.8 0 0.6
v 0.8 0 -0.8
v 0.8 0.1 0.6
v 0.8 0.1 -0.8
v 0.8 0.2 0.4
v 0.8 0.2 0.3
v 0.8 0.4 0.4
v 0.8 0.4 0.3
v 0.9 0.2 0.3
v 0.9 0.2 0.1
v 0.9 0.2 -0.9
v 0.9 0.2 -1
v 0.9 0.3 -0.9
v 0.9 0.3 -1
v 0.9 0.4 0.3
v 0.9 0.4 0.1
v 1 0.3 0.1
v 1 0.3 -0.3
v 1 0.4 0.1
v 1 0.4 -0.3
v 1.1 0.1 0.9
v 1.1 0.1 -1.1
v 1.1 0.3 0.9
v 1.1 0.3 -1.1
v -0.9 0.1 0.9
v -0.9 0.3 0.9
v 1.1 0.1 0.9
v 1.1 0.3 0.9
v -0.3 0.2 0.7
v -0.3 0.4 0.7
v 0.5 0.2 0.7
v 0.5 0.4 0.7
v -0.6 0 0.6
v -0.6 0.1 0.6
v -0.5 0.2 0.6
v -0.5 0.3 0.6
v -0.4 0.2 0.6
v -0.4 0.3 0.6
v 0.5 0.2 0.6
v 0.5 0.4 0.6
v 0.6 0.2 0.6
v 0.6 0.4 0.6
v 0.8 0 0.6
v 0.8 0.1 0.6
v 0.6 0.2 0.5
v 0.6 0.4 0.5
v 0.7 0.2 0.5
v 0.7 0.4 0.5
v -0.8 0.2 0.4
v -0.8 0.3 0.4
v -0.7 0.2 0.4
v -0.7 0.3 0.4
v 0.7 0.2 0.4
v 0.7 0.4 0.4
v 0.8 0.2 0.4
v 0.8 0.4 0.4
v -0.7 0.2 0.3
v -0.7 0.3 0.3
v -0.6 0.2 0.3
v -0.6 0.3 0.3
v 0.8 0.2 0.3
v 0.8 0.4 0.3
v 0.9 0.2 0.3
v 0.9 0.4 0.3
v -0.6 0.2 0.2
v -0.6 0.3 0.2
v -0.5 0.2 0.2
v -0.5 0.3 0.2
v -0.8 0.2 0.1
v -0.8 0.3 0.1
v -0.7 0.2 0.1
v -0.7 0.3 0.1
v -0.5 0.2 0.1
v -0.5 0.3 0.1
v -0.4 0.2 0.1
v -0.4 0.3 0.1
v 0.9 0.2 0.1
v 0.9 0.4 0.1
v 1 0.2 0.1
v 1 0.3 0.1
v 1 0.4 0.1
v -0.5 0.2 -0.1
v -0.5 0.3 -0.1
v -0.4 0.2 -0.1
v -0.4 0.3 -0.1
v -0.6 0.2 -0.2
v -0.6 0.3 -0.2
v -0.5 0.2 -0.2
v -0.5 0.3 -0.2
v 0.4 0.2 -0.2
v 0.4 0.4 -0.2
v 0.5 0.2 -0.2
v 0.5 0.4 -0.2
v -0.7 0.2 -0.3
v -0.7 0.3 -0.3
v -0.6 0.2 -0.3
v -0.6 0.3 -0.3
v 0.5 0.2 -0.3
v 0.5 0.4 -0.3
v 0.6 0.2 -0.3
v 0.6 0.4 -0.3
v -0.8 0.2 -0.4
v -0.8 0.3 -0.4
v -0.7 0.2 -0.4
v -0.7 0.3 -0.4
v -0.5 0.2 -0.4
v -0.5 0.3 -0.4
v -0.1 0.2 -0.4
v -0.1 0.3 -0.4
v 0.6 0.2 -0.4
v 0.6 0.4 -0.4
v 0.7 0.2 -0.4
v 0.7 0.4 -0.4
v 0.9 0.2 -0.4
v 0.9 0.3 -0.4
v 1 0.2 -0.4
v 1 0.3 -0.4
v 0 0.2 -0.5
v 0 0.3 -0.5
v 0.1 0.2 -0.5
v 0.1 0.3 -0.5
v -0.7 0.2 -0.6
v -0.7 0.3 -0.6
v -0.3 0.2 -0.6
v -0.3 0.3 -0.6
v 0.3 0.2 -0.7
v 0.3 0.3 -0.7
v 0.7 0.2 -0.7
v 0.7 0.3 -0.7
v -0.7 0.2 -0.8
v -0.7 0.3 -0.8
v -0.2 0.2 -0.8
v -0.2 0.3 -0.8
v 0.5 0.2 -0.9
v 0.5 0.3 -0.9
v 0.9 0.2 -0.9
v 0.9 0.3 -0.9
v -0.8 0.2 -1
v -0.8 0.3 -1
v 0.5 0.2 -1
v 0.5 0.3 -1
v 0.9 0.2 -1
v 0.9 0.3 -1
v 1 0.2 -1
v 1 0.3 -1
v -0.8 0.2 0.8
v -0.8 0.3 0.8
v 1 0.2 0.8
v 1 0.3 0.8
v -0.8 0.2 0.3
v -0.8 0.3 0.3
v -0.7 0.2 0.3
v -0.7 0.3 0.3
v -0.7 0.2 0.2
v -0.7 0.3 0.2
v -0.6 0.2 0.2
v -0.6 0.3 0.2
v -0.5 0.2 0.2
v -0.5 0.3 0.2
v -0.4 0.2 0.2
v -0.4 0.3 0.2
v -0.6 0.2 0.1
v -0.6 0.3 0.1
v -0.5 0.2 0.1
v -0.5 0.3 0.1
v -0.5 0.2 0
v -0.5 0.3 0
v -0.4 0.2 0
v -0.4 0.3 0
v 0.4 0.2 0
v 0.4 0.4 0
v 0.6 0.2 0
v 0.6 0.4 0
v -0.3 0.2 -0.1
v -0.3 0.4 -0.1
v -0.2 0.2 -0.1
v -0.2 0.4 -0.1
v 0.6 0.2 -0.1
v 0.6 0.4 -0.1
v 0.7 0.2 -0.1
v 0.7 0.4 -0.1
v -0.8 0.2 -0.2
v -0.8 0.3 -0.2
v -0.7 0.2 -0.2
v -0.7 0.3 -0.2
v -0.5 0.2 -0.2
v -0.5 0.3 -0.2
v -0.4 0.2 -0.2
v -0.4 0.3 -0.2
v -0.2 0.2 -0.2
v -0.2 0.4 -0.2
v -0.1 0.2 -0.2
v -0.1 0.4 -0.2
v 0.7 0.2 -0.2
v 0.7 0.4 -0.2
v 0.8 0.2 -0.2
v 0.8 0.4 -0.2
v -0.6 0.2 -0.3
v -0.6 0.3 -0.3
v -0.5 0.2 -0.3
v -0.5 0.3 -0.3
v -0.1 0.2 -0.3
v -0.1 0.4 -0.3
v 0 0.2 -0.3
v 0 0.4 -0.3
v 0.8 0.2 -0.3
v 0.8 0.4 -0.3
v 0.9 0.2 -0.3
v 0.9 0.4 -0.3
v 1 0.2 -0.3
v 1 0.3 -0.3
v 1 0.4 -0.3
v -0.7 0.2 -0.4
v -0.7 0.3 -0.4
v -0.6 0.2 -0.4
v -0.6 0.3 -0.4
v 0 0.2 -0.4
v 0 0.4 -0.4
v 0.1 0.2 -0.4
v 0.1 0.4 -0.4
v -0.8 0.2 -0.5
v -0.8 0.3 -0.5
v -0.7 0.2 -0.5
v -0.7 0.3 -0.5
v -0.5 0.2 -0.5
v -0.5 0.3 -0.5
v -0.1 0.2 -0.5
v -0.1 0.3 -0.5
v 0.1 0.2 -0.5
v 0.1 0.3 -0.5
v 0.1 0.4 -0.5
v 0.3 0.2 -0.5
v 0.3 0.4 -0.5
v 0.3 0.2 -0.6
v 0.3 0.4 -0.6
v 0.7 0.2 -0.6
v 0.7 0.4 -0.6
v -0.7 0.2 -0.7
v -0.7 0.3 -0.7
v -0.3 0.2 -0.7
v -0.3 0.3 -0.7
v -0.6 0 -0.8
v -0.6 0.1 -0.8
v 0.3 0.2 -0.8
v 0.3 0.3 -0.8
v 0.7 0.2 -0.8
v 0.7 0.3 -0.8
v 0.8 0 -0.8
v 0.8 0.1 -0.8
v 0.9 0.2 -0.8
v 0.9 0.3 -0.8
v 1 0.2 -0.8
v 1 0.3 -0.8
v -0.7 0.2 -0.9
v -0.7 0.3 -0.9
v -0.2 0.2 -0.9
v -0.2 0.3 -0.9
v 0 0.2 -0.9
v 0 0.3 -0.9
v 0.1 0.2 -0.9
v 0.1 0.3 -0.9
v -0.9 0.1 -1.1
v -0.9 0.3 -1.1
v 1.1 0.1 -1.1
v 1.1 0.3 -1.1
v -0.6 0 0.6
v 0.8 0 0.6
v -0.6 0 -0.8
v 0.8 0 -0.8
v -0.9 0.1 0.9
v 1.1 0.1 0.9
v -0.6 0.1 0.6
v 0.8 0.1 0.6
v -0.6 0.1 -0.8
v 0.8 0.1 -0.8
v -0.9 0.1 -1.1
v 1.1 0.1 -1.1
v -0.8 0.2 0.8
v 1 0.2 0.8
v -0.3 0.2 0.7
v 0.5 0.2 0.7
v -0.5 0.2 0.6
v -0.4 0.2 0.6
v 0.5 0.2 0.6
v 0.6 0.2 0.6
v 0.6 0.2 0.5
v 0.7 0.2 0.5
v -0.8 0.2 0.4
v -0.7 0.2 0.4
v 0.7 0.2 0.4
v 0.8 0.2 0.4
v -0.8 0.2 0.3
v -0.7 0.2 0.3
v -0.6 0.2 0.3
v 0.8 0.2 0.3
v 0.9 0.2 0.3
v -0.7 0.2 0.2
v -0.6 0.2 0.2
v -0.5 0.2 0.2
v -0.4 0.2 0.2
v -0.8 0.2 0.1
v -0.7 0.2 0.1
v -0.6 0.2 0.1
v -0.5 0.2 0.1
v -0.4 0.2 0.1
v 0.9 0.2 0.1
v 1 0.2 0.1
v -0.5 0.2 0
v -0.4 0.2 0
v 0.4 0.2 0
v 0.6 0.2 0
v -0.5 0.2 -0.1
v -0.4 0.2 -0.1
v -0.3 0.2 -0.1
v -0.2 0.2 -0.1
v 0.6 0.2 -0.1
v 0.7 0.2 -0.1
v -0.8 0.2 -0.2
v -0.7 0.2 -0.2
v -0.6 0.2 -0.2
v -0.5 0.2 -0.2
v -0.4 0.2 -0.2
v -0.2 0.2 -0.2
v -0.1 0.2 -0.2
v 0.4 0.2 -0.2
v 0.5 0.2 -0.2
v 0.7 0.2 -0.2
v 0.8 0.2 -0.2
v -0.7 0.2 -0.3
v -0.6 0.2 -0.3
v -0.5 0.2 -0.3
v -0.1 0.2 -0.3
v 0 0.2 -0.3
v 0.5 0.2 -0.3
v 0.6 0.2 -0.3
v 0.8 0.2 -0.3
v 0.9 0.2 -0.3
v 1 0.2 -0.3
v -0.8 0.2 -0.4
v -0.7 0.2 -0.4
v -0.6 0.2 -0.4
v -0.5 0.2 -0.4
v -0.1 0.2 -0.4
v 0 0.2 -0.4
v 0.1 0.2 -0.4
v 0.6 0.2 -0.4
v 0.7 0.2 -0.4
v 0.9 0.2 -0.4
v 1 0.2 -0.4
v -0.8 0.2 -0.5
v -0.7 0.2 -0.5
v -0.5 0.2 -0.5
v -0.1 0.2 -0.5
v 0 0.2 -0.5
v 0.1 0.2 -0.5
v 0.3 0.2 -0.5
v 0.7 0.2 -0.5
v -0.7 0.2 -0.6
v -0.3 0.2 -0.6
v 0.3 0.2 -0.6
v 0.7 0.2 -0.6
v -0.7 0.2 -0.7
v -0.3 0.2 -0.7
v 0.3 0.2 -0.7
v 0.7 0.2 -0.7
v -0.7 0.2 -0.8
v -0.2 0.2 -0.8
v 0.3 0.2 -0.8
v 0.7 0.2 -0.8
v 0.9 0.2 -0.8
v 1 0.2 -0.8
v -0.7 0.2 -0.9
v -0.2 0.2 -0.9
v 0 0.2 -0.9
v 0.1 0.2 -0.9
v 0.5 0.2 -0.9
v 0.9 0.2 -0.9
v -0.8 0.2 -1
v 0.5 0.2 -1
v 0.9 0.2 -1
v 1 0.2 -1
v -0.9 0.3 0.9
v 1.1 0.3 0.9
v -0.8 0.3 0.8
v 1 0.3 0.8
v -0.5 0.3 0.6
v -0.4 0.3 0.6
v -0.8 0.3 0.4
v -0.7 0.3 0.4
v -0.8 0.3 0.3
v -0.7 0.3 0.3
v -0.6 0.3 0.3
v -0.7 0.3 0.2
v -0.6 0.3 0.2
v -0.5 0.3 0.2
v -0.4 0.3 0.2
v -0.8 0.3 0.1
v -0.7 0.3 0.1
v -0.6 0.3 0.1
v -0.5 0.3 0.1
v -0.4 0.3 0.1
v 1 0.3 0.1
v -0.5 0.3 0
v -0.4 0.3 0
v -0.5 0.3 -0.1
v -0.4 0.3 -0.1
v -0.8 0.3 -0.2
v -0.7 0.3 -0.2
v -0.6 0.3 -0.2
v -0.5 0.3 -0.2
v -0.4 0.3 -0.2
v -0.7 0.3 -0.3
v -0.6 0.3 -0.3
v -0.5 0.3 -0.3
v 1 0.3 -0.3
v -0.8 0.3 -0.4
v -0.7 0.3 -0.4
v -0.6 0.3 -0.4
v -0.5 0.3 -0.4
v -0.1 0.3 -0.4
v 0.9 0.3 -0.4
v 1 0.3 -0.4
v -0.8 0.3 -0.5
v -0.7 0.3 -0.5
v -0.5 0.3 -0.5
v -0.1 0.3 -0.5
v 0 0.3 -0.5
v 0.1 0.3 -0.5
v -0.7 0.3 -0.6
v -0.3 0.3 -0.6
v -0.7 0.3 -0.7
v -0.3 0.3 -0.7
v 0.3 0.3 -0.7
v 0.7 0.3 -0.7
v -0.7 0.3 -0.8
v -0.2 0.3 -0.8
v 0.3 0.3 -0.8
v 0.7 0.3 -0.8
v 0.9 0.3 -0.8
v 1 0.3 -0.8
v -0.7 0.3 -0.9
v -0.2 0.3 -0.9
v 0 0.3 -0.9
v 0.1 0.3 -0.9
v 0.5 0.3 -0.9
v 0.9 0.3 -0.9
v -0.8 0.3 -1
v 0.5 0.3 -1
v 0.9 0.3 -1
v 1 0.3 -1
v -0.9 0.3 -1.1
v 1.1 0.3 -1.1
v -0.3 0.4 0.7
v 0.5 0.4 0.7
v -0.2 0.4 0.6
v 0.4 0.4 0.6
v 0.5 0.4 0.6
v 0.6 0.4 0.6
v 0.4 0.4 0.5
v 0.5 0.4 0.5
v 0.6 0.4 0.5
v 0.7 0.4 0.5
v 0.5 0.4 0.4
v 0.6 0.4 0.4
v 0.7 0.4 0.4
v 0.8 0.4 0.4
v 0.6 0.4 0.3
v 0.7 0.4 0.3
v 0.8 0.4 0.3
v 0.9 0.4 0.3
v 0.2 0.4 0.2
v 0.3 0.4 0.2
v 0.7 0.4 0.2
v 0.8 0.4 0.2
v 0.2 0.4 0.1
v 0.3 0.4 0.1
v 0.4 0.4 0.1
v 0.9 0.4 0.1
v 1 0.4 0.1
v -0.2 0.4 0
v -0.1 0.4 0
v 0.3 0.4 0
v 0.4 0.4 0
v 0.6 0.4 0
v 0.8 0.4 0
v 0.9 0.4 0
v -0.3 0.4 -0.1
v -0.2 0.4 -0.1
v -0.1 0.4 -0.1
v 0 0.4 -0.1
v 0.6 0.4 -0.1
v 0.7 0.4 -0.1
v -0.2 0.4 -0.2
v -0.1 0.4 -0.2
v 0 0.4 -0.2
v 0.1 0.4 -0.2
v 0.4 0.4 -0.2
v 0.5 0.4 -0.2
v 0.7 0.4 -0.2
v 0.8 0.4 -0.2
v -0.1 0.4 -0.3
v 0 0.4 -0.3
v 0.1 0.4 -0.3
v 0.2 0.4 -0.3
v 0.5 0.4 -0.3
v 0.6 0.4 -0.3
v 0.8 0.4 -0.3
v 0.9 0.4 -0.3
v 1 0.4 -0.3
v 0 0.4 -0.4
v 0.1 0.4 -0.4
v 0.2 0.4 -0.4
v 0.4 0.4 -0.4
v 0.6 0.4 -0.4
v 0.7 0.4 -0.4
v 0.1 0.4 -0.5
v 0.3 0.4 -0.5
v 0.4 0.4 -0.5
v 0.7 0.4 -0.5
v 0.3 0.4 -0.6
v 0.7 0.4 -0.6

# faces
f 3/4/1 2/4/1 1/4/1
f 4/4/1 2/4/1 3/4/1
f 13/2/1 6/2/1 5/2/1
f 14/2/1 6/2/1 13/2/1
f 15/2/1 8/2/1 7/2/1
f 16/2/1 8/2/1 15/2/1
f 17/2/1 10/2/1 9/2/1
f 18/2/1 10/2/1 17/2/1
f 19/2/1 12/2/1 11/2/1
f 20/2/1 12/2/1 19/2/1
f 23/4/1 22/4/1 21/4/1
f 24/4/1 22/4/1 23/4/1
f 29/2/1 26/2/1 25/2/1
f 30/2/1 26/2/1 29/2/1
f 31/2/1 28/2/1 27/2/1
f 32/2/1 28/2/1 31/2/1
f 41/2/1 34/2/1 33/2/1
f 42/2/1 34/2/1 41/2/1
f 43/2/1 36/2/1 35/2/1
f 44/2/1 36/2/1 43/2/1
f 45/2/1 38/2/1 37/2/1
f 46/2/1 38/2/1 45/2/1
f 47/2/1 40/2/1 39/2/1
f 48/2/1 40/2/1 47/2/1
f 51/6/1 50/6/1 49/6/1
f 52/6/1 50/6/1 51/6/1
f 55/6/1 54/6/1 53/6/1
f 56/6/1 54/6/1 55/6/1
f 59/6/1 58/6/1 57/6/1
f 60/6/1 58/6/1 59/6/1
f 65/2/1 64/2/1 63/2/1
f 66/2/1 64/2/1 65/2/1
f 67/6/1 62/6/1 61/6/1
f 68/6/1 62/6/1 67/6/1
f 71/6/1 70/6/1 69/6/1
f 72/6/1 71/6/1 69/6/1
f 73/6/1 71/6/1 72/6/1
f 78/2/1 77/2/1 76/2/1
f 79/2/1 77/2/1 78/2/1
f 80/6/1 75/6/1 74/6/1
f 81/6/1 75/6/1 80/6/1
f 84/2/1 83/2/1 82/2/1
f 85/2/1 83/2/1 84/2/1
f 88/3/1 87/3/1 86/3/1
f 89/3/1 87/3/1 88/3/1
f 92/3/1 91/3/1 90/3/1
f 93/3/1 91/3/1 92/3/1
f 96/3/1 95/3/1 94/3/1
f 97/3/1 95/3/1 96/3/1
f 100/2/1 99/2/1 98/2/1
f 101/2/1 99/2/1 100/2/1
f 108/4/1 103/4/1 102/4/1
f 109/4/1 103/4/1 108/4/1
f 110/4/1 105/4/1 104/4/1
f 111/4/1 105/4/1 110/4/1
f 112/4/1 107/4/1 106/4/1
f 113/4/1 107/4/1 112/4/1
f 114/4/2 115/4/2 122/4/2
f 122/4/2 115/4/2 123/4/2
f 116/4/2 117/4/2 124/4/2
f 124/4/2 117/4/2 125/4/2
f 118/4/2 119/4/2 126/4/2
f 126/4/2 119/4/2 127/4/2
f 120/4/2 121/4/2 128/4/2
f 128/4/2 121/4/2 129/4/2
f 130/2/2 131/2/2 136/2/2
f 136/2/2 131/2/2 137/2/2
f 132/2/2 133/2/2 138/2/2
f 138/2/2 133/2/2 139/2/2
f 134/2/2 135/2/2 140/2/2
f 140/2/2 135/2/2 141/2/2
f 142/2/2 143/2/2 146/2/2
f 146/2/2 143/2/2 147/2/2
f 144/2/2 145/2/2 148/2/2
f 148/2/2 145/2/2 149/2/2
f 150/2/2 151/2/2 154/2/2
f 154/2/2 151/2/2 155/2/2
f 152/2/2 153/2/2 156/2/2
f 156/2/2 153/2/2 157/2/2
f 158/2/2 159/2/2 164/2/2
f 164/2/2 159/2/2 165/2/2
f 160/2/2 161/2/2 166/2/2
f 166/2/2 161/2/2 167/2/2
f 162/2/2 163/2/2 168/2/2
f 168/2/2 163/2/2 169/2/2
f 170/2/2 171/2/2 172/2/2
f 172/2/2 171/2/2 173/2/2
f 174/2/2 175/2/2 176/2/2
f 176/2/2 175/2/2 177/2/2
f 178/2/2 179/2/2 180/2/2
f 180/2/2 179/2/2 181/2/2
f 182/2/2 183/2/2 184/2/2
f 184/2/2 183/2/2 185/2/2
f 186/3/2 187/3/2 188/3/2
f 188/3/2 187/3/2 189/3/2
f 190/6/2 191/6/2 194/6/2
f 194/6/2 191/6/2 195/6/2
f 192/3/2 193/3/2 196/3/2
f 196/3/2 193/3/2 197/3/2
f 198/6/2 199/6/2 202/6/2
f 202/6/2 199/6/2 203/6/2
f 200/3/2 201/3/2 204/3/2
f 204/3/2 201/3/2 205/3/2
f 211/2/2 212/2/2 213/2/2
f 213/2/2 212/2/2 214/2/2
f 206/6/2 207/6/2 215/6/2
f 215/6/2 207/6/2 216/6/2
f 208/3/2 209/3/2 217/3/2
f 209/6/2 210/6/2 218/6/2
f 217/3/2 209/3/2 218/3/2
f 218/6/2 210/6/2 219/6/2
f 220/4/2 221/4/2 222/4/2
f 222/4/2 221/4/2 223/4/2
f 224/6/2 225/6/2 226/6/2
f 226/6/2 225/6/2 227/6/2
f 230/2/2 231/2/2 232/2/2
f 232/2/2 231/2/2 233/2/2
f 228/6/2 229/6/2 234/6/2
f 234/6/2 229/6/2 235/6/2
f 236/6/2 237/6/2 238/6/2
f 238/6/2 237/6/2 239/6/2
f 240/4/2 241/4/2 242/4/2
f 242/4/2 241/4/2 243/4/2
f 246/4/3 245/4/3 244/4/3
f 247/4/3 245/4/3 246/4/3
f 250/6/3 249/6/3 248/6/3
f 251/6/3 249/6/3 250/6/3
f 256/2/3 255/2/3 254/2/3
f 257/2/3 255/2/3 256/2/3
f 260/6/3 259/6/3 258/6/3
f 261/6/3 259/6/3 260/6/3
f 262/4/3 253/4/3 252/4/3
f 263/4/3 253/4/3 262/4/3
f 266/6/3 265/6/3 264/6/3
f 267/6/3 265/6/3 266/6/3
f 270/2/3 269/2/3 268/2/3
f 271/2/3 269/2/3 270/2/3
f 274/6/3 273/6/3 272/6/3
f 275/6/3 273/6/3 274/6/3
f 278/2/3 277/2/3 276/2/3
f 279/2/3 277/2/3 278/2/3
f 282/6/3 281/6/3 280/6/3
f 283/6/3 281/6/3 282/6/3
f 286/2/3 285/2/3 284/2/3
f 287/2/3 285/2/3 286/2/3
f 290/2/3 289/2/3 288/2/3
f 291/2/3 289/2/3 290/2/3
f 294/2/3 293/2/3 292/2/3
f 295/2/3 293/2/3 294/2/3
f 298/6/3 297/6/3 296/6/3
f 299/6/3 297/6/3 298/6/3
f 300/6/3 297/6/3 299/6/3
f 303/2/3 302/2/3 301/2/3
f 304/2/3 302/2/3 303/2/3
f 307/2/3 306/2/3 305/2/3
f 308/2/3 306/2/3 307/2/3
f 311/3/3 310/3/3 309/3/3
f 312/3/3 310/3/3 311/3/3
f 315/2/3 314/2/3 313/2/3
f 316/2/3 314/2/3 315/2/3
f 319/3/3 318/3/3 317/3/3
f 320/3/3 318/3/3 319/3/3
f 323/2/3 322/2/3 321/2/3
f 324/2/3 322/2/3 323/2/3
f 327/2/3 326/2/3 325/2/3
f 328/2/3 326/2/3 327/2/3
f 331/3/3 330/3/3 329/3/3
f 332/3/3 330/3/3 331/3/3
f 335/2/3 334/2/3 333/2/3
f 336/2/3 334/2/3 335/2/3
f 339/2/3 338/2/3 337/2/3
f 340/2/3 338/2/3 339/2/3
f 343/2/3 342/2/3 341/2/3
f 344/2/3 342/2/3 343/2/3
f 347/2/3 346/2/3 345/2/3
f 348/2/3 346/2/3 347/2/3
f 351/2/3 350/2/3 349/2/3
f 352/2/3 350/2/3 351/2/3
f 355/2/3 354/2/3 353/2/3
f 356/2/3 354/2/3 355/2/3
f 359/4/3 358/4/3 357/4/3
f 360/4/3 358/4/3 359/4/3
f 363/4/3 362/4/3 361/4/3
f 364/4/3 362/4/3 363/4/3
f 365/4/4 366/4/4 367/4/4
f 367/4/4 366/4/4 368/4/4
f 369/2/4 370/2/4 371/2/4
f 371/2/4 370/2/4 372/2/4
f 373/2/4 374/2/4 375/2/4
f 375/2/4 374/2/4 376/2/4
f 377/2/4 378/2/4 379/2/4
f 379/2/4 378/2/4 380/2/4
f 381/2/4 382/2/4 383/2/4
f 383/2/4 382/2/4 384/2/4
f 385/2/4 386/2/4 387/2/4
f 387/2/4 386/2/4 388/2/4
f 389/3/4 390/3/4 391/3/4
f 391/3/4 390/3/4 392/3/4
f 393/6/4 394/6/4 395/6/4
f 395/6/4 394/6/4 396/6/4
f 397/3/4 398/3/4 399/3/4
f 399/3/4 398/3/4 400/3/4
f 401/2/4 402/2/4 403/2/4
f 403/2/4 402/2/4 404/2/4
f 405/2/4 406/2/4 407/2/4
f 407/2/4 406/2/4 408/2/4
f 409/6/4 410/6/4 411/6/4
f 411/6/4 410/6/4 412/6/4
f 413/3/4 414/3/4 415/3/4
f 415/3/4 414/3/4 416/3/4
f 417/2/4 418/2/4 419/2/4
f 419/2/4 418/2/4 420/2/4
f 421/6/4 422/6/4 423/6/4
f 423/6/4 422/6/4 424/6/4
f 425/3/4 426/3/4 427/3/4
f 427/3/4 426/3/4 428/3/4
f 427/6/4 428/6/4 429/6/4
f 429/6/4 428/6/4 430/6/4
f 430/6/4 428/6/4 431/6/4
f 432/2/4 433/2/4 434/2/4
f 434/2/4 433/2/4 435/2/4
f 436/6/4 437/6/4 438/6/4
f 438/6/4 437/6/4 439/6/4
f 440/2/4 441/2/4 442/2/4
f 442/2/4 441/2/4 443/2/4
f 444/2/4 445/2/4 446/2/4
f 446/2/4 445/2/4 447/2/4
f 448/6/4 449/6/4 451/6/4
f 449/6/4 450/6/4 451/6/4
f 451/6/4 450/6/4 452/6/4
f 453/6/4 454/6/4 455/6/4
f 455/6/4 454/6/4 456/6/4
f 457/2/4 458/2/4 459/2/4
f 459/2/4 458/2/4 460/2/4
f 463/2/4 464/2/4 465/2/4
f 465/2/4 464/2/4 466/2/4
f 461/4/4 462/4/4 467/4/4
f 467/4/4 462/4/4 468/4/4
f 469/2/4 470/2/4 471/2/4
f 471/2/4 470/2/4 472/2/4
f 473/2/4 474/2/4 475/2/4
f 475/2/4 474/2/4 476/2/4
f 477/2/4 478/2/4 479/2/4
f 479/2/4 478/2/4 480/2/4
f 481/4/4 482/4/4 483/4/4
f 483/4/4 482/4/4 484/4/4
f 487/4/5 486/4/5 485/4/5
f 488/4/5 486/4/5 487/4/5
f 491/4/5 490/4/5 489/4/5
f 492/4/5 490/4/5 491/4/5
f 493/4/5 491/4/5 489/4/5
f 494/4/5 490/4/5 492/4/5
f 495/4/5 493/4/5 489/4/5
f 495/4/5 494/4/5 493/4/5
f 496/4/5 490/4/5 494/4/5
f 496/4/5 494/4/5 495/4/5
f 497/4/6 498/4/6 499/4/6
f 499/4/6 498/4/6 500/4/6
f 497/4/6 499/4/6 501/4/6
f 501/4/6 499/4/6 502/4/6
f 500/4/6 498/4/6 503/4/6
f 503/4/6 498/4/6 504/4/6
f 504/4/6 498/4/6 505/4/6
f 505/4/6 498/4/6 506/4/6
f 497/4/6 501/4/6 507/4/6
f 507/4/6 501/4/6 508/4/6
f 506/4/6 498/4/6 509/4/6
f 509/4/6 498/4/6 510/4/6
f 508/4/6 501/4/6 512/4/6
f 512/4/6 501/4/6 513/4/6
f 510/4/6 498/4/6 514/4/6
f 514/4/6 498/4/6 515/4/6
f 511/4/6 512/4/6 516/4/6
f 513/4/6 501/4/6 517/4/6
f 517/4/6 501/4/6 518/4/6
f 502/4/6 499/4/6 519/4/6
f 511/4/6 516/4/6 520/4/6
f 516/4/6 517/4/6 520/4/6
f 520/4/6 517/4/6 521/4/6
f 521/4/6 517/4/6 522/4/6
f 518/4/6 519/4/6 523/4/6
f 519/4/6 499/4/6 524/4/6
f 523/4/6 519/4/6 524/4/6
f 515/4/6 498/4/6 525/4/6
f 525/4/6 498/4/6 526/4/6
f 521/4/6 522/4/6 527/4/6
f 522/4/6 523/4/6 527/4/6
f 524/4/6 499/4/6 528/4/6
f 521/4/6 527/4/6 531/4/6
f 527/4/6 528/4/6 531/4/6
f 528/4/6 499/4/6 532/4/6
f 531/4/6 528/4/6 532/4/6
f 532/4/6 499/4/6 533/4/6
f 529/4/6 530/4/6 535/4/6
f 521/4/6 531/4/6 538/4/6
f 538/4/6 531/4/6 539/4/6
f 539/4/6 531/4/6 540/4/6
f 533/4/6 534/4/6 541/4/6
f 532/4/6 533/4/6 541/4/6
f 541/4/6 534/4/6 542/4/6
f 529/4/6 535/4/6 544/4/6
f 535/4/6 536/4/6 544/4/6
f 544/4/6 536/4/6 545/4/6
f 545/4/6 536/4/6 546/4/6
f 538/4/6 539/4/6 548/4/6
f 537/4/6 538/4/6 548/4/6
f 548/4/6 539/4/6 549/4/6
f 542/4/6 543/4/6 550/4/6
f 541/4/6 542/4/6 550/4/6
f 540/4/6 541/4/6 550/4/6
f 550/4/6 543/4/6 551/4/6
f 546/4/6 547/4/6 553/4/6
f 545/4/6 546/4/6 553/4/6
f 553/4/6 547/4/6 554/4/6
f 554/4/6 547/4/6 555/4/6
f 537/4/6 548/4/6 558/4/6
f 558/4/6 548/4/6 559/4/6
f 551/4/6 552/4/6 560/4/6
f 550/4/6 551/4/6 560/4/6
f 549/4/6 550/4/6 560/4/6
f 560/4/6 552/4/6 561/4/6
f 561/4/6 552/4/6 562/4/6
f 562/4/6 552/4/6 563/4/6
f 556/4/6 557/4/6 565/4/6
f 555/4/6 556/4/6 565/4/6
f 554/4/6 555/4/6 565/4/6
f 565/4/6 557/4/6 566/4/6
f 566/4/6 557/4/6 567/4/6
f 567/4/6 557/4/6 568/4/6
f 559/4/6 560/4/6 570/4/6
f 560/4/6 561/4/6 570/4/6
f 570/4/6 561/4/6 571/4/6
f 563/4/6 564/4/6 572/4/6
f 562/4/6 563/4/6 572/4/6
f 572/4/6 564/4/6 573/4/6
f 573/4/6 564/4/6 574/4/6
f 566/4/6 567/4/6 576/4/6
f 570/4/6 571/4/6 577/4/6
f 569/4/6 570/4/6 577/4/6
f 571/4/6 572/4/6 577/4/6
f 572/4/6 573/4/6 577/4/6
f 577/4/6 573/4/6 578/4/6
f 574/4/6 575/4/6 579/4/6
f 576/4/6 567/4/6 580/4/6
f 569/4/6 577/4/6 581/4/6
f 578/4/6 573/4/6 582/4/6
f 574/4/6 579/4/6 583/4/6
f 579/4/6 580/4/6 583/4/6
f 580/4/6 567/4/6 584/4/6
f 583/4/6 580/4/6 584/4/6
f 581/4/6 582/4/6 585/4/6
f 569/4/6 581/4/6 585/4/6
f 582/4/6 573/4/6 586/4/6
f 585/4/6 582/4/6 586/4/6
f 574/4/6 583/4/6 587/4/6
f 584/4/6 567/4/6 588/4/6
f 588/4/6 567/4/6 589/4/6
f 569/4/6 585/4/6 591/4/6
f 586/4/6 573/4/6 592/4/6
f 592/4/6 573/4/6 593/4/6
f 574/4/6 587/4/6 594/4/6
f 589/4/6 590/4/6 594/4/6
f 588/4/6 589/4/6 594/4/6
f 587/4/6 588/4/6 594/4/6
f 594/4/6 590/4/6 595/4/6
f 595/4/6 590/4/6 596/4/6
f 592/4/6 593/4/6 597/4/6
f 591/4/6 592/4/6 597/4/6
f 594/4/6 595/4/6 597/4/6
f 593/4/6 594/4/6 597/4/6
f 569/4/6 591/4/6 597/4/6
f 597/4/6 595/4/6 598/4/6
f 596/4/6 590/4/6 599/4/6
f 599/4/6 590/4/6 600/4/6
f 601/4/6 602/4/6 603/4/6
f 603/4/6 602/4/6 604/4/6
f 601/4/6 603/4/6 607/4/6
f 601/4/6 607/4/6 609/4/6
f 607/2/6 608/2/6 609/2/6
f 609/2/6 608/2/6 610/2/6
f 610/2/6 611/2/6 612/2/6
f 612/2/6 611/2/6 613/2/6
f 605/2/6 606/2/6 614/2/6
f 614/2/6 606/2/6 615/2/6
f 601/4/6 609/4/6 616/4/6
f 613/2/6 614/2/6 618/2/6
f 618/2/6 614/2/6 619/2/6
f 604/4/6 602/4/6 621/4/6
f 619/2/6 620/2/6 622/2/6
f 622/2/6 620/2/6 623/2/6
f 616/2/6 617/2/6 626/2/6
f 601/4/6 616/4/6 626/4/6
f 626/2/6 617/2/6 627/2/6
f 624/2/6 625/2/6 629/2/6
f 629/2/6 625/2/6 630/2/6
f 628/2/6 629/2/6 632/2/6
f 632/2/6 629/2/6 633/2/6
f 621/4/6 602/4/6 634/4/6
f 601/4/6 626/4/6 635/4/6
f 631/2/6 632/2/6 636/2/6
f 636/2/6 632/2/6 637/2/6
f 634/4/6 602/4/6 641/4/6
f 601/4/6 635/4/6 642/4/6
f 635/2/6 636/2/6 642/2/6
f 642/2/6 636/2/6 643/2/6
f 638/2/6 639/2/6 644/2/6
f 644/2/6 639/2/6 645/2/6
f 648/2/6 649/2/6 650/2/6
f 650/2/6 649/2/6 651/2/6
f 652/2/6 653/2/6 656/2/6
f 656/2/6 653/2/6 657/2/6
f 640/2/6 641/2/6 658/2/6
f 641/4/6 602/4/6 659/4/6
f 658/2/6 641/2/6 659/2/6
f 654/2/6 655/2/6 660/2/6
f 660/2/6 655/2/6 661/2/6
f 646/2/6 647/2/6 662/2/6
f 662/2/6 647/2/6 663/2/6
f 601/4/6 642/4/6 666/4/6
f 664/2/6 665/2/6 667/2/6
f 667/2/6 665/2/6 668/2/6
f 659/4/6 602/4/6 669/4/6
f 601/4/6 666/4/6 670/4/6
f 668/4/6 669/4/6 670/4/6
f 667/4/6 668/4/6 670/4/6
f 666/4/6 667/4/6 670/4/6
f 669/4/6 602/4/6 671/4/6
f 670/4/6 669/4/6 671/4/6
f 672/6/6 673/6/6 674/6/6
f 674/6/6 673/6/6 675/6/6
f 675/6/6 673/6/6 676/6/6
f 674/3/6 675/3/6 678/3/6
f 676/6/6 677/6/6 678/6/6
f 675/6/6 676/6/6 678/6/6
f 678/6/6 677/6/6 679/6/6
f 679/6/6 677/6/6 680/6/6
f 678/3/6 679/3/6 682/3/6
f 680/6/6 681/6/6 682/6/6
f 679/6/6 680/6/6 682/6/6
f 682/6/6 681/6/6 683/6/6
f 683/6/6 681/6/6 684/6/6
f 682/3/6 683/3/6 686/3/6
f 684/6/6 685/6/6 686/6/6
f 683/6/6 684/6/6 686/6/6
f 686/6/6 685/6/6 687/6/6
f 687/6/6 685/6/6 688/6/6
f 674/3/6 678/3/6 690/3/6
f 678/3/6 682/3/6 690/3/6
f 682/3/6 686/3/6 690/3/6
f 686/3/6 687/3/6 690/3/6
f 690/3/6 687/3/6 691/3/6
f 688/6/6 689/6/6 692/6/6
f 691/3/6 687/3/6 692/3/6
f 687/6/6 688/6/6 692/6/6
f 692/6/6 689/6/6 693/6/6
f 690/1/6 691/1/6 694/1/6
f 674/3/6 690/3/6 694/3/6
f 692/3/6 693/3/6 695/3/6
f 694/1/6 691/1/6 695/1/6
f 691/3/6 692/3/6 695/3/6
f 695/3/6 693/3/6 696/3/6
f 693/6/6 689/6/6 697/6/6
f 672/6/6 674/6/6 699/6/6
f 674/3/6 694/3/6 699/3/6
f 694/3/6 695/3/6 699/3/6
f 699/3/6 695/3/6 700/3/6
f 695/1/6 696/1/6 701/1/6
f 700/3/6 695/3/6 701/3/6
f 696/3/6 693/3/6 702/3/6
f 701/1/6 696/1/6 702/1/6
f 702/3/6 693/3/6 703/3/6
f 697/6/6 698/6/6 704/6/6
f 703/3/6 693/3/6 704/3/6
f 693/6/6 697/6/6 704/6/6
f 704/6/6 698/6/6 705/6/6
f 699/6/6 700/6/6 706/6/6
f 672/6/6 699/6/6 706/6/6
f 706/6/6 700/6/6 707/6/6
f 700/3/6 701/3/6 708/3/6
f 707/6/6 700/6/6 708/6/6
f 701/3/6 702/3/6 708/3/6
f 708/3/6 702/3/6 709/3/6
f 704/3/6 705/3/6 710/3/6
f 703/3/6 704/3/6 710/3/6
f 710/3/6 705/3/6 711/3/6
f 708/6/6 709/6/6 712/6/6
f 707/6/6 708/6/6 712/6/6
f 712/6/6 709/6/6 713/6/6
f 709/3/6 702/3/6 714/3/6
f 713/6/6 709/6/6 714/6/6
f 714/3/6 702/3/6 715/3/6
f 715/3/6 702/3/6 716/3/6
f 711/3/6 705/3/6 718/3/6
f 718/3/6 705/3/6 719/3/6
f 713/6/6 714/6/6 720/6/6
f 714/6/6 715/6/6 720/6/6
f 720/6/6 715/6/6 721/6/6
f 716/3/6 717/3/6 722/3/6
f 721/6/6 715/6/6 722/6/6
f 715/3/6 716/3/6 722/3/6
f 722/3/6 717/3/6 723/3/6
f 723/3/6 717/3/6 724/3/6
f 719/3/6 705/3/6 726/3/6
f 705/6/6 698/6/6 727/6/6
f 726/3/6 705/3/6 727/3/6
f 727/6/6 698/6/6 728/6/6
f 721/6/6 722/6/6 729/6/6
f 722/6/6 723/6/6 729/6/6
f 729/6/6 723/6/6 730/6/6
f 724/3/6 725/3/6 731/3/6
f 730/6/6 723/6/6 731/6/6
f 723/3/6 724/3/6 731/3/6
f 731/3/6 725/3/6 732/3/6
f 732/3/6 725/3/6 733/3/6
f 730/6/6 731/6/6 735/6/6
f 731/6/6 732/6/6 735/6/6
f 735/6/6 732/6/6 736/6/6
f 733/3/6 734/3/6 737/3/6
f 736/6/6 732/6/6 737/6/6
f 732/3/6 733/3/6 737/3/6
f 737/3/6 734/3/6 738/3/6
f 736/6/6 737/6/6 739/6/6
f 737/6/6 738/6/6 739/6/6
f 739/6/6 738/6/6 740/6/6
