# MagicaVoxel @ Ephtracy

# group
o 

# material
mtllib furniture.mtl
usemtl palette

# normals
vn -1 0 0
vn 1 0 0
vn 0 0 1
vn 0 0 -1
vn 0 -1 0
vn 0 1 0

# texcoords
vt 0.697266 0.5
vt 0.701172 0.5
vt 0.708984 0.5

# verts
v -0.9 1.5 0.8
v -0.9 1.5 -0.9
v -0.9 1.6 0.8
v -0.9 1.6 -0.9
v -0.8 0.1 0.7
v -0.8 0.1 -0.8
v -0.8 1.5 0.7
v -0.8 1.5 -0.8
v -0.5 0 0.5
v -0.5 0 0.3
v -0.5 0 -0.4
v -0.5 0 -0.6
v -0.5 0.1 0.5
v -0.5 0.1 0.3
v -0.5 0.1 -0.4
v -0.5 0.1 -0.6
v -0.1 0.8 0.8
v -0.1 0.8 0.7
v -0.1 0.9 0.8
v -0.1 0.9 0.7
v 0.3 0.8 0.8
v 0.3 0.8 0.7
v 0.3 0.9 0.8
v 0.3 0.9 0.7
v 0.6 0 0.5
v 0.6 0 0.3
v 0.6 0 -0.4
v 0.6 0 -0.6
v 0.6 0.1 0.5
v 0.6 0.1 0.3
v 0.6 0.1 -0.4
v 0.6 0.1 -0.6
v -0.3 0 0.5
v -0.3 0 0.3
v -0.3 0 -0.4
v -0.3 0 -0.6
v -0.3 0.1 0.5
v -0.3 0.1 0.3
v -0.3 0.1 -0.4
v -0.3 0.1 -0.6
v 0 0.8 0.8
v 0 0.8 0.7
v 0 0.9 0.8
v 0 0.9 0.7
v 0.4 0.8 0.8
v 0.4 0.8 0.7
v 0.4 0.9 0.8
v 0.4 0.9 0.7
v 0.8 0 0.5
v 0.8 0 0.3
v 0.8 0 -0.4
v 0.8 0 -0.6
v 0.8 0.1 0.5
v 0.8 0.1 0.3
v 0.8 0.1 -0.4
v 0.8 0.1 -0.6
v 1.1 0.1 0.7
v 1.1 0.1 -0.8
v 1.1 1.5 0.7
v 1.1 1.5 -0.8
v 1.2 1.5 0.8
v 1.2 1.5 -0.9
v 1.2 1.6 0.8
v 1.2 1.6 -0.9
v -0.9 1.5 0.8
v -0.9 1.6 0.8
v -0.1 0.8 0.8
v -0.1 0.9 0.8
v 0 0.8 0.8
v 0 0.9 0.8
v 0.3 0.8 0.8
v 0.3 0.9 0.8
v 0.4 0.8 0.8
v 0.4 0.9 0.8
v 1.2 1.5 0.8
v 1.2 1.6 0.8
v -0.8 0.1 0.7
v -0.8 1.5 0.7
v -0.6 0.3 0.7
v -0.6 1.3 0.7
v -0.5 0.4 0.7
v -0.5 1.2 0.7
v -0.1 0.8 0.7
v -0.1 0.9 0.7
v 0 0.8 0.7
v 0 0.9 0.7
v 0.1 0.4 0.7
v 0.1 1.2 0.7
v 0.2 0.4 0.7
v 0.2 1.2 0.7
v 0.3 0.8 0.7
v 0.3 0.9 0.7
v 0.4 0.8 0.7
v 0.4 0.9 0.7
v 0.8 0.4 0.7
v 0.8 1.2 0.7
v 0.9 0.3 0.7
v 0.9 1.3 0.7
v 1.1 0.1 0.7
v 1.1 1.5 0.7
v -0.5 0 0.5
v -0.5 0.1 0.5
v -0.3 0 0.5
v -0.3 0.1 0.5
v 0.6 0 0.5
v 0.6 0.1 0.5
v 0.8 0 0.5
v 0.8 0.1 0.5
v -0.5 0 -0.4
v -0.5 0.1 -0.4
v -0.3 0 -0.4
v -0.3 0.1 -0.4
v 0.6 0 -0.4
v 0.6 0.1 -0.4
v 0.8 0 -0.4
v 0.8 0.1 -0.4
v -0.5 0 0.3
v -0.5 0.1 0.3
v -0.3 0 0.3
v -0.3 0.1 0.3
v 0.6 0 0.3
v 0.6 0.1 0.3
v 0.8 0 0.3
v 0.8 0.1 0.3
v -0.5 0 -0.6
v -0.5 0.1 -0.6
v -0.3 0 -0.6
v -0.3 0.1 -0.6
v 0.6 0 -0.6
v 0.6 0.1 -0.6
v 0.8 0 -0.6
v 0.8 0.1 -0.6
v -0.8 0.1 -0.8
v -0.8 1.5 -0.8
v 1.1 0.1 -0.8
v 1.1 1.5 -0.8
v -0.9 1.5 -0.9
v -0.9 1.6 -0.9
v 1.2 1.5 -0.9
v 1.2 1.6 -0.9
v -0.5 0 0.5
v -0.3 0 0.5
v 0.6 0 0.5
v 0.8 0 0.5
v -0.5 0 0.3
v -0.3 0 0.3
v 0.6 0 0.3
v 0.8 0 0.3
v -0.5 0 -0.4
v -0.3 0 -0.4
v 0.6 0 -0.4
v 0.8 0 -0.4
v -0.5 0 -0.6
v -0.3 0 -0.6
v 0.6 0 -0.6
v 0.8 0 -0.6
v -0.8 0.1 0.7
v 1.1 0.1 0.7
v -0.7 0.1 0.6
v 1 0.1 0.6
v -0.5 0.1 0.5
v -0.3 0.1 0.5
v 0.6 0.1 0.5
v 0.8 0.1 0.5
v -0.5 0.1 0.3
v -0.3 0.1 0.3
v 0.6 0.1 0.3
v 0.8 0.1 0.3
v -0.5 0.1 -0.4
v -0.3 0.1 -0.4
v 0.6 0.1 -0.4
v 0.8 0.1 -0.4
v -0.5 0.1 -0.6
v -0.3 0.1 -0.6
v 0.6 0.1 -0.6
v 0.8 0.1 -0.6
v -0.7 0.1 -0.7
v 1 0.1 -0.7
v -0.8 0.1 -0.8
v 1.1 0.1 -0.8
v -0.1 0.8 0.8
v 0 0.8 0.8
v 0.3 0.8 0.8
v 0.4 0.8 0.8
v -0.1 0.8 0.7
v 0 0.8 0.7
v 0.3 0.8 0.7
v 0.4 0.8 0.7
v -0.9 1.5 0.8
v 1.2 1.5 0.8
v -0.8 1.5 0.7
v 1.1 1.5 0.7
v -0.8 1.5 -0.8
v 1.1 1.5 -0.8
v -0.9 1.5 -0.9
v 1.2 1.5 -0.9
v -0.1 0.9 0.8
v 0 0.9 0.8
v 0.3 0.9 0.8
v 0.4 0.9 0.8
v -0.1 0.9 0.7
v 0 0.9 0.7
v 0.3 0.9 0.7
v 0.4 0.9 0.7
v -0.9 1.6 0.8
v 1.2 1.6 0.8
v -0.7 1.6 0.6
v 1 1.6 0.6
v -0.7 1.6 -0.7
v 1 1.6 -0.7
v -0.9 1.6 -0.9
v 1.2 1.6 -0.9

# faces
f 3/3/1 2/3/1 1/3/1
f 4/3/1 2/3/1 3/3/1
f 7/3/1 6/3/1 5/3/1
f 8/3/1 6/3/1 7/3/1
f 13/3/1 10/3/1 9/3/1
f 14/3/1 10/3/1 13/3/1
f 15/3/1 12/3/1 11/3/1
f 16/3/1 12/3/1 15/3/1
f 19/1/1 18/1/1 17/1/1
f 20/1/1 18/1/1 19/1/1
f 23/1/1 22/1/1 21/1/1
f 24/1/1 22/1/1 23/1/1
f 29/3/1 26/3/1 25/3/1
f 30/3/1 26/3/1 29/3/1
f 31/3/1 28/3/1 27/3/1
f 32/3/1 28/3/1 31/3/1
f 33/3/2 34/3/2 37/3/2
f 37/3/2 34/3/2 38/3/2
f 35/3/2 36/3/2 39/3/2
f 39/3/2 36/3/2 40/3/2
f 41/1/2 42/1/2 43/1/2
f 43/1/2 42/1/2 44/1/2
f 45/1/2 46/1/2 47/1/2
f 47/1/2 46/1/2 48/1/2
f 49/3/2 50/3/2 53/3/2
f 53/3/2 50/3/2 54/3/2
f 51/3/2 52/3/2 55/3/2
f 55/3/2 52/3/2 56/3/2
f 57/3/2 58/3/2 59/3/2
f 59/3/2 58/3/2 60/3/2
f 61/3/2 62/3/2 63/3/2
f 63/3/2 62/3/2 64/3/2
f 69/1/3 68/1/3 67/1/3
f 70/1/3 68/1/3 69/1/3
f 73/1/3 72/1/3 71/1/3
f 74/1/3 72/1/3 73/1/3
f 75/3/3 66/3/3 65/3/3
f 76/3/3 66/3/3 75/3/3
f 79/3/3 78/3/3 77/3/3
f 80/3/3 78/3/3 79/3/3
f 81/1/3 80/1/3 79/1/3
f 82/1/3 80/1/3 81/1/3
f 83/2/3 82/2/3 81/2/3
f 84/2/3 82/2/3 83/2/3
f 85/2/3 83/2/3 81/2/3
f 86/2/3 82/2/3 84/2/3
f 87/1/3 81/1/3 79/1/3
f 87/2/3 86/2/3 85/2/3
f 87/2/3 85/2/3 81/2/3
f 88/2/3 82/2/3 86/2/3
f 88/2/3 86/2/3 87/2/3
f 88/1/3 80/1/3 82/1/3
f 89/1/3 87/1/3 79/1/3
f 89/1/3 88/1/3 87/1/3
f 90/1/3 80/1/3 88/1/3
f 90/1/3 88/1/3 89/1/3
f 91/2/3 90/2/3 89/2/3
f 92/2/3 90/2/3 91/2/3
f 93/2/3 91/2/3 89/2/3
f 94/2/3 90/2/3 92/2/3
f 95/1/3 89/1/3 79/1/3
f 95/2/3 94/2/3 93/2/3
f 95/2/3 93/2/3 89/2/3
f 96/2/3 90/2/3 94/2/3
f 96/2/3 94/2/3 95/2/3
f 96/1/3 80/1/3 90/1/3
f 97/3/3 79/3/3 77/3/3
f 97/1/3 95/1/3 79/1/3
f 97/1/3 96/1/3 95/1/3
f 98/1/3 80/1/3 96/1/3
f 98/1/3 96/1/3 97/1/3
f 98/3/3 78/3/3 80/3/3
f 99/3/3 97/3/3 77/3/3
f 99/3/3 98/3/3 97/3/3
f 100/3/3 78/3/3 98/3/3
f 100/3/3 98/3/3 99/3/3
f 103/3/3 102/3/3 101/3/3
f 104/3/3 102/3/3 103/3/3
f 107/3/3 106/3/3 105/3/3
f 108/3/3 106/3/3 107/3/3
f 111/3/3 110/3/3 109/3/3
f 112/3/3 110/3/3 111/3/3
f 115/3/3 114/3/3 113/3/3
f 116/3/3 114/3/3 115/3/3
f 117/3/4 118/3/4 119/3/4
f 119/3/4 118/3/4 120/3/4
f 121/3/4 122/3/4 123/3/4
f 123/3/4 122/3/4 124/3/4
f 125/3/4 126/3/4 127/3/4
f 127/3/4 126/3/4 128/3/4
f 129/3/4 130/3/4 131/3/4
f 131/3/4 130/3/4 132/3/4
f 133/3/4 134/3/4 135/3/4
f 135/3/4 134/3/4 136/3/4
f 137/3/4 138/3/4 139/3/4
f 139/3/4 138/3/4 140/3/4
f 145/3/5 142/3/5 141/3/5
f 146/3/5 142/3/5 145/3/5
f 147/3/5 144/3/5 143/3/5
f 148/3/5 144/3/5 147/3/5
f 153/3/5 150/3/5 149/3/5
f 154/3/5 150/3/5 153/3/5
f 155/3/5 152/3/5 151/3/5
f 156/3/5 152/3/5 155/3/5
f 159/3/5 158/3/5 157/3/5
f 160/3/5 158/3/5 159/3/5
f 161/2/5 160/2/5 159/2/5
f 162/2/5 160/2/5 161/2/5
f 163/2/5 160/2/5 162/2/5
f 164/2/5 160/2/5 163/2/5
f 165/2/5 161/2/5 159/2/5
f 166/2/5 163/2/5 162/2/5
f 167/2/5 163/2/5 166/2/5
f 168/2/5 160/2/5 164/2/5
f 169/2/5 167/2/5 166/2/5
f 169/2/5 168/2/5 167/2/5
f 169/2/5 165/2/5 159/2/5
f 169/2/5 166/2/5 165/2/5
f 170/2/5 168/2/5 169/2/5
f 171/2/5 168/2/5 170/2/5
f 172/2/5 160/2/5 168/2/5
f 172/2/5 168/2/5 171/2/5
f 173/2/5 169/2/5 159/2/5
f 174/2/5 171/2/5 170/2/5
f 175/2/5 171/2/5 174/2/5
f 176/2/5 160/2/5 172/2/5
f 177/3/5 159/3/5 157/3/5
f 177/2/5 176/2/5 175/2/5
f 177/2/5 173/2/5 159/2/5
f 177/2/5 175/2/5 174/2/5
f 177/2/5 174/2/5 173/2/5
f 178/2/5 160/2/5 176/2/5
f 178/2/5 176/2/5 177/2/5
f 178/3/5 158/3/5 160/3/5
f 179/3/5 177/3/5 157/3/5
f 179/3/5 178/3/5 177/3/5
f 180/3/5 158/3/5 178/3/5
f 180/3/5 178/3/5 179/3/5
f 185/1/5 182/1/5 181/1/5
f 186/1/5 182/1/5 185/1/5
f 187/1/5 184/1/5 183/1/5
f 188/1/5 184/1/5 187/1/5
f 191/3/5 190/3/5 189/3/5
f 192/3/5 190/3/5 191/3/5
f 193/3/5 191/3/5 189/3/5
f 194/3/5 190/3/5 192/3/5
f 195/3/5 193/3/5 189/3/5
f 195/3/5 194/3/5 193/3/5
f 196/3/5 190/3/5 194/3/5
f 196/3/5 194/3/5 195/3/5
f 197/1/6 198/1/6 201/1/6
f 201/1/6 198/1/6 202/1/6
f 199/1/6 200/1/6 203/1/6
f 203/1/6 200/1/6 204/1/6
f 205/3/6 206/3/6 207/3/6
f 207/3/6 206/3/6 208/3/6
f 205/3/6 207/3/6 209/3/6
f 207/2/6 208/2/6 209/2/6
f 208/3/6 206/3/6 210/3/6
f 209/2/6 208/2/6 210/2/6
f 205/3/6 209/3/6 211/3/6
f 209/3/6 210/3/6 211/3/6
f 210/3/6 206/3/6 212/3/6
f 211/3/6 210/3/6 212/3/6
