# MagicaVoxel @ Ephtracy

# group
o 

# material
mtllib generatorDish.mtl
usemtl palette

# normals
vn -1 0 0
vn 1 0 0
vn 0 0 1
vn 0 0 -1
vn 0 -1 0
vn 0 1 0

# texcoords
vt 0.701172 0.5
vt 0.970703 0.5
vt 0.978516 0.5
vt 0.982422 0.5
vt 0.990234 0.5
vt 0.994141 0.5

# verts
v -0.9 1.5 0.8
v -0.9 1.5 -0.9
v -0.9 1.6 0.8
v -0.9 1.6 -0.9
v -0.8 0.1 0.7
v -0.8 0.1 -0.8
v -0.8 1.5 0.7
v -0.8 1.5 -0.8
v -0.5 0 0.5
v -0.5 0 0.3
v -0.5 0 -0.4
v -0.5 0 -0.6
v -0.5 0.1 0.5
v -0.5 0.1 0.3
v -0.5 0.1 -0.4
v -0.5 0.1 -0.6
v 0.6 0 0.5
v 0.6 0 0.3
v 0.6 0 -0.4
v 0.6 0 -0.6
v 0.6 0.1 0.5
v 0.6 0.1 0.3
v 0.6 0.1 -0.4
v 0.6 0.1 -0.6
v 0.8 0.8 0.4
v 0.8 0.8 -0.5
v 0.8 1.6 0.4
v 0.8 1.6 -0.5
v -0.5 0.8 0.4
v -0.5 0.8 -0.5
v -0.5 1.6 0.4
v -0.5 1.6 -0.5
v -0.3 0 0.5
v -0.3 0 0.3
v -0.3 0 -0.4
v -0.3 0 -0.6
v -0.3 0.1 0.5
v -0.3 0.1 0.3
v -0.3 0.1 -0.4
v -0.3 0.1 -0.6
v 0.8 0 0.5
v 0.8 0 0.3
v 0.8 0 -0.4
v 0.8 0 -0.6
v 0.8 0.1 0.5
v 0.8 0.1 0.3
v 0.8 0.1 -0.4
v 0.8 0.1 -0.6
v 1.1 0.1 0.7
v 1.1 0.1 -0.8
v 1.1 1.5 0.7
v 1.1 1.5 -0.8
v 1.2 1.5 0.8
v 1.2 1.5 -0.9
v 1.2 1.6 0.8
v 1.2 1.6 -0.9
v -0.9 1.5 0.8
v -0.9 1.6 0.8
v 1.2 1.5 0.8
v 1.2 1.6 0.8
v -0.8 0.1 0.7
v -0.8 1.5 0.7
v -0.6 0.3 0.7
v -0.6 1.3 0.7
v -0.5 0.4 0.7
v -0.5 1.2 0.7
v -0.2 0.8 0.7
v -0.2 0.9 0.7
v -0.1 0.7 0.7
v -0.1 0.8 0.7
v 0 0.6 0.7
v 0 0.7 0.7
v 0.3 0.6 0.7
v 0.3 0.7 0.7
v 0.4 0.7 0.7
v 0.4 0.8 0.7
v 0.5 0.8 0.7
v 0.5 0.9 0.7
v 0.8 0.4 0.7
v 0.8 1.2 0.7
v 0.9 0.3 0.7
v 0.9 1.3 0.7
v 1.1 0.1 0.7
v 1.1 1.5 0.7
v -0.5 0 0.5
v -0.5 0.1 0.5
v -0.3 0 0.5
v -0.3 0.1 0.5
v 0.6 0 0.5
v 0.6 0.1 0.5
v 0.8 0 0.5
v 0.8 0.1 0.5
v -0.5 0 -0.4
v -0.5 0.1 -0.4
v -0.3 0 -0.4
v -0.3 0.1 -0.4
v 0.6 0 -0.4
v 0.6 0.1 -0.4
v 0.8 0 -0.4
v 0.8 0.1 -0.4
v -0.5 0.8 -0.5
v -0.5 1.6 -0.5
v 0.8 0.8 -0.5
v 0.8 1.6 -0.5
v -0.5 0.8 0.4
v -0.5 1.6 0.4
v 0.8 0.8 0.4
v 0.8 1.6 0.4
v -0.5 0 0.3
v -0.5 0.1 0.3
v -0.3 0 0.3
v -0.3 0.1 0.3
v 0.6 0 0.3
v 0.6 0.1 0.3
v 0.8 0 0.3
v 0.8 0.1 0.3
v -0.5 0 -0.6
v -0.5 0.1 -0.6
v -0.3 0 -0.6
v -0.3 0.1 -0.6
v 0.6 0 -0.6
v 0.6 0.1 -0.6
v 0.8 0 -0.6
v 0.8 0.1 -0.6
v -0.8 0.1 -0.8
v -0.8 1.5 -0.8
v 1.1 0.1 -0.8
v 1.1 1.5 -0.8
v -0.9 1.5 -0.9
v -0.9 1.6 -0.9
v 1.2 1.5 -0.9
v 1.2 1.6 -0.9
v -0.5 0 0.5
v -0.3 0 0.5
v 0.6 0 0.5
v 0.8 0 0.5
v -0.5 0 0.3
v -0.3 0 0.3
v 0.6 0 0.3
v 0.8 0 0.3
v -0.5 0 -0.4
v -0.3 0 -0.4
v 0.6 0 -0.4
v 0.8 0 -0.4
v -0.5 0 -0.6
v -0.3 0 -0.6
v 0.6 0 -0.6
v 0.8 0 -0.6
v -0.8 0.1 0.7
v 1.1 0.1 0.7
v -0.7 0.1 0.6
v 1 0.1 0.6
v -0.5 0.1 0.5
v -0.3 0.1 0.5
v 0.6 0.1 0.5
v 0.8 0.1 0.5
v -0.5 0.1 0.3
v -0.3 0.1 0.3
v 0.6 0.1 0.3
v 0.8 0.1 0.3
v -0.5 0.1 -0.4
v -0.3 0.1 -0.4
v 0.6 0.1 -0.4
v 0.8 0.1 -0.4
v -0.5 0.1 -0.6
v -0.3 0.1 -0.6
v 0.6 0.1 -0.6
v 0.8 0.1 -0.6
v -0.7 0.1 -0.7
v 1 0.1 -0.7
v -0.8 0.1 -0.8
v 1.1 0.1 -0.8
v -0.9 1.5 0.8
v 1.2 1.5 0.8
v -0.8 1.5 0.7
v 1.1 1.5 0.7
v -0.8 1.5 -0.8
v 1.1 1.5 -0.8
v -0.9 1.5 -0.9
v 1.2 1.5 -0.9
v -0.5 0.8 0.4
v 0.8 0.8 0.4
v -0.5 0.8 -0.5
v 0.8 0.8 -0.5
v -0.9 1.6 0.8
v 1.2 1.6 0.8
v -0.7 1.6 0.6
v 1 1.6 0.6
v -0.5 1.6 0.4
v 0.8 1.6 0.4
v -0.5 1.6 -0.5
v 0.8 1.6 -0.5
v -0.7 1.6 -0.7
v 1 1.6 -0.7
v -0.9 1.6 -0.9
v 1.2 1.6 -0.9

# faces
f 3/4/1 2/4/1 1/4/1
f 4/4/1 2/4/1 3/4/1
f 7/4/1 6/4/1 5/4/1
f 8/4/1 6/4/1 7/4/1
f 13/4/1 10/4/1 9/4/1
f 14/4/1 10/4/1 13/4/1
f 15/4/1 12/4/1 11/4/1
f 16/4/1 12/4/1 15/4/1
f 21/4/1 18/4/1 17/4/1
f 22/4/1 18/4/1 21/4/1
f 23/4/1 20/4/1 19/4/1
f 24/4/1 20/4/1 23/4/1
f 27/3/1 26/3/1 25/3/1
f 28/3/1 26/3/1 27/3/1
f 29/3/2 30/3/2 31/3/2
f 31/3/2 30/3/2 32/3/2
f 33/4/2 34/4/2 37/4/2
f 37/4/2 34/4/2 38/4/2
f 35/4/2 36/4/2 39/4/2
f 39/4/2 36/4/2 40/4/2
f 41/4/2 42/4/2 45/4/2
f 45/4/2 42/4/2 46/4/2
f 43/4/2 44/4/2 47/4/2
f 47/4/2 44/4/2 48/4/2
f 49/4/2 50/4/2 51/4/2
f 51/4/2 50/4/2 52/4/2
f 53/4/2 54/4/2 55/4/2
f 55/4/2 54/4/2 56/4/2
f 59/4/3 58/4/3 57/4/3
f 60/4/3 58/4/3 59/4/3
f 63/4/3 62/4/3 61/4/3
f 64/4/3 62/4/3 63/4/3
f 65/5/3 64/5/3 63/5/3
f 66/5/3 64/5/3 65/5/3
f 67/3/3 66/3/3 65/3/3
f 68/3/3 66/3/3 67/3/3
f 69/3/3 67/3/3 65/3/3
f 70/2/3 68/2/3 67/2/3
f 70/3/3 67/3/3 69/3/3
f 71/3/3 69/3/3 65/3/3
f 72/2/3 70/2/3 69/2/3
f 72/3/3 69/3/3 71/3/3
f 73/3/3 71/3/3 65/3/3
f 73/2/3 72/2/3 71/2/3
f 74/2/3 70/2/3 72/2/3
f 74/2/3 72/2/3 73/2/3
f 75/3/3 74/3/3 73/3/3
f 75/2/3 70/2/3 74/2/3
f 76/2/3 68/2/3 70/2/3
f 76/2/3 70/2/3 75/2/3
f 77/3/3 76/3/3 75/3/3
f 77/2/3 68/2/3 76/2/3
f 78/3/3 66/3/3 68/3/3
f 78/2/3 68/2/3 77/2/3
f 79/5/3 65/5/3 63/5/3
f 79/3/3 77/3/3 75/3/3
f 79/3/3 78/3/3 77/3/3
f 79/3/3 73/3/3 65/3/3
f 79/3/3 75/3/3 73/3/3
f 80/3/3 66/3/3 78/3/3
f 80/3/3 78/3/3 79/3/3
f 80/5/3 64/5/3 66/5/3
f 81/4/3 63/4/3 61/4/3
f 81/5/3 79/5/3 63/5/3
f 81/5/3 80/5/3 79/5/3
f 82/5/3 64/5/3 80/5/3
f 82/5/3 80/5/3 81/5/3
f 82/4/3 62/4/3 64/4/3
f 83/4/3 81/4/3 61/4/3
f 83/4/3 82/4/3 81/4/3
f 84/4/3 62/4/3 82/4/3
f 84/4/3 82/4/3 83/4/3
f 87/4/3 86/4/3 85/4/3
f 88/4/3 86/4/3 87/4/3
f 91/4/3 90/4/3 89/4/3
f 92/4/3 90/4/3 91/4/3
f 95/4/3 94/4/3 93/4/3
f 96/4/3 94/4/3 95/4/3
f 99/4/3 98/4/3 97/4/3
f 100/4/3 98/4/3 99/4/3
f 103/3/3 102/3/3 101/3/3
f 104/3/3 102/3/3 103/3/3
f 105/3/4 106/3/4 107/3/4
f 107/3/4 106/3/4 108/3/4
f 109/4/4 110/4/4 111/4/4
f 111/4/4 110/4/4 112/4/4
f 113/4/4 114/4/4 115/4/4
f 115/4/4 114/4/4 116/4/4
f 117/4/4 118/4/4 119/4/4
f 119/4/4 118/4/4 120/4/4
f 121/4/4 122/4/4 123/4/4
f 123/4/4 122/4/4 124/4/4
f 125/4/4 126/4/4 127/4/4
f 127/4/4 126/4/4 128/4/4
f 129/4/4 130/4/4 131/4/4
f 131/4/4 130/4/4 132/4/4
f 137/4/5 134/4/5 133/4/5
f 138/4/5 134/4/5 137/4/5
f 139/4/5 136/4/5 135/4/5
f 140/4/5 136/4/5 139/4/5
f 145/4/5 142/4/5 141/4/5
f 146/4/5 142/4/5 145/4/5
f 147/4/5 144/4/5 143/4/5
f 148/4/5 144/4/5 147/4/5
f 151/4/5 150/4/5 149/4/5
f 152/4/5 150/4/5 151/4/5
f 153/3/5 152/3/5 151/3/5
f 154/3/5 152/3/5 153/3/5
f 155/3/5 152/3/5 154/3/5
f 156/3/5 152/3/5 155/3/5
f 157/3/5 153/3/5 151/3/5
f 158/3/5 155/3/5 154/3/5
f 159/3/5 155/3/5 158/3/5
f 160/3/5 152/3/5 156/3/5
f 161/3/5 159/3/5 158/3/5
f 161/3/5 160/3/5 159/3/5
f 161/3/5 157/3/5 151/3/5
f 161/3/5 158/3/5 157/3/5
f 162/3/5 160/3/5 161/3/5
f 163/3/5 160/3/5 162/3/5
f 164/3/5 152/3/5 160/3/5
f 164/3/5 160/3/5 163/3/5
f 165/3/5 161/3/5 151/3/5
f 166/3/5 163/3/5 162/3/5
f 167/3/5 163/3/5 166/3/5
f 168/3/5 152/3/5 164/3/5
f 169/4/5 151/4/5 149/4/5
f 169/3/5 168/3/5 167/3/5
f 169/3/5 165/3/5 151/3/5
f 169/3/5 167/3/5 166/3/5
f 169/3/5 166/3/5 165/3/5
f 170/3/5 152/3/5 168/3/5
f 170/3/5 168/3/5 169/3/5
f 170/4/5 150/4/5 152/4/5
f 171/4/5 169/4/5 149/4/5
f 171/4/5 170/4/5 169/4/5
f 172/4/5 150/4/5 170/4/5
f 172/4/5 170/4/5 171/4/5
f 175/4/5 174/4/5 173/4/5
f 176/4/5 174/4/5 175/4/5
f 177/4/5 175/4/5 173/4/5
f 178/4/5 174/4/5 176/4/5
f 179/4/5 177/4/5 173/4/5
f 179/4/5 178/4/5 177/4/5
f 180/4/5 174/4/5 178/4/5
f 180/4/5 178/4/5 179/4/5
f 181/6/6 182/6/6 183/6/6
f 183/6/6 182/6/6 184/6/6
f 185/4/6 186/4/6 187/4/6
f 187/4/6 186/4/6 188/4/6
f 187/3/6 188/3/6 189/3/6
f 189/3/6 188/3/6 190/3/6
f 187/3/6 189/3/6 191/3/6
f 190/3/6 188/3/6 192/3/6
f 185/4/6 187/4/6 193/4/6
f 191/3/6 192/3/6 193/3/6
f 187/3/6 191/3/6 193/3/6
f 192/3/6 188/3/6 194/3/6
f 193/3/6 192/3/6 194/3/6
f 188/4/6 186/4/6 194/4/6
f 185/4/6 193/4/6 195/4/6
f 193/4/6 194/4/6 195/4/6
f 194/4/6 186/4/6 196/4/6
f 195/4/6 194/4/6 196/4/6
