# MagicaVoxel @ Ephtracy

# group
o 

# material
mtllib generatorCucumber.mtl
usemtl palette

# normals
vn -1 0 0
vn 1 0 0
vn 0 0 1
vn 0 0 -1
vn 0 -1 0
vn 0 1 0

# texcoords
vt 0.697266 0.5
vt 0.701172 0.5
vt 0.708984 0.5
vt 0.904297 0.5
vt 0.912109 0.5
vt 0.994141 0.5

# verts
v -0.9 1.5 0.8
v -0.9 1.5 -0.9
v -0.9 1.6 0.8
v -0.9 1.6 -0.9
v -0.8 0.1 0.7
v -0.8 0.1 -0.8
v -0.8 1.5 0.7
v -0.8 1.5 -0.8
v -0.5 0 0.5
v -0.5 0 0.3
v -0.5 0 -0.4
v -0.5 0 -0.6
v -0.5 0.1 0.5
v -0.5 0.1 0.3
v -0.5 0.1 -0.4
v -0.5 0.1 -0.6
v 0.6 0 0.5
v 0.6 0 0.3
v 0.6 0 -0.4
v 0.6 0 -0.6
v 0.6 0.1 0.5
v 0.6 0.1 0.3
v 0.6 0.1 -0.4
v 0.6 0.1 -0.6
v 0.8 0.8 0.4
v 0.8 0.8 -0.5
v 0.8 1.6 0.4
v 0.8 1.6 -0.5
v -0.5 0.8 0.4
v -0.5 0.8 -0.5
v -0.5 1.6 0.4
v -0.5 1.6 -0.5
v -0.3 0 0.5
v -0.3 0 0.3
v -0.3 0 -0.4
v -0.3 0 -0.6
v -0.3 0.1 0.5
v -0.3 0.1 0.3
v -0.3 0.1 -0.4
v -0.3 0.1 -0.6
v 0.8 0 0.5
v 0.8 0 0.3
v 0.8 0 -0.4
v 0.8 0 -0.6
v 0.8 0.1 0.5
v 0.8 0.1 0.3
v 0.8 0.1 -0.4
v 0.8 0.1 -0.6
v 1.1 0.1 0.7
v 1.1 0.1 -0.8
v 1.1 1.5 0.7
v 1.1 1.5 -0.8
v 1.2 1.5 0.8
v 1.2 1.5 -0.9
v 1.2 1.6 0.8
v 1.2 1.6 -0.9
v -0.9 1.5 0.8
v -0.9 1.6 0.8
v 1.2 1.5 0.8
v 1.2 1.6 0.8
v -0.8 0.1 0.7
v -0.8 1.5 0.7
v -0.6 0.3 0.7
v -0.6 1.3 0.7
v -0.5 0.4 0.7
v -0.5 1.2 0.7
v -0.1 0.5 0.7
v -0.1 0.6 0.7
v -0.1 0.7 0.7
v 0 0.6 0.7
v 0 0.7 0.7
v 0 0.8 0.7
v 0.1 0.5 0.7
v 0.1 0.6 0.7
v 0.1 0.7 0.7
v 0.1 0.8 0.7
v 0.1 0.9 0.7
v 0.2 0.6 0.7
v 0.2 0.7 0.7
v 0.2 0.8 0.7
v 0.2 0.9 0.7
v 0.2 1 0.7
v 0.3 0.7 0.7
v 0.3 0.8 0.7
v 0.3 0.9 0.7
v 0.3 1 0.7
v 0.4 0.8 0.7
v 0.4 1 0.7
v 0.8 0.4 0.7
v 0.8 1.2 0.7
v 0.9 0.3 0.7
v 0.9 1.3 0.7
v 1.1 0.1 0.7
v 1.1 1.5 0.7
v -0.5 0 0.5
v -0.5 0.1 0.5
v -0.3 0 0.5
v -0.3 0.1 0.5
v 0.6 0 0.5
v 0.6 0.1 0.5
v 0.8 0 0.5
v 0.8 0.1 0.5
v -0.5 0 -0.4
v -0.5 0.1 -0.4
v -0.3 0 -0.4
v -0.3 0.1 -0.4
v 0.6 0 -0.4
v 0.6 0.1 -0.4
v 0.8 0 -0.4
v 0.8 0.1 -0.4
v -0.5 0.8 -0.5
v -0.5 1.6 -0.5
v 0.8 0.8 -0.5
v 0.8 1.6 -0.5
v -0.5 0.8 0.4
v -0.5 1.6 0.4
v 0.8 0.8 0.4
v 0.8 1.6 0.4
v -0.5 0 0.3
v -0.5 0.1 0.3
v -0.3 0 0.3
v -0.3 0.1 0.3
v 0.6 0 0.3
v 0.6 0.1 0.3
v 0.8 0 0.3
v 0.8 0.1 0.3
v -0.5 0 -0.6
v -0.5 0.1 -0.6
v -0.3 0 -0.6
v -0.3 0.1 -0.6
v 0.6 0 -0.6
v 0.6 0.1 -0.6
v 0.8 0 -0.6
v 0.8 0.1 -0.6
v -0.8 0.1 -0.8
v -0.8 1.5 -0.8
v 1.1 0.1 -0.8
v 1.1 1.5 -0.8
v -0.9 1.5 -0.9
v -0.9 1.6 -0.9
v 1.2 1.5 -0.9
v 1.2 1.6 -0.9
v -0.5 0 0.5
v -0.3 0 0.5
v 0.6 0 0.5
v 0.8 0 0.5
v -0.5 0 0.3
v -0.3 0 0.3
v 0.6 0 0.3
v 0.8 0 0.3
v -0.5 0 -0.4
v -0.3 0 -0.4
v 0.6 0 -0.4
v 0.8 0 -0.4
v -0.5 0 -0.6
v -0.3 0 -0.6
v 0.6 0 -0.6
v 0.8 0 -0.6
v -0.8 0.1 0.7
v 1.1 0.1 0.7
v -0.7 0.1 0.6
v 1 0.1 0.6
v -0.5 0.1 0.5
v -0.3 0.1 0.5
v 0.6 0.1 0.5
v 0.8 0.1 0.5
v -0.5 0.1 0.3
v -0.3 0.1 0.3
v 0.6 0.1 0.3
v 0.8 0.1 0.3
v -0.5 0.1 -0.4
v -0.3 0.1 -0.4
v 0.6 0.1 -0.4
v 0.8 0.1 -0.4
v -0.5 0.1 -0.6
v -0.3 0.1 -0.6
v 0.6 0.1 -0.6
v 0.8 0.1 -0.6
v -0.7 0.1 -0.7
v 1 0.1 -0.7
v -0.8 0.1 -0.8
v 1.1 0.1 -0.8
v -0.9 1.5 0.8
v 1.2 1.5 0.8
v -0.8 1.5 0.7
v 1.1 1.5 0.7
v -0.8 1.5 -0.8
v 1.1 1.5 -0.8
v -0.9 1.5 -0.9
v 1.2 1.5 -0.9
v -0.5 0.8 0.4
v 0.8 0.8 0.4
v -0.5 0.8 -0.5
v 0.8 0.8 -0.5
v -0.9 1.6 0.8
v 1.2 1.6 0.8
v -0.7 1.6 0.6
v 1 1.6 0.6
v -0.5 1.6 0.4
v 0.8 1.6 0.4
v -0.5 1.6 -0.5
v 0.8 1.6 -0.5
v -0.7 1.6 -0.7
v 1 1.6 -0.7
v -0.9 1.6 -0.9
v 1.2 1.6 -0.9

# faces
f 3/3/1 2/3/1 1/3/1
f 4/3/1 2/3/1 3/3/1
f 7/3/1 6/3/1 5/3/1
f 8/3/1 6/3/1 7/3/1
f 13/3/1 10/3/1 9/3/1
f 14/3/1 10/3/1 13/3/1
f 15/3/1 12/3/1 11/3/1
f 16/3/1 12/3/1 15/3/1
f 21/3/1 18/3/1 17/3/1
f 22/3/1 18/3/1 21/3/1
f 23/3/1 20/3/1 19/3/1
f 24/3/1 20/3/1 23/3/1
f 27/2/1 26/2/1 25/2/1
f 28/2/1 26/2/1 27/2/1
f 29/2/2 30/2/2 31/2/2
f 31/2/2 30/2/2 32/2/2
f 33/3/2 34/3/2 37/3/2
f 37/3/2 34/3/2 38/3/2
f 35/3/2 36/3/2 39/3/2
f 39/3/2 36/3/2 40/3/2
f 41/3/2 42/3/2 45/3/2
f 45/3/2 42/3/2 46/3/2
f 43/3/2 44/3/2 47/3/2
f 47/3/2 44/3/2 48/3/2
f 49/3/2 50/3/2 51/3/2
f 51/3/2 50/3/2 52/3/2
f 53/3/2 54/3/2 55/3/2
f 55/3/2 54/3/2 56/3/2
f 59/3/3 58/3/3 57/3/3
f 60/3/3 58/3/3 59/3/3
f 63/3/3 62/3/3 61/3/3
f 64/3/3 62/3/3 63/3/3
f 65/1/3 64/1/3 63/1/3
f 66/1/3 64/1/3 65/1/3
f 67/2/3 66/2/3 65/2/3
f 68/2/3 66/2/3 67/2/3
f 69/2/3 66/2/3 68/2/3
f 70/4/3 68/4/3 67/4/3
f 70/5/3 69/5/3 68/5/3
f 71/2/3 66/2/3 69/2/3
f 71/5/3 69/5/3 70/5/3
f 72/2/3 66/2/3 71/2/3
f 73/2/3 67/2/3 65/2/3
f 73/4/3 70/4/3 67/4/3
f 73/4/3 72/4/3 71/4/3
f 73/4/3 71/4/3 70/4/3
f 74/4/3 72/4/3 73/4/3
f 75/4/3 72/4/3 74/4/3
f 76/2/3 66/2/3 72/2/3
f 76/4/3 72/4/3 75/4/3
f 77/2/3 66/2/3 76/2/3
f 78/5/3 75/5/3 74/5/3
f 78/2/3 74/2/3 73/2/3
f 79/4/3 77/4/3 76/4/3
f 79/5/3 75/5/3 78/5/3
f 79/4/3 76/4/3 75/4/3
f 80/4/3 77/4/3 79/4/3
f 81/2/3 66/2/3 77/2/3
f 81/4/3 77/4/3 80/4/3
f 82/2/3 66/2/3 81/2/3
f 83/5/3 80/5/3 79/5/3
f 83/2/3 79/2/3 78/2/3
f 84/4/3 81/4/3 80/4/3
f 84/5/3 80/5/3 83/5/3
f 85/5/3 82/5/3 81/5/3
f 85/4/3 81/4/3 84/4/3
f 86/2/3 66/2/3 82/2/3
f 86/5/3 82/5/3 85/5/3
f 87/4/3 85/4/3 84/4/3
f 87/2/3 84/2/3 83/2/3
f 87/4/3 86/4/3 85/4/3
f 88/2/3 66/2/3 86/2/3
f 88/4/3 86/4/3 87/4/3
f 89/1/3 65/1/3 63/1/3
f 89/2/3 87/2/3 83/2/3
f 89/2/3 88/2/3 87/2/3
f 89/2/3 83/2/3 78/2/3
f 89/2/3 78/2/3 73/2/3
f 89/2/3 73/2/3 65/2/3
f 90/2/3 66/2/3 88/2/3
f 90/2/3 88/2/3 89/2/3
f 90/1/3 64/1/3 66/1/3
f 91/3/3 63/3/3 61/3/3
f 91/1/3 89/1/3 63/1/3
f 91/1/3 90/1/3 89/1/3
f 92/1/3 64/1/3 90/1/3
f 92/1/3 90/1/3 91/1/3
f 92/3/3 62/3/3 64/3/3
f 93/3/3 91/3/3 61/3/3
f 93/3/3 92/3/3 91/3/3
f 94/3/3 62/3/3 92/3/3
f 94/3/3 92/3/3 93/3/3
f 97/3/3 96/3/3 95/3/3
f 98/3/3 96/3/3 97/3/3
f 101/3/3 100/3/3 99/3/3
f 102/3/3 100/3/3 101/3/3
f 105/3/3 104/3/3 103/3/3
f 106/3/3 104/3/3 105/3/3
f 109/3/3 108/3/3 107/3/3
f 110/3/3 108/3/3 109/3/3
f 113/2/3 112/2/3 111/2/3
f 114/2/3 112/2/3 113/2/3
f 115/2/4 116/2/4 117/2/4
f 117/2/4 116/2/4 118/2/4
f 119/3/4 120/3/4 121/3/4
f 121/3/4 120/3/4 122/3/4
f 123/3/4 124/3/4 125/3/4
f 125/3/4 124/3/4 126/3/4
f 127/3/4 128/3/4 129/3/4
f 129/3/4 128/3/4 130/3/4
f 131/3/4 132/3/4 133/3/4
f 133/3/4 132/3/4 134/3/4
f 135/3/4 136/3/4 137/3/4
f 137/3/4 136/3/4 138/3/4
f 139/3/4 140/3/4 141/3/4
f 141/3/4 140/3/4 142/3/4
f 147/3/5 144/3/5 143/3/5
f 148/3/5 144/3/5 147/3/5
f 149/3/5 146/3/5 145/3/5
f 150/3/5 146/3/5 149/3/5
f 155/3/5 152/3/5 151/3/5
f 156/3/5 152/3/5 155/3/5
f 157/3/5 154/3/5 153/3/5
f 158/3/5 154/3/5 157/3/5
f 161/3/5 160/3/5 159/3/5
f 162/3/5 160/3/5 161/3/5
f 163/2/5 162/2/5 161/2/5
f 164/2/5 162/2/5 163/2/5
f 165/2/5 162/2/5 164/2/5
f 166/2/5 162/2/5 165/2/5
f 167/2/5 163/2/5 161/2/5
f 168/2/5 165/2/5 164/2/5
f 169/2/5 165/2/5 168/2/5
f 170/2/5 162/2/5 166/2/5
f 171/2/5 169/2/5 168/2/5
f 171/2/5 170/2/5 169/2/5
f 171/2/5 167/2/5 161/2/5
f 171/2/5 168/2/5 167/2/5
f 172/2/5 170/2/5 171/2/5
f 173/2/5 170/2/5 172/2/5
f 174/2/5 162/2/5 170/2/5
f 174/2/5 170/2/5 173/2/5
f 175/2/5 171/2/5 161/2/5
f 176/2/5 173/2/5 172/2/5
f 177/2/5 173/2/5 176/2/5
f 178/2/5 162/2/5 174/2/5
f 179/3/5 161/3/5 159/3/5
f 179/2/5 178/2/5 177/2/5
f 179/2/5 175/2/5 161/2/5
f 179/2/5 177/2/5 176/2/5
f 179/2/5 176/2/5 175/2/5
f 180/2/5 162/2/5 178/2/5
f 180/2/5 178/2/5 179/2/5
f 180/3/5 160/3/5 162/3/5
f 181/3/5 179/3/5 159/3/5
f 181/3/5 180/3/5 179/3/5
f 182/3/5 160/3/5 180/3/5
f 182/3/5 180/3/5 181/3/5
f 185/3/5 184/3/5 183/3/5
f 186/3/5 184/3/5 185/3/5
f 187/3/5 185/3/5 183/3/5
f 188/3/5 184/3/5 186/3/5
f 189/3/5 187/3/5 183/3/5
f 189/3/5 188/3/5 187/3/5
f 190/3/5 184/3/5 188/3/5
f 190/3/5 188/3/5 189/3/5
f 191/6/6 192/6/6 193/6/6
f 193/6/6 192/6/6 194/6/6
f 195/3/6 196/3/6 197/3/6
f 197/3/6 196/3/6 198/3/6
f 197/2/6 198/2/6 199/2/6
f 199/2/6 198/2/6 200/2/6
f 197/2/6 199/2/6 201/2/6
f 200/2/6 198/2/6 202/2/6
f 195/3/6 197/3/6 203/3/6
f 201/2/6 202/2/6 203/2/6
f 197/2/6 201/2/6 203/2/6
f 202/2/6 198/2/6 204/2/6
f 203/2/6 202/2/6 204/2/6
f 198/3/6 196/3/6 204/3/6
f 195/3/6 203/3/6 205/3/6
f 203/3/6 204/3/6 205/3/6
f 204/3/6 196/3/6 206/3/6
f 205/3/6 204/3/6 206/3/6
