# MagicaVoxel @ Ephtracy

# group
o 

# material
mtllib generatorBread.mtl
usemtl palette

# normals
vn -1 0 0
vn 1 0 0
vn 0 0 1
vn 0 0 -1
vn 0 -1 0
vn 0 1 0

# texcoords
vt 0.138672 0.5
vt 0.232422 0.5
vt 0.697266 0.5
vt 0.701172 0.5
vt 0.708984 0.5
vt 0.994141 0.5

# verts
v -0.9 1.5 0.8
v -0.9 1.5 -0.9
v -0.9 1.6 0.8
v -0.9 1.6 -0.9
v -0.8 0.1 0.7
v -0.8 0.1 -0.8
v -0.8 1.5 0.7
v -0.8 1.5 -0.8
v -0.5 0 0.5
v -0.5 0 0.3
v -0.5 0 -0.4
v -0.5 0 -0.6
v -0.5 0.1 0.5
v -0.5 0.1 0.3
v -0.5 0.1 -0.4
v -0.5 0.1 -0.6
v 0.6 0 0.5
v 0.6 0 0.3
v 0.6 0 -0.4
v 0.6 0 -0.6
v 0.6 0.1 0.5
v 0.6 0.1 0.3
v 0.6 0.1 -0.4
v 0.6 0.1 -0.6
v 0.8 0.8 0.4
v 0.8 0.8 -0.5
v 0.8 1.6 0.4
v 0.8 1.6 -0.5
v -0.5 0.8 0.4
v -0.5 0.8 -0.5
v -0.5 1.6 0.4
v -0.5 1.6 -0.5
v -0.3 0 0.5
v -0.3 0 0.3
v -0.3 0 -0.4
v -0.3 0 -0.6
v -0.3 0.1 0.5
v -0.3 0.1 0.3
v -0.3 0.1 -0.4
v -0.3 0.1 -0.6
v 0.8 0 0.5
v 0.8 0 0.3
v 0.8 0 -0.4
v 0.8 0 -0.6
v 0.8 0.1 0.5
v 0.8 0.1 0.3
v 0.8 0.1 -0.4
v 0.8 0.1 -0.6
v 1.1 0.1 0.7
v 1.1 0.1 -0.8
v 1.1 1.5 0.7
v 1.1 1.5 -0.8
v 1.2 1.5 0.8
v 1.2 1.5 -0.9
v 1.2 1.6 0.8
v 1.2 1.6 -0.9
v -0.9 1.5 0.8
v -0.9 1.6 0.8
v 1.2 1.5 0.8
v 1.2 1.6 0.8
v -0.8 0.1 0.7
v -0.8 1.5 0.7
v -0.6 0.3 0.7
v -0.6 1.3 0.7
v -0.5 0.4 0.7
v -0.5 1.2 0.7
v -0.2 0.6 0.7
v -0.2 0.8 0.7
v -0.1 0.6 0.7
v -0.1 0.7 0.7
v -0.1 0.8 0.7
v -0.1 0.9 0.7
v 0 0.6 0.7
v 0 0.7 0.7
v 0 0.8 0.7
v 0 0.9 0.7
v 0.1 0.8 0.7
v 0.1 0.9 0.7
v 0.3 0.7 0.7
v 0.3 0.8 0.7
v 0.4 0.7 0.7
v 0.4 0.8 0.7
v 0.4 0.9 0.7
v 0.5 0.6 0.7
v 0.5 0.8 0.7
v 0.8 0.4 0.7
v 0.8 1.2 0.7
v 0.9 0.3 0.7
v 0.9 1.3 0.7
v 1.1 0.1 0.7
v 1.1 1.5 0.7
v -0.5 0 0.5
v -0.5 0.1 0.5
v -0.3 0 0.5
v -0.3 0.1 0.5
v 0.6 0 0.5
v 0.6 0.1 0.5
v 0.8 0 0.5
v 0.8 0.1 0.5
v -0.5 0 -0.4
v -0.5 0.1 -0.4
v -0.3 0 -0.4
v -0.3 0.1 -0.4
v 0.6 0 -0.4
v 0.6 0.1 -0.4
v 0.8 0 -0.4
v 0.8 0.1 -0.4
v -0.5 0.8 -0.5
v -0.5 1.6 -0.5
v 0.8 0.8 -0.5
v 0.8 1.6 -0.5
v -0.5 0.8 0.4
v -0.5 1.6 0.4
v 0.8 0.8 0.4
v 0.8 1.6 0.4
v -0.5 0 0.3
v -0.5 0.1 0.3
v -0.3 0 0.3
v -0.3 0.1 0.3
v 0.6 0 0.3
v 0.6 0.1 0.3
v 0.8 0 0.3
v 0.8 0.1 0.3
v -0.5 0 -0.6
v -0.5 0.1 -0.6
v -0.3 0 -0.6
v -0.3 0.1 -0.6
v 0.6 0 -0.6
v 0.6 0.1 -0.6
v 0.8 0 -0.6
v 0.8 0.1 -0.6
v -0.8 0.1 -0.8
v -0.8 1.5 -0.8
v 1.1 0.1 -0.8
v 1.1 1.5 -0.8
v -0.9 1.5 -0.9
v -0.9 1.6 -0.9
v 1.2 1.5 -0.9
v 1.2 1.6 -0.9
v -0.5 0 0.5
v -0.3 0 0.5
v 0.6 0 0.5
v 0.8 0 0.5
v -0.5 0 0.3
v -0.3 0 0.3
v 0.6 0 0.3
v 0.8 0 0.3
v -0.5 0 -0.4
v -0.3 0 -0.4
v 0.6 0 -0.4
v 0.8 0 -0.4
v -0.5 0 -0.6
v -0.3 0 -0.6
v 0.6 0 -0.6
v 0.8 0 -0.6
v -0.8 0.1 0.7
v 1.1 0.1 0.7
v -0.7 0.1 0.6
v 1 0.1 0.6
v -0.5 0.1 0.5
v -0.3 0.1 0.5
v 0.6 0.1 0.5
v 0.8 0.1 0.5
v -0.5 0.1 0.3
v -0.3 0.1 0.3
v 0.6 0.1 0.3
v 0.8 0.1 0.3
v -0.5 0.1 -0.4
v -0.3 0.1 -0.4
v 0.6 0.1 -0.4
v 0.8 0.1 -0.4
v -0.5 0.1 -0.6
v -0.3 0.1 -0.6
v 0.6 0.1 -0.6
v 0.8 0.1 -0.6
v -0.7 0.1 -0.7
v 1 0.1 -0.7
v -0.8 0.1 -0.8
v 1.1 0.1 -0.8
v -0.9 1.5 0.8
v 1.2 1.5 0.8
v -0.8 1.5 0.7
v 1.1 1.5 0.7
v -0.8 1.5 -0.8
v 1.1 1.5 -0.8
v -0.9 1.5 -0.9
v 1.2 1.5 -0.9
v -0.5 0.8 0.4
v 0.8 0.8 0.4
v -0.5 0.8 -0.5
v 0.8 0.8 -0.5
v -0.9 1.6 0.8
v 1.2 1.6 0.8
v -0.7 1.6 0.6
v 1 1.6 0.6
v -0.5 1.6 0.4
v 0.8 1.6 0.4
v -0.5 1.6 -0.5
v 0.8 1.6 -0.5
v -0.7 1.6 -0.7
v 1 1.6 -0.7
v -0.9 1.6 -0.9
v 1.2 1.6 -0.9

# faces
f 3/5/1 2/5/1 1/5/1
f 4/5/1 2/5/1 3/5/1
f 7/5/1 6/5/1 5/5/1
f 8/5/1 6/5/1 7/5/1
f 13/5/1 10/5/1 9/5/1
f 14/5/1 10/5/1 13/5/1
f 15/5/1 12/5/1 11/5/1
f 16/5/1 12/5/1 15/5/1
f 21/5/1 18/5/1 17/5/1
f 22/5/1 18/5/1 21/5/1
f 23/5/1 20/5/1 19/5/1
f 24/5/1 20/5/1 23/5/1
f 27/4/1 26/4/1 25/4/1
f 28/4/1 26/4/1 27/4/1
f 29/4/2 30/4/2 31/4/2
f 31/4/2 30/4/2 32/4/2
f 33/5/2 34/5/2 37/5/2
f 37/5/2 34/5/2 38/5/2
f 35/5/2 36/5/2 39/5/2
f 39/5/2 36/5/2 40/5/2
f 41/5/2 42/5/2 45/5/2
f 45/5/2 42/5/2 46/5/2
f 43/5/2 44/5/2 47/5/2
f 47/5/2 44/5/2 48/5/2
f 49/5/2 50/5/2 51/5/2
f 51/5/2 50/5/2 52/5/2
f 53/5/2 54/5/2 55/5/2
f 55/5/2 54/5/2 56/5/2
f 59/5/3 58/5/3 57/5/3
f 60/5/3 58/5/3 59/5/3
f 63/5/3 62/5/3 61/5/3
f 64/5/3 62/5/3 63/5/3
f 65/3/3 64/3/3 63/3/3
f 66/3/3 64/3/3 65/3/3
f 67/4/3 66/4/3 65/4/3
f 68/4/3 66/4/3 67/4/3
f 69/4/3 67/4/3 65/4/3
f 69/2/3 68/2/3 67/2/3
f 70/2/3 68/2/3 69/2/3
f 71/4/3 66/4/3 68/4/3
f 71/2/3 68/2/3 70/2/3
f 72/4/3 66/4/3 71/4/3
f 73/1/3 70/1/3 69/1/3
f 73/4/3 69/4/3 65/4/3
f 74/2/3 72/2/3 71/2/3
f 74/1/3 70/1/3 73/1/3
f 74/2/3 71/2/3 70/2/3
f 75/2/3 72/2/3 74/2/3
f 76/4/3 66/4/3 72/4/3
f 76/2/3 72/2/3 75/2/3
f 77/2/3 75/2/3 74/2/3
f 77/2/3 74/2/3 73/2/3
f 77/1/3 76/1/3 75/1/3
f 78/4/3 66/4/3 76/4/3
f 78/1/3 76/1/3 77/1/3
f 79/2/3 77/2/3 73/2/3
f 79/2/3 78/2/3 77/2/3
f 80/2/3 78/2/3 79/2/3
f 81/2/3 79/2/3 73/2/3
f 81/1/3 80/1/3 79/1/3
f 82/2/3 78/2/3 80/2/3
f 82/1/3 80/1/3 81/1/3
f 83/4/3 66/4/3 78/4/3
f 83/2/3 78/2/3 82/2/3
f 84/2/3 82/2/3 81/2/3
f 84/4/3 73/4/3 65/4/3
f 84/2/3 81/2/3 73/2/3
f 85/4/3 83/4/3 82/4/3
f 85/2/3 82/2/3 84/2/3
f 86/3/3 65/3/3 63/3/3
f 86/4/3 84/4/3 65/4/3
f 86/4/3 85/4/3 84/4/3
f 87/4/3 83/4/3 85/4/3
f 87/4/3 85/4/3 86/4/3
f 87/3/3 64/3/3 66/3/3
f 87/4/3 66/4/3 83/4/3
f 88/5/3 63/5/3 61/5/3
f 88/3/3 86/3/3 63/3/3
f 88/3/3 87/3/3 86/3/3
f 89/3/3 64/3/3 87/3/3
f 89/3/3 87/3/3 88/3/3
f 89/5/3 62/5/3 64/5/3
f 90/5/3 88/5/3 61/5/3
f 90/5/3 89/5/3 88/5/3
f 91/5/3 62/5/3 89/5/3
f 91/5/3 89/5/3 90/5/3
f 94/5/3 93/5/3 92/5/3
f 95/5/3 93/5/3 94/5/3
f 98/5/3 97/5/3 96/5/3
f 99/5/3 97/5/3 98/5/3
f 102/5/3 101/5/3 100/5/3
f 103/5/3 101/5/3 102/5/3
f 106/5/3 105/5/3 104/5/3
f 107/5/3 105/5/3 106/5/3
f 110/4/3 109/4/3 108/4/3
f 111/4/3 109/4/3 110/4/3
f 112/4/4 113/4/4 114/4/4
f 114/4/4 113/4/4 115/4/4
f 116/5/4 117/5/4 118/5/4
f 118/5/4 117/5/4 119/5/4
f 120/5/4 121/5/4 122/5/4
f 122/5/4 121/5/4 123/5/4
f 124/5/4 125/5/4 126/5/4
f 126/5/4 125/5/4 127/5/4
f 128/5/4 129/5/4 130/5/4
f 130/5/4 129/5/4 131/5/4
f 132/5/4 133/5/4 134/5/4
f 134/5/4 133/5/4 135/5/4
f 136/5/4 137/5/4 138/5/4
f 138/5/4 137/5/4 139/5/4
f 144/5/5 141/5/5 140/5/5
f 145/5/5 141/5/5 144/5/5
f 146/5/5 143/5/5 142/5/5
f 147/5/5 143/5/5 146/5/5
f 152/5/5 149/5/5 148/5/5
f 153/5/5 149/5/5 152/5/5
f 154/5/5 151/5/5 150/5/5
f 155/5/5 151/5/5 154/5/5
f 158/5/5 157/5/5 156/5/5
f 159/5/5 157/5/5 158/5/5
f 160/4/5 159/4/5 158/4/5
f 161/4/5 159/4/5 160/4/5
f 162/4/5 159/4/5 161/4/5
f 163/4/5 159/4/5 162/4/5
f 164/4/5 160/4/5 158/4/5
f 165/4/5 162/4/5 161/4/5
f 166/4/5 162/4/5 165/4/5
f 167/4/5 159/4/5 163/4/5
f 168/4/5 166/4/5 165/4/5
f 168/4/5 167/4/5 166/4/5
f 168/4/5 164/4/5 158/4/5
f 168/4/5 165/4/5 164/4/5
f 169/4/5 167/4/5 168/4/5
f 170/4/5 167/4/5 169/4/5
f 171/4/5 159/4/5 167/4/5
f 171/4/5 167/4/5 170/4/5
f 172/4/5 168/4/5 158/4/5
f 173/4/5 170/4/5 169/4/5
f 174/4/5 170/4/5 173/4/5
f 175/4/5 159/4/5 171/4/5
f 176/5/5 158/5/5 156/5/5
f 176/4/5 175/4/5 174/4/5
f 176/4/5 172/4/5 158/4/5
f 176/4/5 174/4/5 173/4/5
f 176/4/5 173/4/5 172/4/5
f 177/4/5 159/4/5 175/4/5
f 177/4/5 175/4/5 176/4/5
f 177/5/5 157/5/5 159/5/5
f 178/5/5 176/5/5 156/5/5
f 178/5/5 177/5/5 176/5/5
f 179/5/5 157/5/5 177/5/5
f 179/5/5 177/5/5 178/5/5
f 182/5/5 181/5/5 180/5/5
f 183/5/5 181/5/5 182/5/5
f 184/5/5 182/5/5 180/5/5
f 185/5/5 181/5/5 183/5/5
f 186/5/5 184/5/5 180/5/5
f 186/5/5 185/5/5 184/5/5
f 187/5/5 181/5/5 185/5/5
f 187/5/5 185/5/5 186/5/5
f 188/6/6 189/6/6 190/6/6
f 190/6/6 189/6/6 191/6/6
f 192/5/6 193/5/6 194/5/6
f 194/5/6 193/5/6 195/5/6
f 194/4/6 195/4/6 196/4/6
f 196/4/6 195/4/6 197/4/6
f 194/4/6 196/4/6 198/4/6
f 197/4/6 195/4/6 199/4/6
f 192/5/6 194/5/6 200/5/6
f 198/4/6 199/4/6 200/4/6
f 194/4/6 198/4/6 200/4/6
f 199/4/6 195/4/6 201/4/6
f 200/4/6 199/4/6 201/4/6
f 195/5/6 193/5/6 201/5/6
f 192/5/6 200/5/6 202/5/6
f 200/5/6 201/5/6 202/5/6
f 201/5/6 193/5/6 203/5/6
f 202/5/6 201/5/6 203/5/6
