# MagicaVoxel @ Ephtracy

# group
o 

# material
mtllib generatorTomato.mtl
usemtl palette

# normals
vn -1 0 0
vn 1 0 0
vn 0 0 1
vn 0 0 -1
vn 0 -1 0
vn 0 1 0

# texcoords
vt 0.697266 0.5
vt 0.701172 0.5
vt 0.708984 0.5
vt 0.845703 0.5
vt 0.908203 0.5
vt 0.994141 0.5

# verts
v -0.9 1.5 0.8
v -0.9 1.5 -0.9
v -0.9 1.6 0.8
v -0.9 1.6 -0.9
v -0.8 0.1 0.7
v -0.8 0.1 -0.8
v -0.8 1.5 0.7
v -0.8 1.5 -0.8
v -0.5 0 0.5
v -0.5 0 0.3
v -0.5 0 -0.4
v -0.5 0 -0.6
v -0.5 0.1 0.5
v -0.5 0.1 0.3
v -0.5 0.1 -0.4
v -0.5 0.1 -0.6
v 0.6 0 0.5
v 0.6 0 0.3
v 0.6 0 -0.4
v 0.6 0 -0.6
v 0.6 0.1 0.5
v 0.6 0.1 0.3
v 0.6 0.1 -0.4
v 0.6 0.1 -0.6
v 0.8 0.8 0.4
v 0.8 0.8 -0.5
v 0.8 1.6 0.4
v 0.8 1.6 -0.5
v -0.5 0.8 0.4
v -0.5 0.8 -0.5
v -0.5 1.6 0.4
v -0.5 1.6 -0.5
v -0.3 0 0.5
v -0.3 0 0.3
v -0.3 0 -0.4
v -0.3 0 -0.6
v -0.3 0.1 0.5
v -0.3 0.1 0.3
v -0.3 0.1 -0.4
v -0.3 0.1 -0.6
v 0.8 0 0.5
v 0.8 0 0.3
v 0.8 0 -0.4
v 0.8 0 -0.6
v 0.8 0.1 0.5
v 0.8 0.1 0.3
v 0.8 0.1 -0.4
v 0.8 0.1 -0.6
v 1.1 0.1 0.7
v 1.1 0.1 -0.8
v 1.1 1.5 0.7
v 1.1 1.5 -0.8
v 1.2 1.5 0.8
v 1.2 1.5 -0.9
v 1.2 1.6 0.8
v 1.2 1.6 -0.9
v -0.9 1.5 0.8
v -0.9 1.6 0.8
v 1.2 1.5 0.8
v 1.2 1.6 0.8
v -0.8 0.1 0.7
v -0.8 1.5 0.7
v -0.6 0.3 0.7
v -0.6 1.3 0.7
v -0.5 0.4 0.7
v -0.5 1.2 0.7
v 0 0.6 0.7
v 0 0.9 0.7
v 0 1 0.7
v 0 1.1 0.7
v 0.1 0.9 0.7
v 0.1 1 0.7
v 0.1 1.1 0.7
v 0.2 0.9 0.7
v 0.2 1 0.7
v 0.2 1.1 0.7
v 0.3 0.6 0.7
v 0.3 0.9 0.7
v 0.3 1 0.7
v 0.3 1.1 0.7
v 0.8 0.4 0.7
v 0.8 1.2 0.7
v 0.9 0.3 0.7
v 0.9 1.3 0.7
v 1.1 0.1 0.7
v 1.1 1.5 0.7
v -0.5 0 0.5
v -0.5 0.1 0.5
v -0.3 0 0.5
v -0.3 0.1 0.5
v 0.6 0 0.5
v 0.6 0.1 0.5
v 0.8 0 0.5
v 0.8 0.1 0.5
v -0.5 0 -0.4
v -0.5 0.1 -0.4
v -0.3 0 -0.4
v -0.3 0.1 -0.4
v 0.6 0 -0.4
v 0.6 0.1 -0.4
v 0.8 0 -0.4
v 0.8 0.1 -0.4
v -0.5 0.8 -0.5
v -0.5 1.6 -0.5
v 0.8 0.8 -0.5
v 0.8 1.6 -0.5
v -0.5 0.8 0.4
v -0.5 1.6 0.4
v 0.8 0.8 0.4
v 0.8 1.6 0.4
v -0.5 0 0.3
v -0.5 0.1 0.3
v -0.3 0 0.3
v -0.3 0.1 0.3
v 0.6 0 0.3
v 0.6 0.1 0.3
v 0.8 0 0.3
v 0.8 0.1 0.3
v -0.5 0 -0.6
v -0.5 0.1 -0.6
v -0.3 0 -0.6
v -0.3 0.1 -0.6
v 0.6 0 -0.6
v 0.6 0.1 -0.6
v 0.8 0 -0.6
v 0.8 0.1 -0.6
v -0.8 0.1 -0.8
v -0.8 1.5 -0.8
v 1.1 0.1 -0.8
v 1.1 1.5 -0.8
v -0.9 1.5 -0.9
v -0.9 1.6 -0.9
v 1.2 1.5 -0.9
v 1.2 1.6 -0.9
v -0.5 0 0.5
v -0.3 0 0.5
v 0.6 0 0.5
v 0.8 0 0.5
v -0.5 0 0.3
v -0.3 0 0.3
v 0.6 0 0.3
v 0.8 0 0.3
v -0.5 0 -0.4
v -0.3 0 -0.4
v 0.6 0 -0.4
v 0.8 0 -0.4
v -0.5 0 -0.6
v -0.3 0 -0.6
v 0.6 0 -0.6
v 0.8 0 -0.6
v -0.8 0.1 0.7
v 1.1 0.1 0.7
v -0.7 0.1 0.6
v 1 0.1 0.6
v -0.5 0.1 0.5
v -0.3 0.1 0.5
v 0.6 0.1 0.5
v 0.8 0.1 0.5
v -0.5 0.1 0.3
v -0.3 0.1 0.3
v 0.6 0.1 0.3
v 0.8 0.1 0.3
v -0.5 0.1 -0.4
v -0.3 0.1 -0.4
v 0.6 0.1 -0.4
v 0.8 0.1 -0.4
v -0.5 0.1 -0.6
v -0.3 0.1 -0.6
v 0.6 0.1 -0.6
v 0.8 0.1 -0.6
v -0.7 0.1 -0.7
v 1 0.1 -0.7
v -0.8 0.1 -0.8
v 1.1 0.1 -0.8
v -0.9 1.5 0.8
v 1.2 1.5 0.8
v -0.8 1.5 0.7
v 1.1 1.5 0.7
v -0.8 1.5 -0.8
v 1.1 1.5 -0.8
v -0.9 1.5 -0.9
v 1.2 1.5 -0.9
v -0.5 0.8 0.4
v 0.8 0.8 0.4
v -0.5 0.8 -0.5
v 0.8 0.8 -0.5
v -0.9 1.6 0.8
v 1.2 1.6 0.8
v -0.7 1.6 0.6
v 1 1.6 0.6
v -0.5 1.6 0.4
v 0.8 1.6 0.4
v -0.5 1.6 -0.5
v 0.8 1.6 -0.5
v -0.7 1.6 -0.7
v 1 1.6 -0.7
v -0.9 1.6 -0.9
v 1.2 1.6 -0.9

# faces
f 3/3/1 2/3/1 1/3/1
f 4/3/1 2/3/1 3/3/1
f 7/3/1 6/3/1 5/3/1
f 8/3/1 6/3/1 7/3/1
f 13/3/1 10/3/1 9/3/1
f 14/3/1 10/3/1 13/3/1
f 15/3/1 12/3/1 11/3/1
f 16/3/1 12/3/1 15/3/1
f 21/3/1 18/3/1 17/3/1
f 22/3/1 18/3/1 21/3/1
f 23/3/1 20/3/1 19/3/1
f 24/3/1 20/3/1 23/3/1
f 27/2/1 26/2/1 25/2/1
f 28/2/1 26/2/1 27/2/1
f 29/2/2 30/2/2 31/2/2
f 31/2/2 30/2/2 32/2/2
f 33/3/2 34/3/2 37/3/2
f 37/3/2 34/3/2 38/3/2
f 35/3/2 36/3/2 39/3/2
f 39/3/2 36/3/2 40/3/2
f 41/3/2 42/3/2 45/3/2
f 45/3/2 42/3/2 46/3/2
f 43/3/2 44/3/2 47/3/2
f 47/3/2 44/3/2 48/3/2
f 49/3/2 50/3/2 51/3/2
f 51/3/2 50/3/2 52/3/2
f 53/3/2 54/3/2 55/3/2
f 55/3/2 54/3/2 56/3/2
f 59/3/3 58/3/3 57/3/3
f 60/3/3 58/3/3 59/3/3
f 63/3/3 62/3/3 61/3/3
f 64/3/3 62/3/3 63/3/3
f 65/1/3 64/1/3 63/1/3
f 66/1/3 64/1/3 65/1/3
f 67/2/3 66/2/3 65/2/3
f 68/2/3 66/2/3 67/2/3
f 69/2/3 66/2/3 68/2/3
f 70/2/3 66/2/3 69/2/3
f 71/4/3 68/4/3 67/4/3
f 71/2/3 69/2/3 68/2/3
f 72/5/3 70/5/3 69/5/3
f 72/2/3 69/2/3 71/2/3
f 73/2/3 66/2/3 70/2/3
f 73/5/3 70/5/3 72/5/3
f 74/5/3 72/5/3 71/5/3
f 74/4/3 71/4/3 67/4/3
f 75/2/3 73/2/3 72/2/3
f 75/5/3 72/5/3 74/5/3
f 76/2/3 66/2/3 73/2/3
f 76/2/3 73/2/3 75/2/3
f 77/2/3 67/2/3 65/2/3
f 77/4/3 74/4/3 67/4/3
f 78/2/3 75/2/3 74/2/3
f 78/4/3 74/4/3 77/4/3
f 79/5/3 76/5/3 75/5/3
f 79/2/3 75/2/3 78/2/3
f 80/2/3 66/2/3 76/2/3
f 80/5/3 76/5/3 79/5/3
f 81/1/3 65/1/3 63/1/3
f 81/2/3 79/2/3 78/2/3
f 81/2/3 80/2/3 79/2/3
f 81/2/3 78/2/3 77/2/3
f 81/2/3 77/2/3 65/2/3
f 82/2/3 66/2/3 80/2/3
f 82/2/3 80/2/3 81/2/3
f 82/1/3 64/1/3 66/1/3
f 83/3/3 63/3/3 61/3/3
f 83/1/3 81/1/3 63/1/3
f 83/1/3 82/1/3 81/1/3
f 84/1/3 64/1/3 82/1/3
f 84/1/3 82/1/3 83/1/3
f 84/3/3 62/3/3 64/3/3
f 85/3/3 83/3/3 61/3/3
f 85/3/3 84/3/3 83/3/3
f 86/3/3 62/3/3 84/3/3
f 86/3/3 84/3/3 85/3/3
f 89/3/3 88/3/3 87/3/3
f 90/3/3 88/3/3 89/3/3
f 93/3/3 92/3/3 91/3/3
f 94/3/3 92/3/3 93/3/3
f 97/3/3 96/3/3 95/3/3
f 98/3/3 96/3/3 97/3/3
f 101/3/3 100/3/3 99/3/3
f 102/3/3 100/3/3 101/3/3
f 105/2/3 104/2/3 103/2/3
f 106/2/3 104/2/3 105/2/3
f 107/2/4 108/2/4 109/2/4
f 109/2/4 108/2/4 110/2/4
f 111/3/4 112/3/4 113/3/4
f 113/3/4 112/3/4 114/3/4
f 115/3/4 116/3/4 117/3/4
f 117/3/4 116/3/4 118/3/4
f 119/3/4 120/3/4 121/3/4
f 121/3/4 120/3/4 122/3/4
f 123/3/4 124/3/4 125/3/4
f 125/3/4 124/3/4 126/3/4
f 127/3/4 128/3/4 129/3/4
f 129/3/4 128/3/4 130/3/4
f 131/3/4 132/3/4 133/3/4
f 133/3/4 132/3/4 134/3/4
f 139/3/5 136/3/5 135/3/5
f 140/3/5 136/3/5 139/3/5
f 141/3/5 138/3/5 137/3/5
f 142/3/5 138/3/5 141/3/5
f 147/3/5 144/3/5 143/3/5
f 148/3/5 144/3/5 147/3/5
f 149/3/5 146/3/5 145/3/5
f 150/3/5 146/3/5 149/3/5
f 153/3/5 152/3/5 151/3/5
f 154/3/5 152/3/5 153/3/5
f 155/2/5 154/2/5 153/2/5
f 156/2/5 154/2/5 155/2/5
f 157/2/5 154/2/5 156/2/5
f 158/2/5 154/2/5 157/2/5
f 159/2/5 155/2/5 153/2/5
f 160/2/5 157/2/5 156/2/5
f 161/2/5 157/2/5 160/2/5
f 162/2/5 154/2/5 158/2/5
f 163/2/5 161/2/5 160/2/5
f 163/2/5 162/2/5 161/2/5
f 163/2/5 159/2/5 153/2/5
f 163/2/5 160/2/5 159/2/5
f 164/2/5 162/2/5 163/2/5
f 165/2/5 162/2/5 164/2/5
f 166/2/5 154/2/5 162/2/5
f 166/2/5 162/2/5 165/2/5
f 167/2/5 163/2/5 153/2/5
f 168/2/5 165/2/5 164/2/5
f 169/2/5 165/2/5 168/2/5
f 170/2/5 154/2/5 166/2/5
f 171/3/5 153/3/5 151/3/5
f 171/2/5 170/2/5 169/2/5
f 171/2/5 167/2/5 153/2/5
f 171/2/5 169/2/5 168/2/5
f 171/2/5 168/2/5 167/2/5
f 172/2/5 154/2/5 170/2/5
f 172/2/5 170/2/5 171/2/5
f 172/3/5 152/3/5 154/3/5
f 173/3/5 171/3/5 151/3/5
f 173/3/5 172/3/5 171/3/5
f 174/3/5 152/3/5 172/3/5
f 174/3/5 172/3/5 173/3/5
f 177/3/5 176/3/5 175/3/5
f 178/3/5 176/3/5 177/3/5
f 179/3/5 177/3/5 175/3/5
f 180/3/5 176/3/5 178/3/5
f 181/3/5 179/3/5 175/3/5
f 181/3/5 180/3/5 179/3/5
f 182/3/5 176/3/5 180/3/5
f 182/3/5 180/3/5 181/3/5
f 183/6/6 184/6/6 185/6/6
f 185/6/6 184/6/6 186/6/6
f 187/3/6 188/3/6 189/3/6
f 189/3/6 188/3/6 190/3/6
f 189/2/6 190/2/6 191/2/6
f 191/2/6 190/2/6 192/2/6
f 189/2/6 191/2/6 193/2/6
f 192/2/6 190/2/6 194/2/6
f 187/3/6 189/3/6 195/3/6
f 193/2/6 194/2/6 195/2/6
f 189/2/6 193/2/6 195/2/6
f 194/2/6 190/2/6 196/2/6
f 195/2/6 194/2/6 196/2/6
f 190/3/6 188/3/6 196/3/6
f 187/3/6 195/3/6 197/3/6
f 195/3/6 196/3/6 197/3/6
f 196/3/6 188/3/6 198/3/6
f 197/3/6 196/3/6 198/3/6
