# MagicaVoxel @ Ephtracy

# group
o 

# material
mtllib generatorCheese.mtl
usemtl palette

# normals
vn -1 0 0
vn 1 0 0
vn 0 0 1
vn 0 0 -1
vn 0 -1 0
vn 0 1 0

# texcoords
vt 0.0683594 0.5
vt 0.123047 0.5
vt 0.697266 0.5
vt 0.701172 0.5
vt 0.708984 0.5
vt 0.994141 0.5

# verts
v -0.9 1.5 0.8
v -0.9 1.5 -0.9
v -0.9 1.6 0.8
v -0.9 1.6 -0.9
v -0.8 0.1 0.7
v -0.8 0.1 -0.8
v -0.8 1.5 0.7
v -0.8 1.5 -0.8
v -0.5 0 0.5
v -0.5 0 0.3
v -0.5 0 -0.4
v -0.5 0 -0.6
v -0.5 0.1 0.5
v -0.5 0.1 0.3
v -0.5 0.1 -0.4
v -0.5 0.1 -0.6
v 0.6 0 0.5
v 0.6 0 0.3
v 0.6 0 -0.4
v 0.6 0 -0.6
v 0.6 0.1 0.5
v 0.6 0.1 0.3
v 0.6 0.1 -0.4
v 0.6 0.1 -0.6
v 0.8 0.8 0.4
v 0.8 0.8 -0.5
v 0.8 1.6 0.4
v 0.8 1.6 -0.5
v -0.5 0.8 0.4
v -0.5 0.8 -0.5
v -0.5 1.6 0.4
v -0.5 1.6 -0.5
v -0.3 0 0.5
v -0.3 0 0.3
v -0.3 0 -0.4
v -0.3 0 -0.6
v -0.3 0.1 0.5
v -0.3 0.1 0.3
v -0.3 0.1 -0.4
v -0.3 0.1 -0.6
v 0.8 0 0.5
v 0.8 0 0.3
v 0.8 0 -0.4
v 0.8 0 -0.6
v 0.8 0.1 0.5
v 0.8 0.1 0.3
v 0.8 0.1 -0.4
v 0.8 0.1 -0.6
v 1.1 0.1 0.7
v 1.1 0.1 -0.8
v 1.1 1.5 0.7
v 1.1 1.5 -0.8
v 1.2 1.5 0.8
v 1.2 1.5 -0.9
v 1.2 1.6 0.8
v 1.2 1.6 -0.9
v -0.9 1.5 0.8
v -0.9 1.6 0.8
v 1.2 1.5 0.8
v 1.2 1.6 0.8
v -0.8 0.1 0.7
v -0.8 1.5 0.7
v -0.6 0.3 0.7
v -0.6 1.3 0.7
v -0.5 0.4 0.7
v -0.5 1.2 0.7
v 0 0.6 0.7
v 0 0.7 0.7
v 0 0.9 0.7
v 0 1 0.7
v 0.3 0.7 0.7
v 0.3 0.9 0.7
v 0.4 0.6 0.7
v 0.4 1 0.7
v 0.8 0.4 0.7
v 0.8 1.2 0.7
v 0.9 0.3 0.7
v 0.9 1.3 0.7
v 1.1 0.1 0.7
v 1.1 1.5 0.7
v -0.5 0 0.5
v -0.5 0.1 0.5
v -0.3 0 0.5
v -0.3 0.1 0.5
v 0.6 0 0.5
v 0.6 0.1 0.5
v 0.8 0 0.5
v 0.8 0.1 0.5
v -0.5 0 -0.4
v -0.5 0.1 -0.4
v -0.3 0 -0.4
v -0.3 0.1 -0.4
v 0.6 0 -0.4
v 0.6 0.1 -0.4
v 0.8 0 -0.4
v 0.8 0.1 -0.4
v -0.5 0.8 -0.5
v -0.5 1.6 -0.5
v 0.8 0.8 -0.5
v 0.8 1.6 -0.5
v -0.5 0.8 0.4
v -0.5 1.6 0.4
v 0.8 0.8 0.4
v 0.8 1.6 0.4
v -0.5 0 0.3
v -0.5 0.1 0.3
v -0.3 0 0.3
v -0.3 0.1 0.3
v 0.6 0 0.3
v 0.6 0.1 0.3
v 0.8 0 0.3
v 0.8 0.1 0.3
v -0.5 0 -0.6
v -0.5 0.1 -0.6
v -0.3 0 -0.6
v -0.3 0.1 -0.6
v 0.6 0 -0.6
v 0.6 0.1 -0.6
v 0.8 0 -0.6
v 0.8 0.1 -0.6
v -0.8 0.1 -0.8
v -0.8 1.5 -0.8
v 1.1 0.1 -0.8
v 1.1 1.5 -0.8
v -0.9 1.5 -0.9
v -0.9 1.6 -0.9
v 1.2 1.5 -0.9
v 1.2 1.6 -0.9
v -0.5 0 0.5
v -0.3 0 0.5
v 0.6 0 0.5
v 0.8 0 0.5
v -0.5 0 0.3
v -0.3 0 0.3
v 0.6 0 0.3
v 0.8 0 0.3
v -0.5 0 -0.4
v -0.3 0 -0.4
v 0.6 0 -0.4
v 0.8 0 -0.4
v -0.5 0 -0.6
v -0.3 0 -0.6
v 0.6 0 -0.6
v 0.8 0 -0.6
v -0.8 0.1 0.7
v 1.1 0.1 0.7
v -0.7 0.1 0.6
v 1 0.1 0.6
v -0.5 0.1 0.5
v -0.3 0.1 0.5
v 0.6 0.1 0.5
v 0.8 0.1 0.5
v -0.5 0.1 0.3
v -0.3 0.1 0.3
v 0.6 0.1 0.3
v 0.8 0.1 0.3
v -0.5 0.1 -0.4
v -0.3 0.1 -0.4
v 0.6 0.1 -0.4
v 0.8 0.1 -0.4
v -0.5 0.1 -0.6
v -0.3 0.1 -0.6
v 0.6 0.1 -0.6
v 0.8 0.1 -0.6
v -0.7 0.1 -0.7
v 1 0.1 -0.7
v -0.8 0.1 -0.8
v 1.1 0.1 -0.8
v -0.9 1.5 0.8
v 1.2 1.5 0.8
v -0.8 1.5 0.7
v 1.1 1.5 0.7
v -0.8 1.5 -0.8
v 1.1 1.5 -0.8
v -0.9 1.5 -0.9
v 1.2 1.5 -0.9
v -0.5 0.8 0.4
v 0.8 0.8 0.4
v -0.5 0.8 -0.5
v 0.8 0.8 -0.5
v -0.9 1.6 0.8
v 1.2 1.6 0.8
v -0.7 1.6 0.6
v 1 1.6 0.6
v -0.5 1.6 0.4
v 0.8 1.6 0.4
v -0.5 1.6 -0.5
v 0.8 1.6 -0.5
v -0.7 1.6 -0.7
v 1 1.6 -0.7
v -0.9 1.6 -0.9
v 1.2 1.6 -0.9

# faces
f 3/5/1 2/5/1 1/5/1
f 4/5/1 2/5/1 3/5/1
f 7/5/1 6/5/1 5/5/1
f 8/5/1 6/5/1 7/5/1
f 13/5/1 10/5/1 9/5/1
f 14/5/1 10/5/1 13/5/1
f 15/5/1 12/5/1 11/5/1
f 16/5/1 12/5/1 15/5/1
f 21/5/1 18/5/1 17/5/1
f 22/5/1 18/5/1 21/5/1
f 23/5/1 20/5/1 19/5/1
f 24/5/1 20/5/1 23/5/1
f 27/4/1 26/4/1 25/4/1
f 28/4/1 26/4/1 27/4/1
f 29/4/2 30/4/2 31/4/2
f 31/4/2 30/4/2 32/4/2
f 33/5/2 34/5/2 37/5/2
f 37/5/2 34/5/2 38/5/2
f 35/5/2 36/5/2 39/5/2
f 39/5/2 36/5/2 40/5/2
f 41/5/2 42/5/2 45/5/2
f 45/5/2 42/5/2 46/5/2
f 43/5/2 44/5/2 47/5/2
f 47/5/2 44/5/2 48/5/2
f 49/5/2 50/5/2 51/5/2
f 51/5/2 50/5/2 52/5/2
f 53/5/2 54/5/2 55/5/2
f 55/5/2 54/5/2 56/5/2
f 59/5/3 58/5/3 57/5/3
f 60/5/3 58/5/3 59/5/3
f 63/5/3 62/5/3 61/5/3
f 64/5/3 62/5/3 63/5/3
f 65/3/3 64/3/3 63/3/3
f 66/3/3 64/3/3 65/3/3
f 67/4/3 66/4/3 65/4/3
f 68/4/3 66/4/3 67/4/3
f 69/4/3 66/4/3 68/4/3
f 70/4/3 66/4/3 69/4/3
f 71/1/3 68/1/3 67/1/3
f 71/2/3 69/2/3 68/2/3
f 72/1/3 70/1/3 69/1/3
f 72/2/3 69/2/3 71/2/3
f 73/4/3 67/4/3 65/4/3
f 73/1/3 71/1/3 67/1/3
f 73/1/3 72/1/3 71/1/3
f 74/1/3 70/1/3 72/1/3
f 74/1/3 72/1/3 73/1/3
f 74/4/3 66/4/3 70/4/3
f 75/3/3 65/3/3 63/3/3
f 75/4/3 73/4/3 65/4/3
f 75/4/3 74/4/3 73/4/3
f 76/4/3 66/4/3 74/4/3
f 76/4/3 74/4/3 75/4/3
f 76/3/3 64/3/3 66/3/3
f 77/5/3 63/5/3 61/5/3
f 77/3/3 75/3/3 63/3/3
f 77/3/3 76/3/3 75/3/3
f 78/3/3 64/3/3 76/3/3
f 78/3/3 76/3/3 77/3/3
f 78/5/3 62/5/3 64/5/3
f 79/5/3 77/5/3 61/5/3
f 79/5/3 78/5/3 77/5/3
f 80/5/3 62/5/3 78/5/3
f 80/5/3 78/5/3 79/5/3
f 83/5/3 82/5/3 81/5/3
f 84/5/3 82/5/3 83/5/3
f 87/5/3 86/5/3 85/5/3
f 88/5/3 86/5/3 87/5/3
f 91/5/3 90/5/3 89/5/3
f 92/5/3 90/5/3 91/5/3
f 95/5/3 94/5/3 93/5/3
f 96/5/3 94/5/3 95/5/3
f 99/4/3 98/4/3 97/4/3
f 100/4/3 98/4/3 99/4/3
f 101/4/4 102/4/4 103/4/4
f 103/4/4 102/4/4 104/4/4
f 105/5/4 106/5/4 107/5/4
f 107/5/4 106/5/4 108/5/4
f 109/5/4 110/5/4 111/5/4
f 111/5/4 110/5/4 112/5/4
f 113/5/4 114/5/4 115/5/4
f 115/5/4 114/5/4 116/5/4
f 117/5/4 118/5/4 119/5/4
f 119/5/4 118/5/4 120/5/4
f 121/5/4 122/5/4 123/5/4
f 123/5/4 122/5/4 124/5/4
f 125/5/4 126/5/4 127/5/4
f 127/5/4 126/5/4 128/5/4
f 133/5/5 130/5/5 129/5/5
f 134/5/5 130/5/5 133/5/5
f 135/5/5 132/5/5 131/5/5
f 136/5/5 132/5/5 135/5/5
f 141/5/5 138/5/5 137/5/5
f 142/5/5 138/5/5 141/5/5
f 143/5/5 140/5/5 139/5/5
f 144/5/5 140/5/5 143/5/5
f 147/5/5 146/5/5 145/5/5
f 148/5/5 146/5/5 147/5/5
f 149/4/5 148/4/5 147/4/5
f 150/4/5 148/4/5 149/4/5
f 151/4/5 148/4/5 150/4/5
f 152/4/5 148/4/5 151/4/5
f 153/4/5 149/4/5 147/4/5
f 154/4/5 151/4/5 150/4/5
f 155/4/5 151/4/5 154/4/5
f 156/4/5 148/4/5 152/4/5
f 157/4/5 155/4/5 154/4/5
f 157/4/5 156/4/5 155/4/5
f 157/4/5 153/4/5 147/4/5
f 157/4/5 154/4/5 153/4/5
f 158/4/5 156/4/5 157/4/5
f 159/4/5 156/4/5 158/4/5
f 160/4/5 148/4/5 156/4/5
f 160/4/5 156/4/5 159/4/5
f 161/4/5 157/4/5 147/4/5
f 162/4/5 159/4/5 158/4/5
f 163/4/5 159/4/5 162/4/5
f 164/4/5 148/4/5 160/4/5
f 165/5/5 147/5/5 145/5/5
f 165/4/5 164/4/5 163/4/5
f 165/4/5 161/4/5 147/4/5
f 165/4/5 163/4/5 162/4/5
f 165/4/5 162/4/5 161/4/5
f 166/4/5 148/4/5 164/4/5
f 166/4/5 164/4/5 165/4/5
f 166/5/5 146/5/5 148/5/5
f 167/5/5 165/5/5 145/5/5
f 167/5/5 166/5/5 165/5/5
f 168/5/5 146/5/5 166/5/5
f 168/5/5 166/5/5 167/5/5
f 171/5/5 170/5/5 169/5/5
f 172/5/5 170/5/5 171/5/5
f 173/5/5 171/5/5 169/5/5
f 174/5/5 170/5/5 172/5/5
f 175/5/5 173/5/5 169/5/5
f 175/5/5 174/5/5 173/5/5
f 176/5/5 170/5/5 174/5/5
f 176/5/5 174/5/5 175/5/5
f 177/6/6 178/6/6 179/6/6
f 179/6/6 178/6/6 180/6/6
f 181/5/6 182/5/6 183/5/6
f 183/5/6 182/5/6 184/5/6
f 183/4/6 184/4/6 185/4/6
f 185/4/6 184/4/6 186/4/6
f 183/4/6 185/4/6 187/4/6
f 186/4/6 184/4/6 188/4/6
f 181/5/6 183/5/6 189/5/6
f 187/4/6 188/4/6 189/4/6
f 183/4/6 187/4/6 189/4/6
f 188/4/6 184/4/6 190/4/6
f 189/4/6 188/4/6 190/4/6
f 184/5/6 182/5/6 190/5/6
f 181/5/6 189/5/6 191/5/6
f 189/5/6 190/5/6 191/5/6
f 190/5/6 182/5/6 192/5/6
f 191/5/6 190/5/6 192/5/6
