# MagicaVoxel @ Ephtracy

# group
o 

# material
mtllib MeatAndCucumber.mtl
usemtl palette

# normals
vn -1 0 0
vn 1 0 0
vn 0 0 1
vn 0 0 -1
vn 0 -1 0
vn 0 1 0

# texcoords
vt 0.439453 0.5
vt 0.537109 0.5
vt 0.880859 0.5
vt 0.908203 0.5
vt 0.958984 0.5

# verts
v -0.9 0.1 0.9
v -0.9 0.1 -1.1
v -0.9 0.3 0.9
v -0.9 0.3 -1.1
v -0.7 0.2 0.3
v -0.7 0.2 -0.5
v -0.7 0.5 0.3
v -0.7 0.5 -0.5
v -0.6 0 0.6
v -0.6 0 -0.8
v -0.6 0.1 0.6
v -0.6 0.1 -0.8
v -0.6 0.2 0.4
v -0.6 0.2 0.3
v -0.6 0.2 -0.5
v -0.6 0.2 -0.6
v -0.6 0.5 0.4
v -0.6 0.5 0.3
v -0.6 0.5 -0.5
v -0.6 0.5 -0.6
v -0.5 0.2 0.5
v -0.5 0.2 0.4
v -0.5 0.2 -0.6
v -0.5 0.2 -0.7
v -0.5 0.5 0.5
v -0.5 0.5 0.4
v -0.5 0.5 -0.6
v -0.5 0.5 -0.7
v -0.4 0.2 0.6
v -0.4 0.2 0.5
v -0.4 0.2 -0.7
v -0.4 0.2 -0.8
v -0.4 0.5 0.6
v -0.4 0.5 0.5
v -0.4 0.5 0.4
v -0.4 0.5 0.2
v -0.4 0.5 -0.7
v -0.4 0.5 -0.8
v -0.4 0.6 0.4
v -0.4 0.6 0.2
v -0.3 0.5 0.5
v -0.3 0.5 0.4
v -0.3 0.5 0.2
v -0.3 0.5 0.1
v -0.3 0.6 0.5
v -0.3 0.6 0.4
v -0.3 0.6 0.2
v -0.3 0.6 0.1
v -0.2 0.5 0.6
v -0.2 0.5 0.5
v -0.2 0.5 0.1
v -0.2 0.5 0
v -0.2 0.6 0.6
v -0.2 0.6 0.5
v -0.2 0.6 0.1
v -0.2 0.6 0
v 0 0.5 -0.4
v 0 0.5 -0.6
v 0 0.6 -0.4
v 0 0.6 -0.6
v 0.1 0.5 -0.3
v 0.1 0.5 -0.4
v 0.1 0.5 -0.6
v 0.1 0.5 -0.7
v 0.1 0.6 -0.3
v 0.1 0.6 -0.4
v 0.1 0.6 -0.6
v 0.1 0.6 -0.7
v 0.2 0.5 -0.2
v 0.2 0.5 -0.3
v 0.2 0.5 -0.7
v 0.2 0.5 -0.8
v 0.2 0.6 -0.2
v 0.2 0.6 -0.3
v 0.2 0.6 -0.7
v 0.2 0.6 -0.8
v 1 0.2 0.8
v 1 0.2 -1
v 1 0.3 0.8
v 1 0.3 -1
v -0.8 0.2 0.8
v -0.8 0.2 -1
v -0.8 0.3 0.8
v -0.8 0.3 -1
v 0 0.5 0.6
v 0 0.5 0.5
v 0 0.5 0.1
v 0 0.5 0
v 0 0.6 0.6
v 0 0.6 0.5
v 0 0.6 0.1
v 0 0.6 0
v 0.1 0.5 0.5
v 0.1 0.5 0.4
v 0.1 0.5 0.2
v 0.1 0.5 0.1
v 0.1 0.6 0.5
v 0.1 0.6 0.4
v 0.1 0.6 0.2
v 0.1 0.6 0.1
v 0.2 0.5 0.4
v 0.2 0.5 0.2
v 0.2 0.6 0.4
v 0.2 0.6 0.2
v 0.4 0.5 -0.2
v 0.4 0.5 -0.3
v 0.4 0.5 -0.7
v 0.4 0.5 -0.8
v 0.4 0.6 -0.2
v 0.4 0.6 -0.3
v 0.4 0.6 -0.7
v 0.4 0.6 -0.8
v 0.5 0.5 -0.3
v 0.5 0.5 -0.4
v 0.5 0.5 -0.6
v 0.5 0.5 -0.7
v 0.5 0.6 -0.3
v 0.5 0.6 -0.4
v 0.5 0.6 -0.6
v 0.5 0.6 -0.7
v 0.6 0.2 0.6
v 0.6 0.2 0.5
v 0.6 0.2 -0.7
v 0.6 0.2 -0.8
v 0.6 0.5 0.6
v 0.6 0.5 0.5
v 0.6 0.5 -0.4
v 0.6 0.5 -0.6
v 0.6 0.5 -0.7
v 0.6 0.5 -0.8
v 0.6 0.6 -0.4
v 0.6 0.6 -0.6
v 0.7 0.2 0.5
v 0.7 0.2 0.4
v 0.7 0.2 -0.6
v 0.7 0.2 -0.7
v 0.7 0.5 0.5
v 0.7 0.5 0.4
v 0.7 0.5 -0.6
v 0.7 0.5 -0.7
v 0.8 0 0.6
v 0.8 0 -0.8
v 0.8 0.1 0.6
v 0.8 0.1 -0.8
v 0.8 0.2 0.4
v 0.8 0.2 0.3
v 0.8 0.2 -0.5
v 0.8 0.2 -0.6
v 0.8 0.5 0.4
v 0.8 0.5 0.3
v 0.8 0.5 -0.5
v 0.8 0.5 -0.6
v 0.9 0.2 0.3
v 0.9 0.2 -0.5
v 0.9 0.5 0.3
v 0.9 0.5 -0.5
v 1.1 0.1 0.9
v 1.1 0.1 -1.1
v 1.1 0.3 0.9
v 1.1 0.3 -1.1
v -0.9 0.1 0.9
v -0.9 0.3 0.9
v 1.1 0.1 0.9
v 1.1 0.3 0.9
v -0.6 0 0.6
v -0.6 0.1 0.6
v -0.4 0.2 0.6
v -0.4 0.5 0.6
v -0.2 0.5 0.6
v -0.2 0.6 0.6
v 0 0.5 0.6
v 0 0.6 0.6
v 0.6 0.2 0.6
v 0.6 0.5 0.6
v 0.8 0 0.6
v 0.8 0.1 0.6
v -0.5 0.2 0.5
v -0.5 0.5 0.5
v -0.4 0.2 0.5
v -0.4 0.5 0.5
v -0.3 0.5 0.5
v -0.3 0.6 0.5
v -0.2 0.5 0.5
v -0.2 0.6 0.5
v 0 0.5 0.5
v 0 0.6 0.5
v 0.1 0.5 0.5
v 0.1 0.6 0.5
v 0.6 0.2 0.5
v 0.6 0.5 0.5
v 0.7 0.2 0.5
v 0.7 0.5 0.5
v -0.6 0.2 0.4
v -0.6 0.5 0.4
v -0.5 0.2 0.4
v -0.5 0.5 0.4
v -0.4 0.5 0.4
v -0.4 0.6 0.4
v -0.3 0.5 0.4
v -0.3 0.6 0.4
v 0.1 0.5 0.4
v 0.1 0.6 0.4
v 0.2 0.5 0.4
v 0.2 0.6 0.4
v 0.7 0.2 0.4
v 0.7 0.5 0.4
v 0.8 0.2 0.4
v 0.8 0.5 0.4
v -0.7 0.2 0.3
v -0.7 0.5 0.3
v -0.6 0.2 0.3
v -0.6 0.5 0.3
v 0.8 0.2 0.3
v 0.8 0.5 0.3
v 0.9 0.2 0.3
v 0.9 0.5 0.3
v 0.2 0.5 -0.2
v 0.2 0.6 -0.2
v 0.4 0.5 -0.2
v 0.4 0.6 -0.2
v 0.1 0.5 -0.3
v 0.1 0.6 -0.3
v 0.2 0.5 -0.3
v 0.2 0.6 -0.3
v 0.4 0.5 -0.3
v 0.4 0.6 -0.3
v 0.5 0.5 -0.3
v 0.5 0.6 -0.3
v 0 0.5 -0.4
v 0 0.6 -0.4
v 0.1 0.5 -0.4
v 0.1 0.6 -0.4
v 0.5 0.5 -0.4
v 0.5 0.6 -0.4
v 0.6 0.5 -0.4
v 0.6 0.6 -0.4
v -0.8 0.2 -1
v -0.8 0.3 -1
v 1 0.2 -1
v 1 0.3 -1
v -0.8 0.2 0.8
v -0.8 0.3 0.8
v 1 0.2 0.8
v 1 0.3 0.8
v -0.4 0.5 0.2
v -0.4 0.6 0.2
v -0.3 0.5 0.2
v -0.3 0.6 0.2
v 0.1 0.5 0.2
v 0.1 0.6 0.2
v 0.2 0.5 0.2
v 0.2 0.6 0.2
v -0.3 0.5 0.1
v -0.3 0.6 0.1
v -0.2 0.5 0.1
v -0.2 0.6 0.1
v 0 0.5 0.1
v 0 0.6 0.1
v 0.1 0.5 0.1
v 0.1 0.6 0.1
v -0.2 0.5 0
v -0.2 0.6 0
v 0 0.5 0
v 0 0.6 0
v -0.7 0.2 -0.5
v -0.7 0.5 -0.5
v -0.6 0.2 -0.5
v -0.6 0.5 -0.5
v 0.8 0.2 -0.5
v 0.8 0.5 -0.5
v 0.9 0.2 -0.5
v 0.9 0.5 -0.5
v -0.6 0.2 -0.6
v -0.6 0.5 -0.6
v -0.5 0.2 -0.6
v -0.5 0.5 -0.6
v 0 0.5 -0.6
v 0 0.6 -0.6
v 0.1 0.5 -0.6
v 0.1 0.6 -0.6
v 0.5 0.5 -0.6
v 0.5 0.6 -0.6
v 0.6 0.5 -0.6
v 0.6 0.6 -0.6
v 0.7 0.2 -0.6
v 0.7 0.5 -0.6
v 0.8 0.2 -0.6
v 0.8 0.5 -0.6
v -0.5 0.2 -0.7
v -0.5 0.5 -0.7
v -0.4 0.2 -0.7
v -0.4 0.5 -0.7
v 0.1 0.5 -0.7
v 0.1 0.6 -0.7
v 0.2 0.5 -0.7
v 0.2 0.6 -0.7
v 0.4 0.5 -0.7
v 0.4 0.6 -0.7
v 0.5 0.5 -0.7
v 0.5 0.6 -0.7
v 0.6 0.2 -0.7
v 0.6 0.5 -0.7
v 0.7 0.2 -0.7
v 0.7 0.5 -0.7
v -0.6 0 -0.8
v -0.6 0.1 -0.8
v -0.4 0.2 -0.8
v -0.4 0.5 -0.8
v 0.2 0.5 -0.8
v 0.2 0.6 -0.8
v 0.4 0.5 -0.8
v 0.4 0.6 -0.8
v 0.6 0.2 -0.8
v 0.6 0.5 -0.8
v 0.8 0 -0.8
v 0.8 0.1 -0.8
v -0.9 0.1 -1.1
v -0.9 0.3 -1.1
v 1.1 0.1 -1.1
v 1.1 0.3 -1.1
v -0.6 0 0.6
v 0.8 0 0.6
v -0.6 0 -0.8
v 0.8 0 -0.8
v -0.9 0.1 0.9
v 1.1 0.1 0.9
v -0.6 0.1 0.6
v 0.8 0.1 0.6
v -0.6 0.1 -0.8
v 0.8 0.1 -0.8
v -0.9 0.1 -1.1
v 1.1 0.1 -1.1
v -0.8 0.2 0.8
v 1 0.2 0.8
v -0.4 0.2 0.6
v 0.6 0.2 0.6
v -0.5 0.2 0.5
v -0.4 0.2 0.5
v 0.6 0.2 0.5
v 0.7 0.2 0.5
v -0.6 0.2 0.4
v -0.5 0.2 0.4
v 0.7 0.2 0.4
v 0.8 0.2 0.4
v -0.7 0.2 0.3
v -0.6 0.2 0.3
v 0.8 0.2 0.3
v 0.9 0.2 0.3
v -0.7 0.2 -0.5
v -0.6 0.2 -0.5
v 0.8 0.2 -0.5
v 0.9 0.2 -0.5
v -0.6 0.2 -0.6
v -0.5 0.2 -0.6
v 0.7 0.2 -0.6
v 0.8 0.2 -0.6
v -0.5 0.2 -0.7
v -0.4 0.2 -0.7
v 0.6 0.2 -0.7
v 0.7 0.2 -0.7
v -0.4 0.2 -0.8
v 0.6 0.2 -0.8
v -0.8 0.2 -1
v 1 0.2 -1
v -0.9 0.3 0.9
v 1.1 0.3 0.9
v -0.8 0.3 0.8
v 1 0.3 0.8
v -0.8 0.3 -1
v 1 0.3 -1
v -0.9 0.3 -1.1
v 1.1 0.3 -1.1
v -0.4 0.5 0.6
v -0.2 0.5 0.6
v 0 0.5 0.6
v 0.6 0.5 0.6
v -0.5 0.5 0.5
v -0.4 0.5 0.5
v -0.3 0.5 0.5
v -0.2 0.5 0.5
v 0 0.5 0.5
v 0.1 0.5 0.5
v 0.6 0.5 0.5
v 0.7 0.5 0.5
v -0.6 0.5 0.4
v -0.5 0.5 0.4
v -0.4 0.5 0.4
v -0.3 0.5 0.4
v 0.1 0.5 0.4
v 0.2 0.5 0.4
v 0.7 0.5 0.4
v 0.8 0.5 0.4
v -0.7 0.5 0.3
v -0.6 0.5 0.3
v 0.8 0.5 0.3
v 0.9 0.5 0.3
v -0.4 0.5 0.2
v -0.3 0.5 0.2
v 0.1 0.5 0.2
v 0.2 0.5 0.2
v -0.3 0.5 0.1
v -0.2 0.5 0.1
v 0 0.5 0.1
v 0.1 0.5 0.1
v -0.2 0.5 0
v 0 0.5 0
v 0.2 0.5 -0.2
v 0.4 0.5 -0.2
v 0.1 0.5 -0.3
v 0.2 0.5 -0.3
v 0.4 0.5 -0.3
v 0.5 0.5 -0.3
v 0 0.5 -0.4
v 0.1 0.5 -0.4
v 0.5 0.5 -0.4
v 0.6 0.5 -0.4
v -0.7 0.5 -0.5
v -0.6 0.5 -0.5
v 0.8 0.5 -0.5
v 0.9 0.5 -0.5
v -0.6 0.5 -0.6
v -0.5 0.5 -0.6
v 0 0.5 -0.6
v 0.1 0.5 -0.6
v 0.5 0.5 -0.6
v 0.6 0.5 -0.6
v 0.7 0.5 -0.6
v 0.8 0.5 -0.6
v -0.5 0.5 -0.7
v -0.4 0.5 -0.7
v 0.1 0.5 -0.7
v 0.2 0.5 -0.7
v 0.4 0.5 -0.7
v 0.5 0.5 -0.7
v 0.6 0.5 -0.7
v 0.7 0.5 -0.7
v -0.4 0.5 -0.8
v 0.2 0.5 -0.8
v 0.4 0.5 -0.8
v 0.6 0.5 -0.8
v -0.2 0.6 0.6
v 0 0.6 0.6
v -0.3 0.6 0.5
v -0.2 0.6 0.5
v 0 0.6 0.5
v 0.1 0.6 0.5
v -0.4 0.6 0.4
v -0.3 0.6 0.4
v -0.2 0.6 0.4
v -0.1 0.6 0.4
v 0 0.6 0.4
v 0.1 0.6 0.4
v 0.2 0.6 0.4
v -0.2 0.6 0.3
v -0.1 0.6 0.3
v 0 0.6 0.3
v -0.4 0.6 0.2
v -0.3 0.6 0.2
v -0.2 0.6 0.2
v -0.1 0.6 0.2
v 0 0.6 0.2
v 0.1 0.6 0.2
v 0.2 0.6 0.2
v -0.3 0.6 0.1
v -0.2 0.6 0.1
v 0 0.6 0.1
v 0.1 0.6 0.1
v -0.2 0.6 0
v 0 0.6 0
v 0.2 0.6 -0.2
v 0.4 0.6 -0.2
v 0.1 0.6 -0.3
v 0.2 0.6 -0.3
v 0.4 0.6 -0.3
v 0.5 0.6 -0.3
v 0 0.6 -0.4
v 0.1 0.6 -0.4
v 0.2 0.6 -0.4
v 0.3 0.6 -0.4
v 0.4 0.6 -0.4
v 0.5 0.6 -0.4
v 0.6 0.6 -0.4
v 0.2 0.6 -0.5
v 0.3 0.6 -0.5
v 0.4 0.6 -0.5
v 0 0.6 -0.6
v 0.1 0.6 -0.6
v 0.2 0.6 -0.6
v 0.3 0.6 -0.6
v 0.4 0.6 -0.6
v 0.5 0.6 -0.6
v 0.6 0.6 -0.6
v 0.1 0.6 -0.7
v 0.2 0.6 -0.7
v 0.4 0.6 -0.7
v 0.5 0.6 -0.7
v 0.2 0.6 -0.8
v 0.4 0.6 -0.8

# faces
f 3/5/1 2/5/1 1/5/1
f 4/5/1 2/5/1 3/5/1
f 7/2/1 6/2/1 5/2/1
f 8/2/1 6/2/1 7/2/1
f 11/5/1 10/5/1 9/5/1
f 12/5/1 10/5/1 11/5/1
f 17/2/1 14/2/1 13/2/1
f 18/2/1 14/2/1 17/2/1
f 19/2/1 16/2/1 15/2/1
f 20/2/1 16/2/1 19/2/1
f 25/2/1 22/2/1 21/2/1
f 26/2/1 22/2/1 25/2/1
f 27/2/1 24/2/1 23/2/1
f 28/2/1 24/2/1 27/2/1
f 33/2/1 30/2/1 29/2/1
f 34/2/1 30/2/1 33/2/1
f 37/2/1 32/2/1 31/2/1
f 38/2/1 32/2/1 37/2/1
f 39/4/1 36/4/1 35/4/1
f 40/4/1 36/4/1 39/4/1
f 45/4/1 42/4/1 41/4/1
f 46/4/1 42/4/1 45/4/1
f 47/4/1 44/4/1 43/4/1
f 48/4/1 44/4/1 47/4/1
f 53/4/1 50/4/1 49/4/1
f 54/4/1 50/4/1 53/4/1
f 55/4/1 52/4/1 51/4/1
f 56/4/1 52/4/1 55/4/1
f 59/4/1 58/4/1 57/4/1
f 60/4/1 58/4/1 59/4/1
f 65/4/1 62/4/1 61/4/1
f 66/4/1 62/4/1 65/4/1
f 67/4/1 64/4/1 63/4/1
f 68/4/1 64/4/1 67/4/1
f 73/4/1 70/4/1 69/4/1
f 74/4/1 70/4/1 73/4/1
f 75/4/1 72/4/1 71/4/1
f 76/4/1 72/4/1 75/4/1
f 79/5/1 78/5/1 77/5/1
f 80/5/1 78/5/1 79/5/1
f 81/5/2 82/5/2 83/5/2
f 83/5/2 82/5/2 84/5/2
f 85/4/2 86/4/2 89/4/2
f 89/4/2 86/4/2 90/4/2
f 87/4/2 88/4/2 91/4/2
f 91/4/2 88/4/2 92/4/2
f 93/4/2 94/4/2 97/4/2
f 97/4/2 94/4/2 98/4/2
f 95/4/2 96/4/2 99/4/2
f 99/4/2 96/4/2 100/4/2
f 101/4/2 102/4/2 103/4/2
f 103/4/2 102/4/2 104/4/2
f 105/4/2 106/4/2 109/4/2
f 109/4/2 106/4/2 110/4/2
f 107/4/2 108/4/2 111/4/2
f 111/4/2 108/4/2 112/4/2
f 113/4/2 114/4/2 117/4/2
f 117/4/2 114/4/2 118/4/2
f 115/4/2 116/4/2 119/4/2
f 119/4/2 116/4/2 120/4/2
f 121/2/2 122/2/2 125/2/2
f 125/2/2 122/2/2 126/2/2
f 123/2/2 124/2/2 129/2/2
f 129/2/2 124/2/2 130/2/2
f 127/4/2 128/4/2 131/4/2
f 131/4/2 128/4/2 132/4/2
f 133/2/2 134/2/2 137/2/2
f 137/2/2 134/2/2 138/2/2
f 135/2/2 136/2/2 139/2/2
f 139/2/2 136/2/2 140/2/2
f 141/5/2 142/5/2 143/5/2
f 143/5/2 142/5/2 144/5/2
f 145/2/2 146/2/2 149/2/2
f 149/2/2 146/2/2 150/2/2
f 147/2/2 148/2/2 151/2/2
f 151/2/2 148/2/2 152/2/2
f 153/2/2 154/2/2 155/2/2
f 155/2/2 154/2/2 156/2/2
f 157/5/2 158/5/2 159/5/2
f 159/5/2 158/5/2 160/5/2
f 163/5/3 162/5/3 161/5/3
f 164/5/3 162/5/3 163/5/3
f 169/2/3 168/2/3 167/2/3
f 171/2/3 169/2/3 167/2/3
f 171/4/3 170/4/3 169/4/3
f 172/4/3 170/4/3 171/4/3
f 173/2/3 171/2/3 167/2/3
f 174/2/3 171/2/3 173/2/3
f 175/5/3 166/5/3 165/5/3
f 176/5/3 166/5/3 175/5/3
f 179/2/3 178/2/3 177/2/3
f 180/2/3 178/2/3 179/2/3
f 183/4/3 182/4/3 181/4/3
f 184/4/3 182/4/3 183/4/3
f 187/4/3 186/4/3 185/4/3
f 188/4/3 186/4/3 187/4/3
f 191/2/3 190/2/3 189/2/3
f 192/2/3 190/2/3 191/2/3
f 195/2/3 194/2/3 193/2/3
f 196/2/3 194/2/3 195/2/3
f 199/4/3 198/4/3 197/4/3
f 200/4/3 198/4/3 199/4/3
f 203/4/3 202/4/3 201/4/3
f 204/4/3 202/4/3 203/4/3
f 207/2/3 206/2/3 205/2/3
f 208/2/3 206/2/3 207/2/3
f 211/2/3 210/2/3 209/2/3
f 212/2/3 210/2/3 211/2/3
f 215/2/3 214/2/3 213/2/3
f 216/2/3 214/2/3 215/2/3
f 219/4/3 218/4/3 217/4/3
f 220/4/3 218/4/3 219/4/3
f 223/4/3 222/4/3 221/4/3
f 224/4/3 222/4/3 223/4/3
f 227/4/3 226/4/3 225/4/3
f 228/4/3 226/4/3 227/4/3
f 231/4/3 230/4/3 229/4/3
f 232/4/3 230/4/3 231/4/3
f 235/4/3 234/4/3 233/4/3
f 236/4/3 234/4/3 235/4/3
f 239/5/3 238/5/3 237/5/3
f 240/5/3 238/5/3 239/5/3
f 241/5/4 242/5/4 243/5/4
f 243/5/4 242/5/4 244/5/4
f 245/4/4 246/4/4 247/4/4
f 247/4/4 246/4/4 248/4/4
f 249/4/4 250/4/4 251/4/4
f 251/4/4 250/4/4 252/4/4
f 253/4/4 254/4/4 255/4/4
f 255/4/4 254/4/4 256/4/4
f 257/4/4 258/4/4 259/4/4
f 259/4/4 258/4/4 260/4/4
f 261/4/4 262/4/4 263/4/4
f 263/4/4 262/4/4 264/4/4
f 265/2/4 266/2/4 267/2/4
f 267/2/4 266/2/4 268/2/4
f 269/2/4 270/2/4 271/2/4
f 271/2/4 270/2/4 272/2/4
f 273/2/4 274/2/4 275/2/4
f 275/2/4 274/2/4 276/2/4
f 277/4/4 278/4/4 279/4/4
f 279/4/4 278/4/4 280/4/4
f 281/4/4 282/4/4 283/4/4
f 283/4/4 282/4/4 284/4/4
f 285/2/4 286/2/4 287/2/4
f 287/2/4 286/2/4 288/2/4
f 289/2/4 290/2/4 291/2/4
f 291/2/4 290/2/4 292/2/4
f 293/4/4 294/4/4 295/4/4
f 295/4/4 294/4/4 296/4/4
f 297/4/4 298/4/4 299/4/4
f 299/4/4 298/4/4 300/4/4
f 301/2/4 302/2/4 303/2/4
f 303/2/4 302/2/4 304/2/4
f 307/2/4 308/2/4 309/2/4
f 307/2/4 309/2/4 311/2/4
f 309/4/4 310/4/4 311/4/4
f 311/4/4 310/4/4 312/4/4
f 307/2/4 311/2/4 313/2/4
f 313/2/4 311/2/4 314/2/4
f 305/5/4 306/5/4 315/5/4
f 315/5/4 306/5/4 316/5/4
f 317/5/4 318/5/4 319/5/4
f 319/5/4 318/5/4 320/5/4
f 323/5/5 322/5/5 321/5/5
f 324/5/5 322/5/5 323/5/5
f 327/5/5 326/5/5 325/5/5
f 328/5/5 326/5/5 327/5/5
f 329/5/5 327/5/5 325/5/5
f 330/5/5 326/5/5 328/5/5
f 331/5/5 329/5/5 325/5/5
f 331/5/5 330/5/5 329/5/5
f 332/5/5 326/5/5 330/5/5
f 332/5/5 330/5/5 331/5/5
f 333/5/6 334/5/6 335/5/6
f 335/5/6 334/5/6 336/5/6
f 333/5/6 335/5/6 337/5/6
f 337/5/6 335/5/6 338/5/6
f 336/5/6 334/5/6 339/5/6
f 339/5/6 334/5/6 340/5/6
f 333/5/6 337/5/6 341/5/6
f 341/5/6 337/5/6 342/5/6
f 340/5/6 334/5/6 343/5/6
f 343/5/6 334/5/6 344/5/6
f 333/5/6 341/5/6 345/5/6
f 345/5/6 341/5/6 346/5/6
f 344/5/6 334/5/6 347/5/6
f 347/5/6 334/5/6 348/5/6
f 333/5/6 345/5/6 349/5/6
f 348/5/6 334/5/6 352/5/6
f 349/5/6 350/5/6 353/5/6
f 351/5/6 352/5/6 356/5/6
f 353/5/6 354/5/6 357/5/6
f 355/5/6 356/5/6 360/5/6
f 357/5/6 358/5/6 361/5/6
f 359/5/6 360/5/6 362/5/6
f 357/5/6 361/5/6 363/5/6
f 361/5/6 362/5/6 363/5/6
f 333/5/6 349/5/6 363/5/6
f 349/5/6 353/5/6 363/5/6
f 353/5/6 357/5/6 363/5/6
f 362/5/6 360/5/6 364/5/6
f 363/5/6 362/5/6 364/5/6
f 352/5/6 334/5/6 364/5/6
f 360/5/6 356/5/6 364/5/6
f 356/5/6 352/5/6 364/5/6
f 365/5/6 366/5/6 367/5/6
f 367/5/6 366/5/6 368/5/6
f 365/5/6 367/5/6 369/5/6
f 368/5/6 366/5/6 370/5/6
f 365/5/6 369/5/6 371/5/6
f 369/5/6 370/5/6 371/5/6
f 370/5/6 366/5/6 372/5/6
f 371/5/6 370/5/6 372/5/6
f 373/2/6 374/2/6 378/2/6
f 378/2/6 374/2/6 379/2/6
f 379/2/6 374/2/6 380/2/6
f 375/2/6 376/2/6 381/2/6
f 381/2/6 376/2/6 382/2/6
f 382/2/6 376/2/6 383/2/6
f 377/2/6 378/2/6 386/2/6
f 378/2/6 379/2/6 386/2/6
f 386/2/6 379/2/6 387/2/6
f 387/2/6 379/2/6 388/2/6
f 383/2/6 384/2/6 389/2/6
f 382/2/6 383/2/6 389/2/6
f 389/2/6 384/2/6 390/2/6
f 390/2/6 384/2/6 391/2/6
f 386/2/6 387/2/6 394/2/6
f 385/2/6 386/2/6 394/2/6
f 391/2/6 392/2/6 395/2/6
f 390/2/6 391/2/6 395/2/6
f 393/2/6 394/2/6 397/2/6
f 394/2/6 387/2/6 397/2/6
f 395/2/6 396/2/6 400/2/6
f 390/2/6 395/2/6 400/2/6
f 397/2/6 398/2/6 401/2/6
f 399/2/6 400/2/6 404/2/6
f 401/2/6 402/2/6 405/2/6
f 403/2/6 404/2/6 406/2/6
f 400/2/6 396/2/6 407/2/6
f 405/2/6 406/2/6 407/2/6
f 406/2/6 404/2/6 407/2/6
f 404/2/6 400/2/6 407/2/6
f 407/2/6 396/2/6 408/2/6
f 405/2/6 407/2/6 409/2/6
f 409/2/6 407/2/6 410/2/6
f 408/2/6 396/2/6 411/2/6
f 411/2/6 396/2/6 412/2/6
f 405/2/6 409/2/6 413/2/6
f 413/2/6 409/2/6 414/2/6
f 412/2/6 396/2/6 415/2/6
f 415/2/6 396/2/6 416/2/6
f 401/2/6 405/2/6 417/2/6
f 393/2/6 397/2/6 417/2/6
f 397/2/6 401/2/6 417/2/6
f 405/2/6 413/2/6 417/2/6
f 417/2/6 413/2/6 418/2/6
f 416/2/6 396/2/6 419/2/6
f 419/2/6 396/2/6 420/2/6
f 418/2/6 413/2/6 421/2/6
f 421/2/6 413/2/6 422/2/6
f 422/2/6 413/2/6 423/2/6
f 416/2/6 419/2/6 426/2/6
f 426/2/6 419/2/6 427/2/6
f 427/2/6 419/2/6 428/2/6
f 423/2/6 424/2/6 429/2/6
f 422/2/6 423/2/6 429/2/6
f 429/2/6 424/2/6 430/2/6
f 430/2/6 424/2/6 431/2/6
f 426/2/6 427/2/6 434/2/6
f 425/2/6 426/2/6 434/2/6
f 434/2/6 427/2/6 435/2/6
f 435/2/6 427/2/6 436/2/6
f 431/2/6 432/2/6 437/2/6
f 430/2/6 431/2/6 437/2/6
f 437/2/6 432/2/6 438/2/6
f 434/2/6 435/2/6 439/2/6
f 433/2/6 434/2/6 439/2/6
f 439/2/6 435/2/6 440/2/6
f 441/4/6 442/4/6 444/4/6
f 444/4/6 442/4/6 445/4/6
f 443/4/6 444/4/6 448/4/6
f 444/3/6 445/3/6 449/3/6
f 448/4/6 444/4/6 449/4/6
f 449/3/6 445/3/6 450/3/6
f 445/4/6 446/4/6 451/4/6
f 450/3/6 445/3/6 451/3/6
f 451/4/6 446/4/6 452/4/6
f 449/3/6 450/3/6 454/3/6
f 448/3/6 449/3/6 454/3/6
f 450/1/6 451/1/6 455/1/6
f 454/3/6 450/3/6 455/3/6
f 451/3/6 452/3/6 456/3/6
f 455/1/6 451/1/6 456/1/6
f 447/4/6 448/4/6 457/4/6
f 448/3/6 454/3/6 458/3/6
f 457/4/6 448/4/6 458/4/6
f 454/1/6 455/1/6 459/1/6
f 458/3/6 454/3/6 459/3/6
f 455/3/6 456/3/6 460/3/6
f 459/1/6 455/1/6 460/1/6
f 456/3/6 452/3/6 461/3/6
f 460/3/6 456/3/6 461/3/6
f 452/4/6 453/4/6 462/4/6
f 461/3/6 452/3/6 462/3/6
f 462/4/6 453/4/6 463/4/6
f 458/4/6 459/4/6 464/4/6
f 460/3/6 461/3/6 465/3/6
f 464/4/6 459/4/6 465/4/6
f 459/3/6 460/3/6 465/3/6
f 461/4/6 462/4/6 466/4/6
f 465/3/6 461/3/6 466/3/6
f 466/4/6 462/4/6 467/4/6
f 465/4/6 466/4/6 468/4/6
f 468/4/6 466/4/6 469/4/6
f 470/4/6 471/4/6 473/4/6
f 473/4/6 471/4/6 474/4/6
f 472/4/6 473/4/6 477/4/6
f 473/3/6 474/3/6 478/3/6
f 477/4/6 473/4/6 478/4/6
f 478/3/6 474/3/6 479/3/6
f 474/4/6 475/4/6 480/4/6
f 479/3/6 474/3/6 480/3/6
f 480/4/6 475/4/6 481/4/6
f 478/3/6 479/3/6 483/3/6
f 477/3/6 478/3/6 483/3/6
f 479/1/6 480/1/6 484/1/6
f 483/3/6 479/3/6 484/3/6
f 480/3/6 481/3/6 485/3/6
f 484/1/6 480/1/6 485/1/6
f 476/4/6 477/4/6 486/4/6
f 477/3/6 483/3/6 487/3/6
f 486/4/6 477/4/6 487/4/6
f 483/1/6 484/1/6 488/1/6
f 487/3/6 483/3/6 488/3/6
f 484/3/6 485/3/6 489/3/6
f 488/1/6 484/1/6 489/1/6
f 485/3/6 481/3/6 490/3/6
f 489/3/6 485/3/6 490/3/6
f 481/4/6 482/4/6 491/4/6
f 490/3/6 481/3/6 491/3/6
f 491/4/6 482/4/6 492/4/6
f 487/4/6 488/4/6 493/4/6
f 489/3/6 490/3/6 494/3/6
f 493/4/6 488/4/6 494/4/6
f 488/3/6 489/3/6 494/3/6
f 490/4/6 491/4/6 495/4/6
f 494/3/6 490/3/6 495/3/6
f 495/4/6 491/4/6 496/4/6
f 494/4/6 495/4/6 497/4/6
f 497/4/6 495/4/6 498/4/6
