# MagicaVoxel @ Ephtracy

# group
o 

# material
mtllib SlicedCheese.mtl
usemtl palette

# normals
vn -1 0 0
vn 1 0 0
vn 0 0 1
vn 0 0 -1
vn 0 -1 0
vn 0 1 0

# texcoords
vt 0.0449219 0.5
vt 0.0683594 0.5
vt 0.958984 0.5

# verts
v -0.9 0.1 0.9
v -0.9 0.1 -1.1
v -0.9 0.3 0.9
v -0.9 0.3 -1.1
v -0.6 0 0.6
v -0.6 0 -0.8
v -0.6 0.1 0.6
v -0.6 0.1 -0.8
v -0.5 0.2 0.5
v -0.5 0.2 0.3
v -0.5 0.9 0.5
v -0.5 0.9 0.3
v -0.4 0.2 0.3
v -0.4 0.2 0.1
v -0.4 0.4 0.3
v -0.4 0.4 0.1
v -0.4 0.6 0.3
v -0.4 0.6 0.1
v -0.4 0.9 0.3
v -0.4 0.9 0.1
v -0.3 0.2 0.1
v -0.3 0.2 -0.1
v -0.3 0.4 0.3
v -0.3 0.4 0.2
v -0.3 0.4 0.1
v -0.3 0.6 0.3
v -0.3 0.6 0.2
v -0.3 0.6 0.1
v -0.3 0.9 0.1
v -0.3 0.9 -0.1
v -0.2 0.2 -0.1
v -0.2 0.2 -0.3
v -0.2 0.4 0.4
v -0.2 0.4 0.3
v -0.2 0.4 0.2
v -0.2 0.4 0.1
v -0.2 0.5 -0.1
v -0.2 0.5 -0.3
v -0.2 0.6 0.4
v -0.2 0.6 0.3
v -0.2 0.6 0.2
v -0.2 0.6 0.1
v -0.2 0.7 -0.1
v -0.2 0.7 -0.3
v -0.2 0.9 -0.1
v -0.2 0.9 -0.3
v -0.1 0.2 -0.3
v -0.1 0.2 -0.5
v -0.1 0.5 -0.3
v -0.1 0.7 0.3
v -0.1 0.7 0.1
v -0.1 0.7 -0.3
v -0.1 0.9 0.3
v -0.1 0.9 0.1
v -0.1 0.9 -0.3
v -0.1 0.9 -0.5
v 0 0.2 -0.5
v 0 0.2 -0.6
v 0 0.2 -0.7
v 0 0.5 -0.1
v 0 0.5 -0.3
v 0 0.7 -0.1
v 0 0.7 -0.3
v 0 0.9 -0.5
v 0 0.9 -0.6
v 0 0.9 -0.7
v 0.1 0.5 0.2
v 0.1 0.5 0
v 0.1 0.6 0.1
v 0.1 0.6 0
v 0.1 0.7 0.2
v 0.1 0.7 0.1
v 0.2 0.7 0
v 0.2 0.7 -0.2
v 0.2 0.9 0
v 0.2 0.9 -0.2
v 0.5 0.3 0
v 0.5 0.3 -0.1
v 0.5 0.5 0
v 0.5 0.5 -0.1
v 1 0.2 0.8
v 1 0.2 -1
v 1 0.3 0.8
v 1 0.3 -1
v -0.8 0.2 0.8
v -0.8 0.2 -1
v -0.8 0.3 0.8
v -0.8 0.3 -1
v -0.4 0.4 0.5
v -0.4 0.4 0.4
v -0.4 0.6 0.5
v -0.4 0.6 0.4
v -0.3 0.2 0.5
v -0.3 0.2 0.4
v -0.3 0.4 0.5
v -0.3 0.4 0.4
v -0.3 0.4 0.3
v -0.3 0.6 0.5
v -0.3 0.6 0.4
v -0.3 0.6 0.3
v -0.3 0.7 0.3
v -0.3 0.7 0.1
v -0.3 0.9 0.5
v -0.3 0.9 0.4
v -0.3 0.9 0.3
v -0.3 0.9 0.1
v -0.2 0.5 0.3
v -0.2 0.5 0.2
v -0.2 0.6 0.3
v -0.2 0.6 0.2
v -0.1 0.2 0.4
v -0.1 0.2 0.3
v -0.1 0.5 0.3
v -0.1 0.5 0.2
v -0.1 0.5 0
v -0.1 0.6 0.3
v -0.1 0.6 0.2
v -0.1 0.6 0.1
v -0.1 0.6 0
v -0.1 0.7 0.3
v -0.1 0.7 0.1
v -0.1 0.9 0.4
v -0.1 0.9 0.3
v 0 0.7 0
v 0 0.7 -0.2
v 0 0.9 0
v 0 0.9 -0.2
v 0.1 0.2 0.3
v 0.1 0.2 0.2
v 0.1 0.5 0.3
v 0.1 0.5 0.2
v 0.1 0.7 0.3
v 0.1 0.7 0.2
v 0.1 0.9 0.3
v 0.1 0.9 0.2
v 0.2 0.2 -0.6
v 0.2 0.2 -0.7
v 0.2 0.9 -0.6
v 0.2 0.9 -0.7
v 0.3 0.2 0.2
v 0.3 0.2 0.1
v 0.3 0.2 -0.5
v 0.3 0.2 -0.6
v 0.3 0.3 0.1
v 0.3 0.3 -0.1
v 0.3 0.5 0.1
v 0.3 0.5 -0.1
v 0.3 0.9 0.2
v 0.3 0.9 0.1
v 0.3 0.9 -0.5
v 0.3 0.9 -0.6
v 0.4 0.2 -0.4
v 0.4 0.2 -0.5
v 0.4 0.9 -0.4
v 0.4 0.9 -0.5
v 0.5 0.2 0.1
v 0.5 0.2 0
v 0.5 0.2 -0.3
v 0.5 0.2 -0.4
v 0.5 0.3 0.1
v 0.5 0.3 0
v 0.5 0.5 0.1
v 0.5 0.5 0
v 0.5 0.9 0.1
v 0.5 0.9 0
v 0.5 0.9 -0.3
v 0.5 0.9 -0.4
v 0.6 0.2 -0.2
v 0.6 0.2 -0.3
v 0.6 0.9 -0.2
v 0.6 0.9 -0.3
v 0.7 0.2 0
v 0.7 0.2 -0.2
v 0.7 0.9 0
v 0.7 0.9 -0.2
v 0.8 0 0.6
v 0.8 0 -0.8
v 0.8 0.1 0.6
v 0.8 0.1 -0.8
v 1.1 0.1 0.9
v 1.1 0.1 -1.1
v 1.1 0.3 0.9
v 1.1 0.3 -1.1
v -0.9 0.1 0.9
v -0.9 0.3 0.9
v 1.1 0.1 0.9
v 1.1 0.3 0.9
v -0.6 0 0.6
v -0.6 0.1 0.6
v 0.8 0 0.6
v 0.8 0.1 0.6
v -0.5 0.2 0.5
v -0.5 0.9 0.5
v -0.4 0.4 0.5
v -0.4 0.6 0.5
v -0.3 0.2 0.5
v -0.3 0.4 0.5
v -0.3 0.6 0.5
v -0.3 0.9 0.5
v -0.4 0.4 0.4
v -0.4 0.6 0.4
v -0.3 0.2 0.4
v -0.3 0.4 0.4
v -0.3 0.6 0.4
v -0.3 0.9 0.4
v -0.2 0.4 0.4
v -0.2 0.6 0.4
v -0.1 0.2 0.4
v -0.1 0.9 0.4
v -0.3 0.4 0.3
v -0.3 0.6 0.3
v -0.2 0.4 0.3
v -0.2 0.6 0.3
v -0.1 0.2 0.3
v -0.1 0.5 0.3
v -0.1 0.7 0.3
v -0.1 0.9 0.3
v 0.1 0.2 0.3
v 0.1 0.5 0.3
v 0.1 0.7 0.3
v 0.1 0.9 0.3
v -0.2 0.5 0.2
v -0.2 0.6 0.2
v -0.1 0.5 0.2
v -0.1 0.6 0.2
v 0.1 0.2 0.2
v 0.1 0.5 0.2
v 0.1 0.7 0.2
v 0.1 0.9 0.2
v 0.3 0.2 0.2
v 0.3 0.9 0.2
v -0.3 0.4 0.1
v -0.3 0.6 0.1
v -0.3 0.7 0.1
v -0.3 0.9 0.1
v -0.2 0.4 0.1
v -0.2 0.6 0.1
v -0.1 0.6 0.1
v -0.1 0.7 0.1
v -0.1 0.9 0.1
v 0.1 0.6 0.1
v 0.1 0.7 0.1
v 0.3 0.2 0.1
v 0.3 0.3 0.1
v 0.3 0.5 0.1
v 0.3 0.9 0.1
v 0.5 0.2 0.1
v 0.5 0.3 0.1
v 0.5 0.5 0.1
v 0.5 0.9 0.1
v -0.1 0.5 0
v -0.1 0.6 0
v 0.1 0.5 0
v 0.1 0.6 0
v 0.5 0.2 0
v 0.5 0.3 0
v 0.5 0.5 0
v 0.5 0.9 0
v 0.6 0.2 0
v 0.6 0.9 0
v 0.7 0.2 0
v 0.7 0.9 0
v 0.3 0.3 -0.1
v 0.3 0.5 -0.1
v 0.5 0.3 -0.1
v 0.5 0.5 -0.1
v 0 0.7 -0.2
v 0 0.9 -0.2
v 0.2 0.7 -0.2
v 0.2 0.9 -0.2
v -0.1 0.5 -0.3
v -0.1 0.7 -0.3
v 0 0.5 -0.3
v 0 0.7 -0.3
v -0.8 0.2 -1
v -0.8 0.3 -1
v 1 0.2 -1
v 1 0.3 -1
v -0.8 0.2 0.8
v -0.8 0.3 0.8
v 1 0.2 0.8
v 1 0.3 0.8
v -0.5 0.2 0.3
v -0.5 0.9 0.3
v -0.4 0.2 0.3
v -0.4 0.4 0.3
v -0.4 0.6 0.3
v -0.4 0.9 0.3
v -0.3 0.4 0.3
v -0.3 0.6 0.3
v -0.3 0.7 0.3
v -0.3 0.9 0.3
v -0.2 0.5 0.3
v -0.2 0.6 0.3
v -0.1 0.5 0.3
v -0.1 0.6 0.3
v -0.1 0.7 0.3
v -0.1 0.9 0.3
v -0.3 0.4 0.2
v -0.3 0.6 0.2
v -0.2 0.4 0.2
v -0.2 0.6 0.2
v -0.4 0.2 0.1
v -0.4 0.4 0.1
v -0.4 0.6 0.1
v -0.4 0.9 0.1
v -0.3 0.2 0.1
v -0.3 0.4 0.1
v -0.3 0.6 0.1
v -0.3 0.9 0.1
v 0 0.7 0
v 0 0.9 0
v 0.2 0.7 0
v 0.2 0.9 0
v -0.3 0.2 -0.1
v -0.3 0.9 -0.1
v -0.2 0.2 -0.1
v -0.2 0.5 -0.1
v -0.2 0.7 -0.1
v -0.2 0.9 -0.1
v 0 0.5 -0.1
v 0 0.7 -0.1
v 0.6 0.2 -0.2
v 0.6 0.9 -0.2
v 0.7 0.2 -0.2
v 0.7 0.9 -0.2
v -0.2 0.2 -0.3
v -0.2 0.5 -0.3
v -0.2 0.7 -0.3
v -0.2 0.9 -0.3
v -0.1 0.2 -0.3
v -0.1 0.5 -0.3
v -0.1 0.7 -0.3
v -0.1 0.9 -0.3
v 0.5 0.2 -0.3
v 0.5 0.9 -0.3
v 0.6 0.2 -0.3
v 0.6 0.9 -0.3
v 0.4 0.2 -0.4
v 0.4 0.9 -0.4
v 0.5 0.2 -0.4
v 0.5 0.9 -0.4
v -0.1 0.2 -0.5
v -0.1 0.9 -0.5
v 0 0.2 -0.5
v 0 0.9 -0.5
v 0.3 0.2 -0.5
v 0.3 0.9 -0.5
v 0.4 0.2 -0.5
v 0.4 0.9 -0.5
v 0.2 0.2 -0.6
v 0.2 0.9 -0.6
v 0.3 0.2 -0.6
v 0.3 0.9 -0.6
v 0 0.2 -0.7
v 0 0.9 -0.7
v 0.2 0.2 -0.7
v 0.2 0.9 -0.7
v -0.6 0 -0.8
v -0.6 0.1 -0.8
v 0.8 0 -0.8
v 0.8 0.1 -0.8
v -0.9 0.1 -1.1
v -0.9 0.3 -1.1
v 1.1 0.1 -1.1
v 1.1 0.3 -1.1
v -0.6 0 0.6
v 0.8 0 0.6
v -0.6 0 -0.8
v 0.8 0 -0.8
v -0.9 0.1 0.9
v 1.1 0.1 0.9
v -0.6 0.1 0.6
v 0.8 0.1 0.6
v -0.6 0.1 -0.8
v 0.8 0.1 -0.8
v -0.9 0.1 -1.1
v 1.1 0.1 -1.1
v 0.3 0.5 0.1
v 0.5 0.5 0.1
v 0.5 0.5 0
v 0.3 0.5 -0.1
v 0.5 0.5 -0.1
v -0.4 0.6 0.5
v -0.3 0.6 0.5
v -0.4 0.6 0.4
v -0.3 0.6 0.4
v -0.2 0.6 0.4
v -0.4 0.6 0.3
v -0.3 0.6 0.3
v -0.2 0.6 0.3
v -0.1 0.6 0.3
v -0.3 0.6 0.2
v -0.2 0.6 0.2
v -0.1 0.6 0.2
v -0.4 0.6 0.1
v -0.3 0.6 0.1
v -0.2 0.6 0.1
v -0.1 0.6 0.1
v 0.1 0.6 0.1
v -0.1 0.6 0
v 0.1 0.6 0
v -0.1 0.7 0.3
v 0.1 0.7 0.3
v 0.1 0.7 0.2
v -0.1 0.7 0.1
v 0.1 0.7 0.1
v -0.2 0.7 -0.1
v 0 0.7 -0.1
v -0.2 0.7 -0.3
v -0.1 0.7 -0.3
v 0 0.7 -0.3
v -0.8 0.2 0.8
v 1 0.2 0.8
v -0.5 0.2 0.5
v -0.3 0.2 0.5
v -0.3 0.2 0.4
v -0.1 0.2 0.4
v -0.5 0.2 0.3
v -0.4 0.2 0.3
v -0.1 0.2 0.3
v 0.1 0.2 0.3
v 0.1 0.2 0.2
v 0.3 0.2 0.2
v -0.4 0.2 0.1
v -0.3 0.2 0.1
v 0.3 0.2 0.1
v 0.5 0.2 0.1
v 0.5 0.2 0
v 0.6 0.2 0
v 0.7 0.2 0
v -0.3 0.2 -0.1
v -0.2 0.2 -0.1
v 0.6 0.2 -0.2
v 0.7 0.2 -0.2
v -0.2 0.2 -0.3
v -0.1 0.2 -0.3
v 0.5 0.2 -0.3
v 0.6 0.2 -0.3
v 0.4 0.2 -0.4
v 0.5 0.2 -0.4
v -0.1 0.2 -0.5
v 0 0.2 -0.5
v 0.3 0.2 -0.5
v 0.4 0.2 -0.5
v 0 0.2 -0.6
v 0.2 0.2 -0.6
v 0.3 0.2 -0.6
v 0 0.2 -0.7
v 0.2 0.2 -0.7
v -0.8 0.2 -1
v 1 0.2 -1
v -0.9 0.3 0.9
v 1.1 0.3 0.9
v -0.8 0.3 0.8
v 1 0.3 0.8
v 0.3 0.3 0.1
v 0.5 0.3 0.1
v 0.5 0.3 0
v 0.3 0.3 -0.1
v 0.5 0.3 -0.1
v -0.8 0.3 -1
v 1 0.3 -1
v -0.9 0.3 -1.1
v 1.1 0.3 -1.1
v -0.4 0.4 0.5
v -0.3 0.4 0.5
v -0.4 0.4 0.4
v -0.3 0.4 0.4
v -0.2 0.4 0.4
v -0.4 0.4 0.3
v -0.3 0.4 0.3
v -0.2 0.4 0.3
v -0.3 0.4 0.2
v -0.2 0.4 0.2
v -0.4 0.4 0.1
v -0.3 0.4 0.1
v -0.2 0.4 0.1
v -0.2 0.5 0.3
v -0.1 0.5 0.3
v 0.1 0.5 0.3
v -0.2 0.5 0.2
v -0.1 0.5 0.2
v 0.1 0.5 0.2
v -0.1 0.5 0
v 0.1 0.5 0
v -0.2 0.5 -0.1
v 0 0.5 -0.1
v -0.2 0.5 -0.3
v -0.1 0.5 -0.3
v 0 0.5 -0.3
v -0.3 0.7 0.3
v -0.1 0.7 0.3
v -0.3 0.7 0.1
v -0.1 0.7 0.1
v 0 0.7 0
v 0.2 0.7 0
v 0 0.7 -0.2
v 0.2 0.7 -0.2
v -0.5 0.9 0.5
v -0.3 0.9 0.5
v -0.3 0.9 0.4
v -0.1 0.9 0.4
v -0.5 0.9 0.3
v -0.4 0.9 0.3
v -0.3 0.9 0.3
v -0.1 0.9 0.3
v 0.1 0.9 0.3
v 0.1 0.9 0.2
v 0.3 0.9 0.2
v -0.4 0.9 0.1
v -0.3 0.9 0.1
v -0.1 0.9 0.1
v 0.3 0.9 0.1
v 0.5 0.9 0.1
v 0 0.9 0
v 0.2 0.9 0
v 0.5 0.9 0
v 0.6 0.9 0
v 0.7 0.9 0
v -0.3 0.9 -0.1
v -0.2 0.9 -0.1
v 0 0.9 -0.2
v 0.2 0.9 -0.2
v 0.5 0.9 -0.2
v 0.6 0.9 -0.2
v 0.7 0.9 -0.2
v -0.2 0.9 -0.3
v -0.1 0.9 -0.3
v 0.4 0.9 -0.3
v 0.5 0.9 -0.3
v 0.6 0.9 -0.3
v 0.3 0.9 -0.4
v 0.4 0.9 -0.4
v 0.5 0.9 -0.4
v -0.1 0.9 -0.5
v 0 0.9 -0.5
v 0.2 0.9 -0.5
v 0.3 0.9 -0.5
v 0.4 0.9 -0.5
v 0 0.9 -0.6
v 0.2 0.9 -0.6
v 0.3 0.9 -0.6
v 0 0.9 -0.7
v 0.2 0.9 -0.7

# faces
f 3/3/1 2/3/1 1/3/1
f 4/3/1 2/3/1 3/3/1
f 7/3/1 6/3/1 5/3/1
f 8/3/1 6/3/1 7/3/1
f 11/1/1 10/1/1 9/1/1
f 12/1/1 10/1/1 11/1/1
f 15/1/1 14/1/1 13/1/1
f 16/1/1 14/1/1 15/1/1
f 19/1/1 18/1/1 17/1/1
f 20/1/1 18/1/1 19/1/1
f 25/1/1 22/1/1 21/1/1
f 26/2/1 24/2/1 23/2/1
f 27/2/1 24/2/1 26/2/1
f 28/1/1 22/1/1 25/1/1
f 29/1/1 22/1/1 28/1/1
f 30/1/1 22/1/1 29/1/1
f 37/1/1 32/1/1 31/1/1
f 38/1/1 32/1/1 37/1/1
f 39/1/1 34/1/1 33/1/1
f 40/1/1 34/1/1 39/1/1
f 41/2/1 36/2/1 35/2/1
f 42/2/1 36/2/1 41/2/1
f 45/1/1 44/1/1 43/1/1
f 46/1/1 44/1/1 45/1/1
f 49/1/1 48/1/1 47/1/1
f 52/1/1 48/1/1 49/1/1
f 53/1/1 51/1/1 50/1/1
f 54/1/1 51/1/1 53/1/1
f 55/1/1 48/1/1 52/1/1
f 56/1/1 48/1/1 55/1/1
f 62/2/1 61/2/1 60/2/1
f 63/2/1 61/2/1 62/2/1
f 64/1/1 58/1/1 57/1/1
f 65/2/1 59/2/1 58/2/1
f 65/1/1 58/1/1 64/1/1
f 66/2/1 59/2/1 65/2/1
f 69/1/1 68/1/1 67/1/1
f 70/1/1 68/1/1 69/1/1
f 71/1/1 69/1/1 67/1/1
f 72/1/1 69/1/1 71/1/1
f 75/1/1 74/1/1 73/1/1
f 76/1/1 74/1/1 75/1/1
f 79/1/1 78/1/1 77/1/1
f 80/1/1 78/1/1 79/1/1
f 83/3/1 82/3/1 81/3/1
f 84/3/1 82/3/1 83/3/1
f 85/3/2 86/3/2 87/3/2
f 87/3/2 86/3/2 88/3/2
f 89/1/2 90/1/2 91/1/2
f 91/1/2 90/1/2 92/1/2
f 93/1/2 94/1/2 95/1/2
f 95/1/2 94/1/2 96/1/2
f 96/1/2 97/1/2 99/1/2
f 99/1/2 97/1/2 100/1/2
f 98/1/2 99/1/2 103/1/2
f 103/1/2 99/1/2 104/1/2
f 101/1/2 102/1/2 105/1/2
f 105/1/2 102/1/2 106/1/2
f 107/2/2 108/2/2 109/2/2
f 109/2/2 108/2/2 110/2/2
f 111/1/2 112/1/2 113/1/2
f 111/1/2 113/1/2 116/1/2
f 114/2/2 115/2/2 117/2/2
f 117/2/2 115/2/2 118/2/2
f 118/2/2 115/2/2 119/2/2
f 111/1/2 116/1/2 120/1/2
f 116/2/2 117/2/2 120/2/2
f 117/2/2 118/2/2 120/2/2
f 120/2/2 118/2/2 121/2/2
f 111/1/2 120/1/2 122/1/2
f 122/1/2 120/1/2 123/1/2
f 124/1/2 125/1/2 126/1/2
f 126/1/2 125/1/2 127/1/2
f 128/1/2 129/1/2 130/1/2
f 130/1/2 129/1/2 131/1/2
f 132/1/2 133/1/2 134/1/2
f 134/1/2 133/1/2 135/1/2
f 136/2/2 137/2/2 138/2/2
f 138/2/2 137/2/2 139/2/2
f 140/1/2 141/1/2 144/1/2
f 140/1/2 144/1/2 146/1/2
f 144/2/2 145/2/2 146/2/2
f 146/2/2 145/2/2 147/2/2
f 140/1/2 146/1/2 148/1/2
f 148/1/2 146/1/2 149/1/2
f 142/2/2 143/2/2 150/2/2
f 150/2/2 143/2/2 151/2/2
f 152/2/2 153/2/2 154/2/2
f 154/2/2 153/2/2 155/2/2
f 156/1/2 157/1/2 160/1/2
f 160/1/2 157/1/2 161/1/2
f 162/1/2 163/1/2 164/1/2
f 164/1/2 163/1/2 165/1/2
f 158/2/2 159/2/2 166/2/2
f 166/2/2 159/2/2 167/2/2
f 168/2/2 169/2/2 170/2/2
f 170/2/2 169/2/2 171/2/2
f 172/2/2 173/2/2 174/2/2
f 174/2/2 173/2/2 175/2/2
f 176/3/2 177/3/2 178/3/2
f 178/3/2 177/3/2 179/3/2
f 180/3/2 181/3/2 182/3/2
f 182/3/2 181/3/2 183/3/2
f 186/3/3 185/3/3 184/3/3
f 187/3/3 185/3/3 186/3/3
f 190/3/3 189/3/3 188/3/3
f 191/3/3 189/3/3 190/3/3
f 194/1/3 193/1/3 192/1/3
f 195/1/3 193/1/3 194/1/3
f 196/1/3 194/1/3 192/1/3
f 197/1/3 194/1/3 196/1/3
f 198/1/3 193/1/3 195/1/3
f 199/1/3 193/1/3 198/1/3
f 203/1/3 201/1/3 200/1/3
f 204/1/3 201/1/3 203/1/3
f 206/1/3 203/1/3 202/1/3
f 207/1/3 205/1/3 204/1/3
f 208/1/3 206/1/3 202/1/3
f 208/1/3 207/1/3 206/1/3
f 209/1/3 205/1/3 207/1/3
f 209/1/3 207/1/3 208/1/3
f 212/2/3 211/2/3 210/2/3
f 213/2/3 211/2/3 212/2/3
f 218/1/3 215/1/3 214/1/3
f 219/1/3 215/1/3 218/1/3
f 220/1/3 217/1/3 216/1/3
f 221/1/3 217/1/3 220/1/3
f 224/2/3 223/2/3 222/2/3
f 225/2/3 223/2/3 224/2/3
f 230/1/3 227/1/3 226/1/3
f 230/1/3 229/1/3 228/1/3
f 230/1/3 228/1/3 227/1/3
f 231/1/3 229/1/3 230/1/3
f 236/1/3 233/1/3 232/1/3
f 237/1/3 233/1/3 236/1/3
f 239/1/3 235/1/3 234/1/3
f 240/1/3 235/1/3 239/1/3
f 241/2/3 239/2/3 238/2/3
f 242/2/3 239/2/3 241/2/3
f 247/1/3 244/1/3 243/1/3
f 248/1/3 244/1/3 247/1/3
f 249/1/3 246/1/3 245/1/3
f 250/1/3 246/1/3 249/1/3
f 253/2/3 252/2/3 251/2/3
f 254/2/3 252/2/3 253/2/3
f 259/1/3 257/1/3 256/1/3
f 259/1/3 258/1/3 257/1/3
f 259/1/3 256/1/3 255/1/3
f 260/1/3 258/1/3 259/1/3
f 261/2/3 260/2/3 259/2/3
f 262/2/3 260/2/3 261/2/3
f 265/2/3 264/2/3 263/2/3
f 266/2/3 264/2/3 265/2/3
f 269/1/3 268/1/3 267/1/3
f 270/1/3 268/1/3 269/1/3
f 273/1/3 272/1/3 271/1/3
f 274/1/3 272/1/3 273/1/3
f 277/3/3 276/3/3 275/3/3
f 278/3/3 276/3/3 277/3/3
f 279/3/4 280/3/4 281/3/4
f 281/3/4 280/3/4 282/3/4
f 283/1/4 284/1/4 285/1/4
f 285/1/4 284/1/4 286/1/4
f 286/1/4 284/1/4 287/1/4
f 287/1/4 284/1/4 288/1/4
f 286/1/4 287/1/4 289/1/4
f 289/1/4 287/1/4 290/1/4
f 293/1/4 294/1/4 295/1/4
f 295/1/4 294/1/4 296/1/4
f 291/1/4 292/1/4 297/1/4
f 297/1/4 292/1/4 298/1/4
f 299/2/4 300/2/4 301/2/4
f 301/2/4 300/2/4 302/2/4
f 303/1/4 304/1/4 307/1/4
f 307/1/4 304/1/4 308/1/4
f 305/1/4 306/1/4 309/1/4
f 309/1/4 306/1/4 310/1/4
f 311/1/4 312/1/4 313/1/4
f 313/1/4 312/1/4 314/1/4
f 315/1/4 316/1/4 317/1/4
f 317/1/4 316/1/4 318/1/4
f 318/1/4 316/1/4 319/1/4
f 319/1/4 316/1/4 320/1/4
f 318/2/4 319/2/4 321/2/4
f 321/2/4 319/2/4 322/2/4
f 323/2/4 324/2/4 325/2/4
f 325/2/4 324/2/4 326/2/4
f 327/1/4 328/1/4 331/1/4
f 331/1/4 328/1/4 332/1/4
f 329/1/4 330/1/4 333/1/4
f 333/1/4 330/1/4 334/1/4
f 335/2/4 336/2/4 337/2/4
f 337/2/4 336/2/4 338/2/4
f 339/2/4 340/2/4 341/2/4
f 341/2/4 340/2/4 342/2/4
f 343/1/4 344/1/4 345/1/4
f 345/1/4 344/1/4 346/1/4
f 347/2/4 348/2/4 349/2/4
f 349/2/4 348/2/4 350/2/4
f 351/2/4 352/2/4 353/2/4
f 353/2/4 352/2/4 354/2/4
f 355/2/4 356/2/4 357/2/4
f 357/2/4 356/2/4 358/2/4
f 359/3/4 360/3/4 361/3/4
f 361/3/4 360/3/4 362/3/4
f 363/3/4 364/3/4 365/3/4
f 365/3/4 364/3/4 366/3/4
f 369/3/5 368/3/5 367/3/5
f 370/3/5 368/3/5 369/3/5
f 373/3/5 372/3/5 371/3/5
f 374/3/5 372/3/5 373/3/5
f 375/3/5 373/3/5 371/3/5
f 376/3/5 372/3/5 374/3/5
f 377/3/5 375/3/5 371/3/5
f 377/3/5 376/3/5 375/3/5
f 378/3/5 372/3/5 376/3/5
f 378/3/5 376/3/5 377/3/5
f 381/1/5 380/1/5 379/1/5
f 382/1/5 381/1/5 379/1/5
f 383/1/5 381/1/5 382/1/5
f 386/1/5 385/1/5 384/1/5
f 387/1/5 385/1/5 386/1/5
f 390/1/5 388/1/5 387/1/5
f 391/1/5 388/1/5 390/1/5
f 393/1/5 390/1/5 389/1/5
f 394/2/5 392/2/5 391/2/5
f 395/2/5 392/2/5 394/2/5
f 396/1/5 393/1/5 389/1/5
f 397/2/5 394/2/5 393/2/5
f 397/1/5 393/1/5 396/1/5
f 398/2/5 394/2/5 397/2/5
f 401/2/5 400/2/5 399/2/5
f 402/2/5 400/2/5 401/2/5
f 405/1/5 404/1/5 403/1/5
f 406/1/5 405/1/5 403/1/5
f 407/1/5 405/1/5 406/1/5
f 410/1/5 409/1/5 408/1/5
f 411/1/5 409/1/5 410/1/5
f 412/1/5 409/1/5 411/1/5
f 413/3/6 414/3/6 415/3/6
f 415/3/6 414/3/6 416/3/6
f 416/3/6 414/3/6 417/3/6
f 417/3/6 414/3/6 418/3/6
f 413/3/6 415/3/6 419/3/6
f 418/3/6 414/3/6 421/3/6
f 421/3/6 414/3/6 422/3/6
f 422/3/6 414/3/6 423/3/6
f 423/3/6 414/3/6 424/3/6
f 419/3/6 420/3/6 425/3/6
f 424/3/6 414/3/6 427/3/6
f 427/3/6 414/3/6 428/3/6
f 428/3/6 414/3/6 429/3/6
f 429/3/6 414/3/6 430/3/6
f 430/3/6 414/3/6 431/3/6
f 425/3/6 426/3/6 432/3/6
f 431/3/6 414/3/6 435/3/6
f 432/3/6 433/3/6 436/3/6
f 434/3/6 435/3/6 439/3/6
f 438/3/6 439/3/6 441/3/6
f 436/3/6 437/3/6 442/3/6
f 440/3/6 441/3/6 445/3/6
f 442/3/6 443/3/6 446/3/6
f 444/3/6 445/3/6 448/3/6
f 442/3/6 446/3/6 449/3/6
f 447/3/6 448/3/6 450/3/6
f 442/3/6 449/3/6 451/3/6
f 449/3/6 450/3/6 451/3/6
f 413/3/6 419/3/6 451/3/6
f 419/3/6 425/3/6 451/3/6
f 425/3/6 432/3/6 451/3/6
f 432/3/6 436/3/6 451/3/6
f 436/3/6 442/3/6 451/3/6
f 450/3/6 448/3/6 452/3/6
f 451/3/6 450/3/6 452/3/6
f 448/3/6 445/3/6 452/3/6
f 435/3/6 414/3/6 452/3/6
f 441/3/6 439/3/6 452/3/6
f 445/3/6 441/3/6 452/3/6
f 439/3/6 435/3/6 452/3/6
f 453/3/6 454/3/6 455/3/6
f 455/3/6 454/3/6 456/3/6
f 457/1/6 458/1/6 459/1/6
f 457/1/6 459/1/6 460/1/6
f 460/1/6 459/1/6 461/1/6
f 453/3/6 455/3/6 462/3/6
f 456/3/6 454/3/6 463/3/6
f 453/3/6 462/3/6 464/3/6
f 462/3/6 463/3/6 464/3/6
f 463/3/6 454/3/6 465/3/6
f 464/3/6 463/3/6 465/3/6
f 466/1/6 467/1/6 468/1/6
f 468/1/6 467/1/6 469/1/6
f 469/1/6 470/1/6 472/1/6
f 472/1/6 470/1/6 473/1/6
f 471/1/6 472/1/6 474/1/6
f 471/1/6 474/1/6 476/1/6
f 474/1/6 475/1/6 476/1/6
f 476/1/6 475/1/6 477/1/6
f 477/1/6 475/1/6 478/1/6
f 479/2/6 480/2/6 482/2/6
f 480/1/6 481/1/6 483/1/6
f 482/2/6 480/2/6 483/2/6
f 483/1/6 481/1/6 484/1/6
f 483/1/6 484/1/6 485/1/6
f 485/1/6 484/1/6 486/1/6
f 487/1/6 488/1/6 489/1/6
f 489/1/6 488/1/6 490/1/6
f 490/1/6 488/1/6 491/1/6
f 492/2/6 493/2/6 494/2/6
f 494/2/6 493/2/6 495/2/6
f 496/2/6 497/2/6 498/2/6
f 498/2/6 497/2/6 499/2/6
f 500/1/6 501/1/6 502/1/6
f 500/1/6 502/1/6 504/1/6
f 502/1/6 503/1/6 504/1/6
f 504/1/6 503/1/6 505/1/6
f 505/1/6 503/1/6 506/1/6
f 506/1/6 503/1/6 507/1/6
f 507/1/6 508/1/6 509/1/6
f 505/1/6 506/1/6 511/1/6
f 511/1/6 506/1/6 512/1/6
f 509/1/6 510/1/6 513/1/6
f 507/1/6 509/1/6 513/1/6
f 513/1/6 510/1/6 514/1/6
f 514/1/6 515/1/6 516/1/6
f 513/1/6 514/1/6 516/1/6
f 512/1/6 513/1/6 516/1/6
f 516/1/6 515/1/6 517/1/6
f 517/1/6 515/1/6 518/1/6
f 512/1/6 516/1/6 521/1/6
f 521/1/6 516/1/6 522/1/6
f 522/1/6 516/1/6 523/1/6
f 518/1/6 519/1/6 524/1/6
f 517/1/6 518/1/6 524/1/6
f 524/1/6 519/1/6 525/1/6
f 519/2/6 520/2/6 526/2/6
f 525/1/6 519/1/6 526/1/6
f 526/2/6 520/2/6 527/2/6
f 524/1/6 525/1/6 528/1/6
f 522/1/6 523/1/6 528/1/6
f 523/1/6 524/1/6 528/1/6
f 528/1/6 525/1/6 529/1/6
f 529/1/6 525/1/6 530/1/6
f 525/2/6 526/2/6 531/2/6
f 530/1/6 525/1/6 531/1/6
f 531/2/6 526/2/6 532/2/6
f 529/1/6 530/1/6 533/1/6
f 530/2/6 531/2/6 534/2/6
f 533/1/6 530/1/6 534/1/6
f 534/2/6 531/2/6 535/2/6
f 529/1/6 533/1/6 536/1/6
f 536/1/6 533/1/6 537/1/6
f 537/1/6 533/1/6 538/1/6
f 533/2/6 534/2/6 539/2/6
f 538/1/6 533/1/6 539/1/6
f 539/2/6 534/2/6 540/2/6
f 537/1/6 538/1/6 541/1/6
f 538/2/6 539/2/6 542/2/6
f 541/1/6 538/1/6 542/1/6
f 542/2/6 539/2/6 543/2/6
f 541/2/6 542/2/6 544/2/6
f 544/2/6 542/2/6 545/2/6
