# MagicaVoxel @ Ephtracy

# group
o 

# material
mtllib SlicedTomato.mtl
usemtl palette

# normals
vn -1 0 0
vn 1 0 0
vn 0 0 1
vn 0 0 -1
vn 0 -1 0
vn 0 1 0

# texcoords
vt 0.162109 0.5
vt 0.845703 0.5
vt 0.857422 0.5
vt 0.958984 0.5

# verts
v -0.9 0.1 0.9
v -0.9 0.1 -1.1
v -0.9 0.3 0.9
v -0.9 0.3 -1.1
v -0.6 0 0.6
v -0.6 0 -0.8
v -0.6 0.1 0.6
v -0.6 0.1 -0.8
v -0.6 0.2 -0.3
v -0.6 0.2 -0.6
v -0.6 0.3 -0.3
v -0.6 0.3 -0.6
v -0.5 0.2 -0.2
v -0.5 0.2 -0.3
v -0.5 0.2 -0.6
v -0.5 0.2 -0.7
v -0.5 0.3 -0.2
v -0.5 0.3 -0.3
v -0.5 0.3 -0.6
v -0.5 0.3 -0.7
v -0.4 0.2 -0.1
v -0.4 0.2 -0.2
v -0.4 0.2 -0.7
v -0.4 0.2 -0.8
v -0.4 0.3 -0.1
v -0.4 0.3 -0.2
v -0.4 0.3 -0.7
v -0.4 0.3 -0.8
v 0 0.2 0.4
v 0 0.2 0.1
v 0 0.3 0.4
v 0 0.3 0.1
v 0.1 0.2 0.5
v 0.1 0.2 0.4
v 0.1 0.2 0.1
v 0.1 0.2 0
v 0.1 0.3 0.5
v 0.1 0.3 0.4
v 0.1 0.3 0.1
v 0.1 0.3 0
v 0.2 0.2 0.6
v 0.2 0.2 0.5
v 0.2 0.2 0
v 0.2 0.2 -0.1
v 0.2 0.3 0.6
v 0.2 0.3 0.5
v 0.2 0.3 0
v 0.2 0.3 -0.1
v 1 0.2 0.8
v 1 0.2 -1
v 1 0.3 0.8
v 1 0.3 -1
v -0.8 0.2 0.8
v -0.8 0.2 -1
v -0.8 0.3 0.8
v -0.8 0.3 -1
v -0.1 0.2 -0.1
v -0.1 0.2 -0.2
v -0.1 0.2 -0.7
v -0.1 0.2 -0.8
v -0.1 0.3 -0.1
v -0.1 0.3 -0.2
v -0.1 0.3 -0.7
v -0.1 0.3 -0.8
v 0 0.2 -0.2
v 0 0.2 -0.3
v 0 0.2 -0.6
v 0 0.2 -0.7
v 0 0.3 -0.2
v 0 0.3 -0.3
v 0 0.3 -0.6
v 0 0.3 -0.7
v 0.1 0.2 -0.3
v 0.1 0.2 -0.6
v 0.1 0.3 -0.3
v 0.1 0.3 -0.6
v 0.5 0.2 0.6
v 0.5 0.2 0.5
v 0.5 0.2 0
v 0.5 0.2 -0.1
v 0.5 0.3 0.6
v 0.5 0.3 0.5
v 0.5 0.3 0
v 0.5 0.3 -0.1
v 0.6 0.2 0.5
v 0.6 0.2 0.4
v 0.6 0.2 0.1
v 0.6 0.2 0
v 0.6 0.3 0.5
v 0.6 0.3 0.4
v 0.6 0.3 0.1
v 0.6 0.3 0
v 0.7 0.2 0.4
v 0.7 0.2 0.1
v 0.7 0.3 0.4
v 0.7 0.3 0.1
v 0.8 0 0.6
v 0.8 0 -0.8
v 0.8 0.1 0.6
v 0.8 0.1 -0.8
v 1.1 0.1 0.9
v 1.1 0.1 -1.1
v 1.1 0.3 0.9
v 1.1 0.3 -1.1
v -0.9 0.1 0.9
v -0.9 0.3 0.9
v 1.1 0.1 0.9
v 1.1 0.3 0.9
v -0.6 0 0.6
v -0.6 0.1 0.6
v 0.2 0.2 0.6
v 0.2 0.3 0.6
v 0.5 0.2 0.6
v 0.5 0.3 0.6
v 0.8 0 0.6
v 0.8 0.1 0.6
v 0.1 0.2 0.5
v 0.1 0.3 0.5
v 0.2 0.2 0.5
v 0.2 0.3 0.5
v 0.5 0.2 0.5
v 0.5 0.3 0.5
v 0.6 0.2 0.5
v 0.6 0.3 0.5
v 0 0.2 0.4
v 0 0.3 0.4
v 0.1 0.2 0.4
v 0.1 0.3 0.4
v 0.6 0.2 0.4
v 0.6 0.3 0.4
v 0.7 0.2 0.4
v 0.7 0.3 0.4
v -0.4 0.2 -0.1
v -0.4 0.3 -0.1
v -0.1 0.2 -0.1
v -0.1 0.3 -0.1
v -0.5 0.2 -0.2
v -0.5 0.3 -0.2
v -0.4 0.2 -0.2
v -0.4 0.3 -0.2
v -0.1 0.2 -0.2
v -0.1 0.3 -0.2
v 0 0.2 -0.2
v 0 0.3 -0.2
v -0.6 0.2 -0.3
v -0.6 0.3 -0.3
v -0.5 0.2 -0.3
v -0.5 0.3 -0.3
v 0 0.2 -0.3
v 0 0.3 -0.3
v 0.1 0.2 -0.3
v 0.1 0.3 -0.3
v -0.8 0.2 -1
v -0.8 0.3 -1
v 1 0.2 -1
v 1 0.3 -1
v -0.8 0.2 0.8
v -0.8 0.3 0.8
v 1 0.2 0.8
v 1 0.3 0.8
v 0 0.2 0.1
v 0 0.3 0.1
v 0.1 0.2 0.1
v 0.1 0.3 0.1
v 0.6 0.2 0.1
v 0.6 0.3 0.1
v 0.7 0.2 0.1
v 0.7 0.3 0.1
v 0.1 0.2 0
v 0.1 0.3 0
v 0.2 0.2 0
v 0.2 0.3 0
v 0.5 0.2 0
v 0.5 0.3 0
v 0.6 0.2 0
v 0.6 0.3 0
v 0.2 0.2 -0.1
v 0.2 0.3 -0.1
v 0.5 0.2 -0.1
v 0.5 0.3 -0.1
v -0.6 0.2 -0.6
v -0.6 0.3 -0.6
v -0.5 0.2 -0.6
v -0.5 0.3 -0.6
v 0 0.2 -0.6
v 0 0.3 -0.6
v 0.1 0.2 -0.6
v 0.1 0.3 -0.6
v -0.5 0.2 -0.7
v -0.5 0.3 -0.7
v -0.4 0.2 -0.7
v -0.4 0.3 -0.7
v -0.1 0.2 -0.7
v -0.1 0.3 -0.7
v 0 0.2 -0.7
v 0 0.3 -0.7
v -0.6 0 -0.8
v -0.6 0.1 -0.8
v -0.4 0.2 -0.8
v -0.4 0.3 -0.8
v -0.1 0.2 -0.8
v -0.1 0.3 -0.8
v 0.8 0 -0.8
v 0.8 0.1 -0.8
v -0.9 0.1 -1.1
v -0.9 0.3 -1.1
v 1.1 0.1 -1.1
v 1.1 0.3 -1.1
v -0.6 0 0.6
v 0.8 0 0.6
v -0.6 0 -0.8
v 0.8 0 -0.8
v -0.9 0.1 0.9
v 1.1 0.1 0.9
v -0.6 0.1 0.6
v 0.8 0.1 0.6
v -0.6 0.1 -0.8
v 0.8 0.1 -0.8
v -0.9 0.1 -1.1
v 1.1 0.1 -1.1
v -0.8 0.2 0.8
v 1 0.2 0.8
v 0.2 0.2 0.6
v 0.5 0.2 0.6
v 0.1 0.2 0.5
v 0.2 0.2 0.5
v 0.5 0.2 0.5
v 0.6 0.2 0.5
v 0 0.2 0.4
v 0.1 0.2 0.4
v 0.6 0.2 0.4
v 0.7 0.2 0.4
v 0 0.2 0.1
v 0.1 0.2 0.1
v 0.6 0.2 0.1
v 0.7 0.2 0.1
v 0.1 0.2 0
v 0.2 0.2 0
v 0.5 0.2 0
v 0.6 0.2 0
v -0.4 0.2 -0.1
v -0.1 0.2 -0.1
v 0.2 0.2 -0.1
v 0.5 0.2 -0.1
v -0.5 0.2 -0.2
v -0.4 0.2 -0.2
v -0.1 0.2 -0.2
v 0 0.2 -0.2
v -0.6 0.2 -0.3
v -0.5 0.2 -0.3
v 0 0.2 -0.3
v 0.1 0.2 -0.3
v -0.6 0.2 -0.6
v -0.5 0.2 -0.6
v 0 0.2 -0.6
v 0.1 0.2 -0.6
v -0.5 0.2 -0.7
v -0.4 0.2 -0.7
v -0.1 0.2 -0.7
v 0 0.2 -0.7
v -0.4 0.2 -0.8
v -0.1 0.2 -0.8
v -0.8 0.2 -1
v 1 0.2 -1
v -0.9 0.3 0.9
v 1.1 0.3 0.9
v -0.8 0.3 0.8
v 1 0.3 0.8
v 0.2 0.3 0.6
v 0.5 0.3 0.6
v 0.1 0.3 0.5
v 0.2 0.3 0.5
v 0.5 0.3 0.5
v 0.6 0.3 0.5
v 0 0.3 0.4
v 0.1 0.3 0.4
v 0.2 0.3 0.4
v 0.3 0.3 0.4
v 0.4 0.3 0.4
v 0.5 0.3 0.4
v 0.6 0.3 0.4
v 0.7 0.3 0.4
v 0.3 0.3 0.3
v 0.4 0.3 0.3
v 0.2 0.3 0.2
v 0.3 0.3 0.2
v 0.4 0.3 0.2
v 0.5 0.3 0.2
v 0 0.3 0.1
v 0.1 0.3 0.1
v 0.2 0.3 0.1
v 0.3 0.3 0.1
v 0.4 0.3 0.1
v 0.5 0.3 0.1
v 0.6 0.3 0.1
v 0.7 0.3 0.1
v 0.1 0.3 0
v 0.2 0.3 0
v 0.5 0.3 0
v 0.6 0.3 0
v -0.4 0.3 -0.1
v -0.1 0.3 -0.1
v 0.2 0.3 -0.1
v 0.5 0.3 -0.1
v -0.5 0.3 -0.2
v -0.4 0.3 -0.2
v -0.1 0.3 -0.2
v 0 0.3 -0.2
v -0.6 0.3 -0.3
v -0.5 0.3 -0.3
v -0.4 0.3 -0.3
v -0.3 0.3 -0.3
v -0.2 0.3 -0.3
v -0.1 0.3 -0.3
v 0 0.3 -0.3
v 0.1 0.3 -0.3
v -0.3 0.3 -0.4
v -0.2 0.3 -0.4
v -0.4 0.3 -0.5
v -0.3 0.3 -0.5
v -0.2 0.3 -0.5
v -0.1 0.3 -0.5
v -0.6 0.3 -0.6
v -0.5 0.3 -0.6
v -0.4 0.3 -0.6
v -0.3 0.3 -0.6
v -0.2 0.3 -0.6
v -0.1 0.3 -0.6
v 0 0.3 -0.6
v 0.1 0.3 -0.6
v -0.5 0.3 -0.7
v -0.4 0.3 -0.7
v -0.1 0.3 -0.7
v 0 0.3 -0.7
v -0.4 0.3 -0.8
v -0.1 0.3 -0.8
v -0.8 0.3 -1
v 1 0.3 -1
v -0.9 0.3 -1.1
v 1.1 0.3 -1.1

# faces
f 3/4/1 2/4/1 1/4/1
f 4/4/1 2/4/1 3/4/1
f 7/4/1 6/4/1 5/4/1
f 8/4/1 6/4/1 7/4/1
f 11/2/1 10/2/1 9/2/1
f 12/2/1 10/2/1 11/2/1
f 17/2/1 14/2/1 13/2/1
f 18/2/1 14/2/1 17/2/1
f 19/2/1 16/2/1 15/2/1
f 20/2/1 16/2/1 19/2/1
f 25/2/1 22/2/1 21/2/1
f 26/2/1 22/2/1 25/2/1
f 27/2/1 24/2/1 23/2/1
f 28/2/1 24/2/1 27/2/1
f 31/2/1 30/2/1 29/2/1
f 32/2/1 30/2/1 31/2/1
f 37/2/1 34/2/1 33/2/1
f 38/2/1 34/2/1 37/2/1
f 39/2/1 36/2/1 35/2/1
f 40/2/1 36/2/1 39/2/1
f 45/2/1 42/2/1 41/2/1
f 46/2/1 42/2/1 45/2/1
f 47/2/1 44/2/1 43/2/1
f 48/2/1 44/2/1 47/2/1
f 51/4/1 50/4/1 49/4/1
f 52/4/1 50/4/1 51/4/1
f 53/4/2 54/4/2 55/4/2
f 55/4/2 54/4/2 56/4/2
f 57/2/2 58/2/2 61/2/2
f 61/2/2 58/2/2 62/2/2
f 59/2/2 60/2/2 63/2/2
f 63/2/2 60/2/2 64/2/2
f 65/2/2 66/2/2 69/2/2
f 69/2/2 66/2/2 70/2/2
f 67/2/2 68/2/2 71/2/2
f 71/2/2 68/2/2 72/2/2
f 73/2/2 74/2/2 75/2/2
f 75/2/2 74/2/2 76/2/2
f 77/2/2 78/2/2 81/2/2
f 81/2/2 78/2/2 82/2/2
f 79/2/2 80/2/2 83/2/2
f 83/2/2 80/2/2 84/2/2
f 85/2/2 86/2/2 89/2/2
f 89/2/2 86/2/2 90/2/2
f 87/2/2 88/2/2 91/2/2
f 91/2/2 88/2/2 92/2/2
f 93/2/2 94/2/2 95/2/2
f 95/2/2 94/2/2 96/2/2
f 97/4/2 98/4/2 99/4/2
f 99/4/2 98/4/2 100/4/2
f 101/4/2 102/4/2 103/4/2
f 103/4/2 102/4/2 104/4/2
f 107/4/3 106/4/3 105/4/3
f 108/4/3 106/4/3 107/4/3
f 113/2/3 112/2/3 111/2/3
f 114/2/3 112/2/3 113/2/3
f 115/4/3 110/4/3 109/4/3
f 116/4/3 110/4/3 115/4/3
f 119/2/3 118/2/3 117/2/3
f 120/2/3 118/2/3 119/2/3
f 123/2/3 122/2/3 121/2/3
f 124/2/3 122/2/3 123/2/3
f 127/2/3 126/2/3 125/2/3
f 128/2/3 126/2/3 127/2/3
f 131/2/3 130/2/3 129/2/3
f 132/2/3 130/2/3 131/2/3
f 135/2/3 134/2/3 133/2/3
f 136/2/3 134/2/3 135/2/3
f 139/2/3 138/2/3 137/2/3
f 140/2/3 138/2/3 139/2/3
f 143/2/3 142/2/3 141/2/3
f 144/2/3 142/2/3 143/2/3
f 147/2/3 146/2/3 145/2/3
f 148/2/3 146/2/3 147/2/3
f 151/2/3 150/2/3 149/2/3
f 152/2/3 150/2/3 151/2/3
f 155/4/3 154/4/3 153/4/3
f 156/4/3 154/4/3 155/4/3
f 157/4/4 158/4/4 159/4/4
f 159/4/4 158/4/4 160/4/4
f 161/2/4 162/2/4 163/2/4
f 163/2/4 162/2/4 164/2/4
f 165/2/4 166/2/4 167/2/4
f 167/2/4 166/2/4 168/2/4
f 169/2/4 170/2/4 171/2/4
f 171/2/4 170/2/4 172/2/4
f 173/2/4 174/2/4 175/2/4
f 175/2/4 174/2/4 176/2/4
f 177/2/4 178/2/4 179/2/4
f 179/2/4 178/2/4 180/2/4
f 181/2/4 182/2/4 183/2/4
f 183/2/4 182/2/4 184/2/4
f 185/2/4 186/2/4 187/2/4
f 187/2/4 186/2/4 188/2/4
f 189/2/4 190/2/4 191/2/4
f 191/2/4 190/2/4 192/2/4
f 193/2/4 194/2/4 195/2/4
f 195/2/4 194/2/4 196/2/4
f 199/2/4 200/2/4 201/2/4
f 201/2/4 200/2/4 202/2/4
f 197/4/4 198/4/4 203/4/4
f 203/4/4 198/4/4 204/4/4
f 205/4/4 206/4/4 207/4/4
f 207/4/4 206/4/4 208/4/4
f 211/4/5 210/4/5 209/4/5
f 212/4/5 210/4/5 211/4/5
f 215/4/5 214/4/5 213/4/5
f 216/4/5 214/4/5 215/4/5
f 217/4/5 215/4/5 213/4/5
f 218/4/5 214/4/5 216/4/5
f 219/4/5 217/4/5 213/4/5
f 219/4/5 218/4/5 217/4/5
f 220/4/5 214/4/5 218/4/5
f 220/4/5 218/4/5 219/4/5
f 221/4/6 222/4/6 223/4/6
f 223/4/6 222/4/6 224/4/6
f 221/4/6 223/4/6 225/4/6
f 225/4/6 223/4/6 226/4/6
f 224/4/6 222/4/6 227/4/6
f 227/4/6 222/4/6 228/4/6
f 221/4/6 225/4/6 229/4/6
f 229/4/6 225/4/6 230/4/6
f 228/4/6 222/4/6 231/4/6
f 231/4/6 222/4/6 232/4/6
f 221/4/6 229/4/6 233/4/6
f 232/4/6 222/4/6 236/4/6
f 233/4/6 234/4/6 237/4/6
f 235/4/6 236/4/6 240/4/6
f 237/4/6 238/4/6 241/4/6
f 221/4/6 233/4/6 241/4/6
f 233/4/6 237/4/6 241/4/6
f 241/4/6 238/4/6 242/4/6
f 242/4/6 238/4/6 243/4/6
f 239/4/6 240/4/6 244/4/6
f 221/4/6 241/4/6 245/4/6
f 245/4/6 241/4/6 246/4/6
f 242/4/6 243/4/6 247/4/6
f 243/4/6 244/4/6 247/4/6
f 247/4/6 244/4/6 248/4/6
f 221/4/6 245/4/6 249/4/6
f 249/4/6 245/4/6 250/4/6
f 248/4/6 244/4/6 251/4/6
f 251/4/6 244/4/6 252/4/6
f 221/4/6 249/4/6 253/4/6
f 252/4/6 244/4/6 256/4/6
f 253/4/6 254/4/6 257/4/6
f 255/4/6 256/4/6 260/4/6
f 257/4/6 258/4/6 261/4/6
f 259/4/6 260/4/6 262/4/6
f 257/4/6 261/4/6 263/4/6
f 261/4/6 262/4/6 263/4/6
f 221/4/6 253/4/6 263/4/6
f 253/4/6 257/4/6 263/4/6
f 262/4/6 260/4/6 264/4/6
f 263/4/6 262/4/6 264/4/6
f 240/4/6 236/4/6 264/4/6
f 236/4/6 222/4/6 264/4/6
f 260/4/6 256/4/6 264/4/6
f 256/4/6 244/4/6 264/4/6
f 244/4/6 240/4/6 264/4/6
f 265/4/6 266/4/6 267/4/6
f 267/4/6 266/4/6 268/4/6
f 269/2/6 270/2/6 272/2/6
f 272/2/6 270/2/6 273/2/6
f 271/2/6 272/2/6 276/2/6
f 272/3/6 273/3/6 277/3/6
f 276/2/6 272/2/6 277/2/6
f 277/3/6 273/3/6 278/3/6
f 278/3/6 273/3/6 279/3/6
f 273/2/6 274/2/6 280/2/6
f 279/3/6 273/3/6 280/3/6
f 280/2/6 274/2/6 281/2/6
f 278/1/6 279/1/6 283/1/6
f 276/3/6 277/3/6 283/3/6
f 277/3/6 278/3/6 283/3/6
f 280/3/6 281/3/6 284/3/6
f 283/1/6 279/1/6 284/1/6
f 279/3/6 280/3/6 284/3/6
f 276/3/6 283/3/6 285/3/6
f 283/3/6 284/3/6 285/3/6
f 285/3/6 284/3/6 286/3/6
f 284/3/6 281/3/6 287/3/6
f 286/3/6 284/3/6 287/3/6
f 287/3/6 281/3/6 288/3/6
f 275/2/6 276/2/6 289/2/6
f 276/3/6 285/3/6 290/3/6
f 289/2/6 276/2/6 290/2/6
f 285/1/6 286/1/6 291/1/6
f 290/3/6 285/3/6 291/3/6
f 286/3/6 287/3/6 292/3/6
f 291/1/6 286/1/6 292/1/6
f 287/1/6 288/1/6 293/1/6
f 292/3/6 287/3/6 293/3/6
f 288/3/6 281/3/6 294/3/6
f 293/1/6 288/1/6 294/1/6
f 281/2/6 282/2/6 295/2/6
f 294/3/6 281/3/6 295/3/6
f 295/2/6 282/2/6 296/2/6
f 290/2/6 291/2/6 297/2/6
f 293/3/6 294/3/6 298/3/6
f 297/2/6 291/2/6 298/2/6
f 292/3/6 293/3/6 298/3/6
f 291/3/6 292/3/6 298/3/6
f 294/2/6 295/2/6 299/2/6
f 298/3/6 294/3/6 299/3/6
f 299/2/6 295/2/6 300/2/6
f 298/2/6 299/2/6 303/2/6
f 303/2/6 299/2/6 304/2/6
f 301/2/6 302/2/6 306/2/6
f 306/2/6 302/2/6 307/2/6
f 305/2/6 306/2/6 310/2/6
f 306/3/6 307/3/6 311/3/6
f 310/2/6 306/2/6 311/2/6
f 311/3/6 307/3/6 312/3/6
f 312/3/6 307/3/6 313/3/6
f 307/2/6 308/2/6 314/2/6
f 313/3/6 307/3/6 314/3/6
f 314/2/6 308/2/6 315/2/6
f 312/1/6 313/1/6 317/1/6
f 310/3/6 311/3/6 317/3/6
f 311/3/6 312/3/6 317/3/6
f 314/3/6 315/3/6 318/3/6
f 317/1/6 313/1/6 318/1/6
f 313/3/6 314/3/6 318/3/6
f 310/3/6 317/3/6 319/3/6
f 317/3/6 318/3/6 319/3/6
f 319/3/6 318/3/6 320/3/6
f 318/3/6 315/3/6 321/3/6
f 320/3/6 318/3/6 321/3/6
f 321/3/6 315/3/6 322/3/6
f 309/2/6 310/2/6 323/2/6
f 310/3/6 319/3/6 324/3/6
f 323/2/6 310/2/6 324/2/6
f 319/1/6 320/1/6 325/1/6
f 324/3/6 319/3/6 325/3/6
f 320/3/6 321/3/6 326/3/6
f 325/1/6 320/1/6 326/1/6
f 321/1/6 322/1/6 327/1/6
f 326/3/6 321/3/6 327/3/6
f 322/3/6 315/3/6 328/3/6
f 327/1/6 322/1/6 328/1/6
f 315/2/6 316/2/6 329/2/6
f 328/3/6 315/3/6 329/3/6
f 329/2/6 316/2/6 330/2/6
f 324/2/6 325/2/6 331/2/6
f 327/3/6 328/3/6 332/3/6
f 331/2/6 325/2/6 332/2/6
f 326/3/6 327/3/6 332/3/6
f 325/3/6 326/3/6 332/3/6
f 328/2/6 329/2/6 333/2/6
f 332/3/6 328/3/6 333/3/6
f 333/2/6 329/2/6 334/2/6
f 332/2/6 333/2/6 335/2/6
f 335/2/6 333/2/6 336/2/6
f 265/4/6 267/4/6 337/4/6
f 268/4/6 266/4/6 338/4/6
f 265/4/6 337/4/6 339/4/6
f 337/4/6 338/4/6 339/4/6
f 338/4/6 266/4/6 340/4/6
f 339/4/6 338/4/6 340/4/6
